<?xml version="1.0" encoding="UTF-8" standalone="no"?>
<svg
   xmlns:dc="http://purl.org/dc/elements/1.1/"
   xmlns:cc="http://creativecommons.org/ns#"
   xmlns:rdf="http://www.w3.org/1999/02/22-rdf-syntax-ns#"
   xmlns:svg="http://www.w3.org/2000/svg"
   xmlns="http://www.w3.org/2000/svg"
   xmlns:xlink="http://www.w3.org/1999/xlink"
   xmlns:sodipodi="http://sodipodi.sourceforge.net/DTD/sodipodi-0.dtd"
   xmlns:inkscape="http://www.inkscape.org/namespaces/inkscape"
   version="1.1"
   viewBox="0 0 454.11038 530.45967"
   enable-background="new 0 0 454.11 454.11"
   id="svg48"
   sodipodi:docname="foxLogo.svg"
   inkscape:version="0.92.4 5da689c313, 2019-01-14"
   width="454.11038"
   height="530.45966">
  <metadata
     id="metadata54">
    <rdf:RDF>
      <cc:Work
         rdf:about="">
        <dc:format>image/svg+xml</dc:format>
        <dc:type
           rdf:resource="http://purl.org/dc/dcmitype/StillImage" />
        <dc:title />
      </cc:Work>
    </rdf:RDF>
  </metadata>
  <defs
     id="defs52">
    <clipPath
       clipPathUnits="userSpaceOnUse"
       id="clipPath1744">
      <use
         x="0"
         y="0"
         xlink:href="#g1740"
         id="use1746"
         width="100%"
         height="100%" />
    </clipPath>
  </defs>
  <sodipodi:namedview
     pagecolor="#ffffff"
     bordercolor="#666666"
     borderopacity="1"
     objecttolerance="10"
     gridtolerance="10"
     guidetolerance="10"
     inkscape:pageopacity="0"
     inkscape:pageshadow="2"
     inkscape:window-width="1920"
     inkscape:window-height="1052"
     id="namedview50"
     showgrid="false"
     inkscape:zoom="1.4142136"
     inkscape:cx="-93.613009"
     inkscape:cy="172.46206"
     inkscape:window-x="1920"
     inkscape:window-y="200"
     inkscape:window-maximized="1"
     inkscape:current-layer="svg48"
     showguides="false"
     fit-margin-top="0"
     fit-margin-left="0"
     fit-margin-right="0"
     fit-margin-bottom="0" />
  <rect
     style="fill:#fffffc;fill-opacity:1;stroke:none;stroke-width:7.55905533;stroke-linecap:round;stroke-linejoin:round;stroke-miterlimit:4;stroke-dasharray:none;stroke-dashoffset:0;stroke-opacity:1"
     id="rect1816"
     width="1436.8409"
     height="769.33215"
     x="-436.69281"
     y="31.546309"
     ry="2.0590501" />
  <path
     style="fill:#ff0000;fill-opacity:1;stroke:none;stroke-width:1.2930609;stroke-linecap:round;stroke-linejoin:round;stroke-miterlimit:4;stroke-dasharray:none;stroke-dashoffset:0;stroke-opacity:1"
     d="M 728.49548,438.63527 478.36542,356.9521 H 685.00734 V 153.73143 Z m 55.40842,33.37231 c 2.42752,0.0359 4.77965,0.92796 6.63932,2.55523 l 25.49082,22.28539 c 0.48714,0.42423 0.94381,0.88597 1.37044,1.37383 h 29.69648 c 0.42664,-0.48752 0.88394,-0.95022 1.37388,-1.3765 l 25.48873,-22.28205 c 2.29126,-2.00245 5.32776,-2.89123 8.33188,-2.43964 3.01793,0.454 5.66151,2.18989 7.25272,4.76299 0.28262,0.46153 0.52872,0.93974 0.73577,1.42863 l 2.72024,6.43684 c 7.05287,16.66513 4.34165,35.74076 -7.07561,49.78215 l -0.69095,0.84997 c 2.54097,5.05041 5.15092,7.5686 6.94602,8.80161 1.8851,1.29494 3.2027,1.44198 3.40181,1.45737 1.02813,-0.0383 1.87906,0.69585 2.05013,1.71195 0.17206,1.02329 -0.49391,2.01507 -1.48877,2.30998 -0.1037,0.0308 -2.57162,0.75315 -5.67981,0.93618 -0.96852,0.0572 -1.89186,0.0574 -2.7684,0 1.28604,1.08282 2.72259,2.13119 4.19232,3.20339 4.70733,3.43525 10.04311,7.3285 12.12669,13.78778 0.25043,0.77559 0.018,1.62579 -0.59202,2.16634 -0.60934,0.54056 -1.48182,0.66954 -2.22182,0.3281 -2.03903,-0.94152 -4.2678,0.23545 -5.53878,1.1366 1.63909,3.63437 6.57863,13.52797 13.18909,17.0874 0.63801,0.34349 1.04742,0.99842 1.07718,1.72132 0.0298,0.72393 -0.32392,1.40999 -0.93082,1.80549 -11.45973,7.46613 -21.7594,6.58213 -30.84716,5.8014 -9.38445,-0.8057 -16.79831,-1.44256 -23.38929,7.07765 0,0 -0.61267,18.46965 -0.61267,2.75704 -0.76914,6.3385 -4.92448,13.72628 -20.08903,13.72697 -0.58814,0 -1.18954,-0.0116 -1.81151,-0.0342 -0.62097,0.0229 -1.2248,0.0342 -1.81223,0.0342 -15.16454,0 -19.31583,-7.38845 -20.08559,-13.72968 -0.10677,-0.86967 -0.54333,-2.66469 -0.61277,-2.75433 -6.59098,-8.52021 -14.00349,-7.88335 -23.38929,-7.07765 -9.08776,0.78038 -19.38707,1.66507 -30.84716,-5.8014 -0.60691,-0.3955 -0.96023,-1.08156 -0.93011,-1.80549 0.0298,-0.72358 0.43944,-1.37848 1.0771,-1.72197 6.61154,-3.56012 11.55135,-13.45608 13.18981,-17.08941 -1.26864,-0.90252 -3.49461,-2.0799 -5.54013,-1.13531 -0.73965,0.34144 -1.61177,0.21315 -2.22183,-0.3274 -0.6096,-0.54056 -0.84145,-1.39073 -0.5913,-2.16632 2.08385,-6.45928 7.41901,-10.35256 12.12661,-13.78781 1.46937,-1.07221 2.90564,-2.12023 4.19168,-3.20339 -0.87554,0.0557 -1.79852,0.0558 -2.76776,0 -3.10819,-0.18304 -5.57602,-0.90605 -5.67973,-0.93683 -0.99521,-0.29492 -1.66019,-1.28669 -1.48813,-2.30999 0.17107,-1.01609 1.02678,-1.74995 2.0494,-1.71129 0.19948,-0.0151 1.51708,-0.16206 3.40254,-1.45733 1.79509,-1.23302 4.40541,-3.75189 6.94601,-8.8023 l -0.69095,-0.84997 c -11.41698,-14.04105 -14.12884,-33.11734 -7.0756,-49.78349 l 2.71961,-6.43417 c 0.20624,-0.48615 0.45017,-0.96162 0.7263,-1.4146 1.60184,-2.58884 4.24886,-4.32704 7.26949,-4.78035 0.56307,-0.0844 1.12696,-0.12122 1.68715,-0.11293 z M 533.71775,191.20586 c -0.33799,-0.004 -0.67986,0.0199 -1.02371,0.0715 -1.47559,0.22135 -2.795,0.95341 -3.75531,2.04204 l 21.89449,19.13947 c 3.60561,3.15231 5.26725,7.88122 4.5772,12.46943 1.75235,-0.35717 2.86903,-0.44358 2.93541,-0.44837 1.12768,-0.0835 2.11397,0.76633 2.19711,1.89704 0.083,1.12969 -0.76435,2.11289 -1.89303,2.19774 -0.0198,0.002 -2.00305,0.16101 -4.80914,0.96021 -6.37095,1.81564 -14.73322,6.15103 -18.38438,16.49271 -0.62746,1.7804 -1.31471,3.47548 -2.042,5.03761 -2.46062,5.2875 -5.16075,8.54641 -7.56347,10.55501 2.10197,-0.0684 4.21414,-0.52444 5.64969,-1.75472 0.73217,-0.6271 1.8025,-0.66109 2.57199,-0.0809 0.76977,0.58025 1.03237,1.61791 0.63071,2.49443 -1.91999,4.18894 -5.92636,7.11196 -9.80062,9.93892 -3.43834,2.50912 -6.96739,5.08447 -9.14836,8.55907 3.80743,0.44339 6.73671,3.32148 6.9012,3.48604 0.57858,0.57853 0.75849,1.44554 0.45774,2.20643 -0.22238,0.56278 -5.00753,12.49362 -12.77544,18.64566 9.1802,4.9358 17.48043,4.22256 25.53086,3.53147 7.43911,-0.63874 14.56395,-1.24491 21.0506,3.01964 -3.71654,-6.49177 -9.58988,-8.31048 -14.53555,-9.83669 -2.3928,-0.7383 -4.45897,-1.37624 -5.97109,-2.48506 -6.17291,-4.52662 -4.2825,-12.42552 -4.19908,-12.75942 0.27513,-1.09959 1.39082,-1.76886 2.48974,-1.49345 1.09991,0.27507 1.76859,1.38981 1.49345,2.48974 -0.0523,0.21794 -1.2855,5.57113 2.64413,8.45283 0.95517,0.70032 2.71528,1.24315 4.75359,1.87232 6.66186,2.05581 16.72924,5.1626 20.02292,20.12908 0.27676,1.25731 0.50537,2.61579 0.6795,4.03732 0.46767,3.85572 2.30109,6.52792 5.60497,8.17284 2.68841,1.33839 6.33605,1.989 10.84904,1.94315 v -1.38051 c -1.16394,-0.17244 -2.29108,-0.55848 -3.31506,-1.14932 -1.42383,-0.82178 -2.61104,-2.009 -3.43319,-3.43325 v -0.004 l -0.147,-0.25659 c -1.57515,-2.73151 -1.29009,-6.20568 0.71097,-8.64193 0.71846,-0.87173 1.62989,-1.5819 2.63674,-2.05608 0.86725,-0.41021 1.82233,-0.65343 2.78643,-0.71365 l 4.26185,-6.8e-4 c 2.11496,0.12795 4.07202,1.12134 5.42578,2.77106 1.11506,1.35446 1.72999,3.07155 1.72999,4.83314 0,1.33633 -0.35287,2.6544 -1.02101,3.81146 l -0.145,0.25259 c -1.43998,2.49474 -3.95019,4.16987 -6.75358,4.58657 v 1.38118 c 10.21987,0.11838 15.61742,-3.19488 16.45735,-10.11466 0.17413,-1.42323 0.4031,-2.781 0.6795,-4.03864 3.29395,-14.96683 13.36105,-18.07328 20.02283,-20.12909 2.03876,-0.62916 3.79878,-1.17232 4.75431,-1.87299 3.97408,-2.91419 2.65748,-8.39708 2.6435,-8.45216 -0.27514,-1.09992 0.39345,-2.21467 1.49345,-2.48974 1.09747,-0.27472 2.21461,0.39352 2.48965,1.49345 0.0839,0.33425 1.97392,8.2328 -4.19899,12.75942 -1.51248,1.10882 -3.57865,1.74677 -5.97109,2.48507 -4.94604,1.5262 -10.81874,3.34424 -14.53555,9.83601 6.48701,-4.26489 13.61176,-3.65805 21.0506,-3.01896 8.05079,0.69143 16.3503,1.40401 25.53149,-3.53281 -7.76782,-6.15205 -12.55369,-18.08221 -12.77607,-18.645 -0.30075,-0.76088 -0.12084,-1.6279 0.45765,-2.20642 0.16458,-0.16457 3.09485,-3.04197 6.90201,-3.48604 -2.18106,-3.47494 -5.71011,-6.05029 -9.14845,-8.55908 -3.87462,-2.82695 -7.88036,-5.75032 -9.79999,-9.93892 -0.40166,-0.87651 -0.13933,-1.91418 0.6308,-2.49442 0.76977,-0.58092 1.83947,-0.54692 2.57127,0.0802 1.4434,1.23712 3.55836,1.69465 5.6597,1.76274 -2.40542,-2.00792 -5.10952,-5.26801 -7.57348,-10.56303 -0.72801,-1.56316 -1.41553,-3.25889 -2.04264,-5.03896 -3.87939,-10.99 -13.32679,-15.09053 -18.61297,-16.55618 -2.68056,-0.7448 -4.55908,-0.89403 -4.57783,-0.8954 -1.12904,-0.0858 -1.9769,-1.07007 -1.89304,-2.19907 0.0839,-1.129 1.06438,-1.97749 2.19306,-1.89504 0.0622,0.005 1.09179,0.0827 2.71826,0.40293 -0.67057,-4.57862 0.99512,-9.28809 4.58126,-12.42398 l 22.01605,-19.24773 c -0.94769,-1.02705 -2.2294,-1.71894 -3.65711,-1.93379 -1.83342,-0.27609 -3.61788,0.24627 -5.0189,1.47072 l -25.49217,22.28607 c -0.5426,0.47281 -1.03336,0.99964 -1.46134,1.56962 -1.52006,2.0127 -2.25447,4.51097 -2.07078,7.03822 0.0821,1.13072 -0.76832,2.11363 -1.89907,2.19574 -1.1303,0.0821 -2.11352,-0.76801 -2.19567,-1.89838 -0.16287,-2.24295 0.19641,-4.46946 1.02434,-6.51569 l -12.31841,6.8e-4 -12.31779,6.9e-4 c 0.82766,2.04555 1.1873,4.2724 1.02443,6.51569 -0.0821,1.13071 -1.06501,1.98049 -2.19639,1.89838 -1.13075,-0.0822 -1.98114,-1.06569 -1.89907,-2.1964 0.18369,-2.52692 -0.55045,-5.02496 -2.06744,-7.03355 -0.43105,-0.57375 -0.92181,-1.10056 -1.46135,-1.5703 l -25.49478,-22.28873 c -1.13752,-0.99543 -2.52672,-1.52744 -3.99122,-1.54423 z m 102.90861,4.40482 -21.62981,18.90961 c -3.16978,2.77222 -4.46205,7.07583 -3.44799,11.07421 6.1024,1.74448 16.67712,6.50971 21.11003,19.06731 0.18883,0.5361 0.38524,1.05903 0.58463,1.57564 9.91957,-12.77862 12.17638,-29.84126 5.84953,-44.79064 z m -109.06547,0.13833 -2.40759,5.69714 c -6.32685,14.95006 -4.07031,32.01335 5.8489,44.79196 0.19938,-0.5166 0.39579,-1.03921 0.58463,-1.57497 4.39693,-12.45462 14.85577,-17.23751 20.87745,-19.00115 1.04725,-4.01925 -0.23816,-8.35032 -3.43121,-11.1417 z m 52.89802,121.5276 c -0.71917,0 -1.4406,0.16156 -2.08683,0.46708 -0.64558,0.30414 -1.23039,0.76066 -1.69193,1.32038 -1.28027,1.5587 -1.4627,3.78507 -0.4517,5.5381 l 0.14834,0.25793 c 0.58228,1.0072 1.42167,1.84767 2.42896,2.42893 1.00577,0.58058 2.15275,0.88738 3.31561,0.88738 2.36475,0 4.56755,-1.27174 5.74925,-3.31832 l 0.14501,-0.25325 c 0.43078,-0.74548 0.65749,-1.58997 0.65749,-2.44631 0,-1.12866 -0.39354,-2.22818 -1.10785,-3.0958 -0.93226,-1.13584 -2.3083,-1.78612 -3.7774,-1.78612 z"
     id="rect933"
     inkscape:connector-curvature="0"
     sodipodi:nodetypes="ccccccccccccccccccccccccccccccccccccccccccccccccccccccccccccccccccccccccccccccccscccccccccccccccccccccccccscccccccccccccccccscccccccccccccccccccccccccccccccccccccccccccccccscccccsccscss" />
  <g
     id="g1814"
     transform="matrix(0.27467864,0,0,0.27467864,-42.456071,192.48767)"
     inkscape:export-xdpi="1000"
     inkscape:export-ydpi="1000">
    <path
       sodipodi:nodetypes="cccccccccccccccccccccccccccccccccccccccccccccccccccccccccccccccscccccsscsccsccccccccccccccccccccccccccccccscccccccccccccccccccccccccccccccccccccccccccccccscccccccccccccccccscc"
       inkscape:connector-curvature="0"
       id="path907"
       d="m 450.95617,339.9559 c -19.322,-10.404 -33.758,-39.323 -38.549,-49.946 3.715,-2.634 10.229,-6.075 16.189,-3.323 2.163,0.998 4.713,0.622 6.494,-0.958 1.783,-1.58 2.462,-4.065 1.73,-6.332 -6.09,-18.88 -21.687,-30.26 -35.446,-40.301 -4.296,-3.134 -8.494,-6.198 -12.253,-9.363 2.562,0.164 5.261,0.163 8.092,-0.004 9.085,-0.535 16.299,-2.647 16.602,-2.737 2.908,-0.862 4.853,-3.761 4.35,-6.752 -0.5,-2.97 -2.986,-5.115 -5.991,-5.003 -0.582,-0.045 -4.434,-0.475 -9.944,-4.26 -5.247,-3.604 -12.875,-10.965 -20.302,-25.727 l 2.019,-2.484 c 33.372,-41.042 41.297,-96.800002 20.682,-145.511002 l -7.952,-18.814 c -0.605,-1.429 -1.324,-2.826 -2.15,-4.175 -4.651,-7.5210001 -12.378,-12.5960001 -21.199,-13.9230001 -8.781,-1.32 -17.657,1.278 -24.354,7.131 l -74.502,65.1290001 c -1.432,1.246 -2.769,2.6 -4.016,4.025 H 183.6572 c -1.247,-1.426 -2.582,-2.777 -4.006,-4.017 L 105.1432,7.4728979 c -6.69,-5.854 -15.561,-8.454 -24.339,-7.138 -8.829,1.325 -16.565,6.405 -21.247,13.9720001 -0.807,1.324 -1.52,2.714 -2.123,4.135 l -7.949,18.807 c -20.616,48.714 -12.691,104.472002 20.68,145.513002 l 2.02,2.485 c -7.426,14.762 -15.056,22.123 -20.303,25.727 -5.511,3.786 -9.362,4.216 -9.945,4.26 -2.989,-0.113 -5.49,2.033 -5.99,5.003 -0.503,2.991 1.44,5.89 4.349,6.752 0.303,0.09 7.517,2.202 16.602,2.737 2.833,0.167 5.532,0.167 8.091,0.004 -3.759,3.166 -7.957,6.229 -12.252,9.363 -13.76,10.041 -29.356,21.421 -35.447,40.301 -0.731,2.267 -0.052,4.752 1.73,6.332 1.783,1.58 4.332,1.956 6.494,0.958 5.979,-2.761 12.484,0.68 16.192,3.318 -4.789,10.62 -19.226,39.546 -38.551,49.952 -1.864,1.004 -3.062,2.917 -3.15,5.032 -0.088,2.116 0.945,4.122 2.719,5.278 33.497,21.824 63.602,19.238 90.165,16.957 27.434,-2.355 49.1,-4.217 68.365,20.687 0.203,0.262 1.478,5.51 1.79,8.052 2.25,18.535 14.385,40.131 58.70997,40.13 1.717,0 3.481,-0.032 5.296,-0.099 1.818,0.066 3.577,0.099 5.296,0.099 44.325,-0.002 56.471,-21.596 58.719,-40.123 0.313,-2.546 1.588,-7.797 1.791,-8.059 19.265,-24.904 40.934,-23.042 68.364,-20.687 26.563,2.282 56.669,4.866 90.165,-16.957 1.774,-1.156 2.808,-3.162 2.72,-5.278 -0.087,-2.113 -1.284,-4.026 -3.149,-5.03 z m -74.478,-167.108 c -0.583,-1.51 -1.156,-3.039 -1.708,-4.606 -12.957,-36.705 -43.866,-50.634 -61.703,-55.733 -2.964,-11.687 0.813,-24.266002 10.078,-32.369002 l 63.222,-55.27 7.209,17.057 c 18.493,43.696 11.896,93.570002 -17.098,130.921002 z m -149.426,239.501 c -3.399,0 -6.74997,-0.897 -9.68997,-2.594 -2.944,-1.699 -5.399,-4.154 -7.101,-7.098 l -0.433,-0.755 c -2.955,-5.124 -2.421,-11.631 1.321,-16.187 1.349,-1.636 3.057,-2.97 4.944,-3.859 1.889,-0.893 3.998,-1.366 6.09997,-1.366 h 9.73 c 4.294,0 8.317,1.902 11.042,5.222 2.088,2.536 3.237,5.749 3.237,9.048 0,2.503 -0.662,4.972 -1.921,7.151 l -0.423,0.739 c -3.454,5.982 -9.894,9.699 -16.806,9.699 z M 60.5382,41.924898 l 7.038,-16.652 62.762,54.868 c 9.333,8.159 13.09,20.818002 10.029,32.566002 -17.601,5.155 -48.172,19.135 -61.024,55.539 -0.552,1.566 -1.125,3.094 -1.708,4.604 -28.993,-37.351 -35.59,-87.227002 -17.097,-130.925002 z M 220.82317,372.5339 c -2.81797,0.176 -5.61097,0.886 -8.14597,2.085 -2.943,1.386 -5.606,3.462 -7.706,6.01 -5.849,7.121 -6.683,17.275 -2.079,25.259 l 0.43,0.75 c 0.002,0.003 0.004,0.006 0.005,0.01 2.403,4.163 5.873,7.633 10.035,10.035 2.993,1.727 6.287,2.857 9.68897,3.361 v 4.035 c -13.19097,0.134 -23.85197,-1.768 -31.70997,-5.68 -9.657,-4.808 -15.016,-12.62 -16.383,-23.89 -0.509,-4.155 -1.177,-8.125 -1.986,-11.8 -9.627,-43.746 -39.053,-52.826 -58.525,-58.835 -5.958,-1.839 -11.104,-3.427 -13.896,-5.474 -11.486,-8.423 -7.88,-24.07 -7.728,-24.707 0.804,-3.215 -1.151,-6.472 -4.366,-7.276 -3.212,-0.805 -6.472,1.151 -7.276,4.365 -0.244,0.976 -5.77,24.063 12.273,37.294 4.42,3.241 10.46,5.105 17.454,7.263 14.456,4.461 31.622,9.777 42.485,28.752 -18.96,-12.465 -39.785,-10.692 -61.529,-8.825 -23.531,2.02 -47.791,4.104 -74.624,-10.323 22.705,-17.982 36.691,-52.854 37.341,-54.499 0.879,-2.224 0.354,-4.758 -1.337,-6.449 -0.481,-0.481 -9.044,-8.894 -20.173,-10.19 6.375,-10.156 16.691,-17.683 26.741,-25.017 11.324,-8.263 23.033,-16.807 28.645,-29.051 1.174,-2.562 0.407,-5.595 -1.843,-7.291 -2.249,-1.696 -5.377,-1.598 -7.517,0.235 -4.196,3.596 -10.37,4.929 -16.514,5.129 7.023,-5.871 14.916,-15.396 22.108,-30.851 2.126,-4.566 4.135,-9.521 5.969,-14.725 10.672,-30.228 35.113,-42.9 53.735,-48.207 8.202,-2.336 14,-2.803 14.058,-2.807 3.299,-0.248 5.776,-3.121 5.533,-6.423 -0.243,-3.305 -3.127,-5.788 -6.423,-5.544 -0.194,0.014 -3.457,0.266 -8.579,1.31 2.017,-13.411002 -2.84,-27.233002 -13.379,-36.447002 l -63.996,-55.944 c 2.807,-3.182 6.663,-5.322 10.976,-5.969 5.36,-0.804 10.566,0.723 14.658,4.304 l 74.52,65.149 c 1.577,1.373 3.011,2.913 4.271,4.59 4.434,5.871 6.581,13.173 6.044,20.559002 -0.24,3.305 2.245,6.179 5.55,6.419 3.307,0.24 6.179,-2.244 6.419,-5.549 0.476,-6.557 -0.574,-13.066002 -2.993,-19.045002 l 36.00347,-0.0015 36.0055,-0.0015 c -2.42,5.981 -3.47,12.489002 -2.994,19.045002 0.24,3.304 3.115,5.789 6.419,5.549 3.305,-0.24 5.79,-3.114 5.55,-6.419 -0.537,-7.387002 1.609,-14.688002 6.052,-20.571002 1.251,-1.666 2.686,-3.206 4.272,-4.588 l 74.511,-65.14 c 4.095,-3.579 9.311,-5.106 14.67,-4.299 4.173,0.628 7.921,2.65 10.691,5.652 l -64.353,56.259 c -10.482,9.166 -15.35,22.932 -13.39,36.315002 -4.754,-0.936 -7.763,-1.165 -7.945,-1.178 -3.299,-0.241 -6.164,2.24 -6.41,5.54 -0.245,3.3 2.233,6.176 5.533,6.427 0.055,0.004 5.546,0.441 13.381,2.618 15.451,4.284 43.065,16.269 54.404,48.392 1.833,5.203 3.842,10.159 5.97,14.728 7.202,15.477 15.106,25.007 22.137,30.876 -6.142,-0.199 -12.324,-1.537 -16.543,-5.153 -2.139,-1.833 -5.266,-1.933 -7.516,-0.235 -2.251,1.696 -3.017,4.729 -1.843,7.291 5.611,12.243 17.32,20.788 28.645,29.051 10.05,7.333 20.365,14.86 26.74,25.017 -11.128,1.298 -19.692,9.709 -20.173,10.19 -1.691,1.691 -2.217,4.225 -1.338,6.449 0.65,1.645 14.637,36.517 37.342,54.499 -26.836,14.43 -51.095,12.346 -74.627,10.325 -21.743,-1.868 -42.568,-3.641 -61.529,8.825 10.864,-18.975 28.029,-24.29 42.486,-28.751 6.993,-2.158 13.033,-4.022 17.454,-7.263 18.043,-13.231 12.517,-36.317 12.273,-37.294 -0.804,-3.215 -4.068,-5.168 -7.276,-4.365 -3.215,0.804 -5.17,4.061 -4.366,7.276 0.041,0.161 3.889,16.188 -7.727,24.706 -2.793,2.048 -7.938,3.635 -13.897,5.474 -19.472,6.009 -48.897,15.089 -58.525,58.836 -0.808,3.676 -1.476,7.645 -1.985,11.805 -2.455,20.226 -18.232,29.911 -48.104,29.565 v -4.038 c 8.194,-1.218 15.531,-6.114 19.74,-13.406 l 0.423,-0.738 c 1.953,-3.382 2.986,-7.235 2.986,-11.141 0,-5.149 -1.798,-10.168 -5.057,-14.127 -3.957,-4.822 -9.678,-7.725 -15.86,-8.099"
       inkscape:export-xdpi="1000"
       inkscape:export-ydpi="1000"
       style="fill:#000000;fill-opacity:1;stroke:none;stroke-opacity:1" />
    <path
       sodipodi:nodetypes="ccccccsccccccc"
       inkscape:connector-curvature="0"
       id="path913"
       d="m 184.6532,284.3309 c 1.273,-0.812 1.981,-2.272 1.829,-3.775 -0.767,-7.576 -4.799,-14.411 -11.065,-18.753 -6.27,-4.344 -14.097,-5.719 -21.478,-3.772 l -10.579,2.79 c 8.51346,17.2912 -0.6401,-1.00549 4.45051,8.94247 6.51687,10.12621 11.45849,18.44553 23.52049,18.44553 4.738,0 9.345,-1.341 13.322,-3.878 z m -29.934,-18.23 1.263,-0.334 c 5.11,-1.35 10.534,-0.397 14.877,2.613 3.62,2.508 6.164,6.217 7.215,10.423 -2.112,0.926 -4.403,1.407 -6.743,1.407 -8.342,-10e-4 -15.288,-6.1 -16.612,-14.109 z"
       inkscape:export-xdpi="1000"
       inkscape:export-ydpi="1000" />
    <flowRoot
       transform="matrix(2.4838573,0,0,2.4838573,467.78647,99.389138)"
       style="font-style:normal;font-weight:normal;font-size:40px;line-height:1.25;font-family:sans-serif;letter-spacing:0px;word-spacing:0px;fill:#000000;fill-opacity:1;stroke:none"
       id="flowRoot923"
       xml:space="preserve"
       inkscape:export-xdpi="1000"
       inkscape:export-ydpi="1000"><flowRegion
         id="flowRegion919"><rect
           y="137.76787"
           x="-180.28099"
           height="112.25043"
           width="583.70221"
           id="rect917" /></flowRegion><flowPara
         style="font-style:normal;font-variant:normal;font-weight:normal;font-stretch:normal;font-family:'Fox Sans TRF';-inkscape-font-specification:'Fox Sans TRF'"
         id="flowPara921">ArcticFox</flowPara></flowRoot>    <path
       d="m 269.02517,284.3309 c -1.273,-0.812 -1.981,-2.272 -1.829,-3.775 0.767,-7.576 4.799,-14.411 11.065,-18.753 6.27,-4.344 14.097,-5.719 21.478,-3.772 l 10.579,2.79 c -8.5134,17.2912 0.6401,-1.00549 -4.4505,8.94247 -6.5169,10.12621 -11.4585,18.44553 -23.5205,18.44553 -4.738,0 -9.345,-1.341 -13.322,-3.878 z m 29.934,-18.23 -1.263,-0.334 c -5.11,-1.35 -10.534,-0.397 -14.877,2.613 -3.62,2.508 -6.164,6.217 -7.215,10.423 2.112,0.926 4.403,1.407 6.743,1.407 8.342,-10e-4 15.288,-6.1 16.612,-14.109 z"
       id="path925"
       inkscape:connector-curvature="0"
       sodipodi:nodetypes="ccccccsccccccc"
       inkscape:export-xdpi="1000"
       inkscape:export-ydpi="1000" />
  </g>
  <g
     id="g855" />
  <path
     inkscape:connector-curvature="0"
     id="path1735"
     d="M 184.19433,153.73143 V 356.9521 H 390.83624 V 153.73143 Z m 55.40842,33.37231 c 2.42752,0.0359 4.77965,0.92795 6.63932,2.55522 l 25.49081,22.2854 c 0.48715,0.42422 0.94381,0.88597 1.37045,1.37383 h 29.69648 c 0.42664,-0.48752 0.88393,-0.95023 1.37388,-1.37651 l 25.48874,-22.28205 c 2.29126,-2.00245 5.32776,-2.89123 8.33188,-2.43963 3.01792,0.454 5.66151,2.18989 7.25272,4.76298 0.28262,0.46153 0.52871,0.93974 0.73576,1.42863 l 2.72024,6.43685 c 7.05288,16.66512 4.34166,35.74076 -7.0756,49.78214 l -0.69095,0.84996 c 2.54088,5.05041 5.15092,7.56862 6.94602,8.80164 1.88509,1.29493 3.2027,1.44196 3.40181,1.45736 1.02813,-0.0383 1.87905,0.69583 2.05012,1.71194 0.17206,1.02328 -0.49391,2.01509 -1.48876,2.31 -0.1037,0.0308 -2.57162,0.75312 -5.67981,0.93615 -0.96852,0.0572 -1.89186,0.0575 -2.7684,0.002 1.28604,1.08282 2.72259,2.13117 4.19232,3.20339 4.70733,3.43525 10.04311,7.32853 12.12669,13.78779 0.25043,0.77559 0.018,1.62578 -0.59211,2.16634 -0.60925,0.54055 -1.48173,0.66952 -2.22174,0.32809 -2.03903,-0.94153 -4.26779,0.23546 -5.53877,1.13662 1.63909,3.63436 6.57863,13.52796 13.18909,17.0874 0.63801,0.3435 1.04742,0.9984 1.07718,1.72131 0.0298,0.72393 -0.32392,1.41 -0.93082,1.80549 -11.45974,7.46613 -21.75941,6.5821 -30.84717,5.80138 -9.38445,-0.8057 -16.79831,-1.44256 -23.38929,7.07766 -0.0694,0.0896 -0.50563,1.88598 -0.61267,2.75702 -0.76914,6.3385 -4.92448,13.72631 -20.08903,13.72699 -0.58814,0 -1.18954,-0.0115 -1.81151,-0.0341 -0.62097,0.0229 -1.2248,0.0341 -1.81223,0.0341 -15.16454,3.4e-4 -19.31583,-7.38842 -20.08559,-13.72966 -0.10678,-0.86968 -0.54333,-2.66472 -0.61277,-2.75435 -6.59098,-8.52022 -14.00349,-7.88336 -23.38929,-7.07766 -9.08776,0.78038 -19.38707,1.6651 -30.84717,-5.80138 -0.6069,-0.39549 -0.96022,-1.08156 -0.9301,-1.80549 0.0298,-0.72359 0.43944,-1.37849 1.0771,-1.72198 6.61154,-3.56012 11.55135,-13.45607 13.18981,-17.08941 -1.26864,-0.90252 -3.49461,-2.07988 -5.54013,-1.13529 -0.73965,0.34145 -1.61186,0.21314 -2.22183,-0.32742 -0.60961,-0.54055 -0.84145,-1.39073 -0.59139,-2.16632 2.08394,-6.45927 7.41909,-10.35255 12.12669,-13.7878 1.46938,-1.07221 2.90565,-2.12023 4.19169,-3.20339 -0.87554,0.0557 -1.79852,0.0558 -2.76776,-0.002 -3.10819,-0.18304 -5.57612,-0.90604 -5.67973,-0.93683 -0.99521,-0.29491 -1.66019,-1.2867 -1.48813,-2.30999 0.17107,-1.0161 1.02677,-1.74994 2.0494,-1.71128 0.19948,-0.0151 1.51708,-0.16209 3.40253,-1.45736 1.7951,-1.23301 4.40542,-3.7519 6.94602,-8.8023 l -0.69095,-0.84996 c -11.41699,-14.04105 -14.12884,-33.11733 -7.0756,-49.78348 l 2.71961,-6.43417 c 0.20624,-0.48616 0.45017,-0.96163 0.7263,-1.4146 1.60175,-2.58884 4.24886,-4.32704 7.26939,-4.78035 0.56317,-0.0844 1.12706,-0.12122 1.68725,-0.11293 z m -0.0559,4.10212 c -0.33799,-0.004 -0.67986,0.0199 -1.02371,0.0715 -1.4756,0.22135 -2.795,0.95341 -3.75531,2.04204 l 21.89449,19.13947 c 3.60561,3.15231 5.26725,7.88122 4.5772,12.46943 1.75235,-0.35717 2.86903,-0.44358 2.93541,-0.44837 1.12768,-0.0835 2.11396,0.76633 2.19711,1.89704 0.083,1.12969 -0.76436,2.11289 -1.89303,2.19774 -0.0198,0.002 -2.00305,0.16101 -4.80914,0.96021 -6.37095,1.81564 -14.73322,6.15103 -18.38438,16.49271 -0.62746,1.7804 -1.31471,3.47548 -2.04209,5.03761 -2.46053,5.2875 -5.16066,8.54641 -7.56338,10.55501 2.10197,-0.0684 4.21414,-0.52444 5.64969,-1.75472 0.73216,-0.6271 1.8025,-0.66109 2.5719,-0.0809 0.76986,0.58025 1.03246,1.61791 0.6308,2.49443 -1.91999,4.18894 -5.92636,7.11196 -9.80062,9.93892 -3.43834,2.50912 -6.96739,5.08447 -9.14836,8.55907 3.80743,0.44339 6.73662,3.32148 6.90119,3.48604 0.57859,0.57853 0.7585,1.44554 0.45775,2.20643 -0.22238,0.56278 -5.00753,12.49362 -12.77544,18.64566 9.18011,4.9358 17.48034,4.22256 25.53086,3.53147 7.43911,-0.63874 14.56395,-1.24491 21.0506,3.01964 -3.71654,-6.49177 -9.58988,-8.31048 -14.53555,-9.83669 -2.3928,-0.7383 -4.45898,-1.37624 -5.97118,-2.48506 -6.17292,-4.52662 -4.28241,-12.42552 -4.19899,-12.75942 0.27513,-1.09959 1.39082,-1.76886 2.48974,-1.49345 1.09991,0.27507 1.76859,1.38981 1.49345,2.48974 -0.0523,0.21794 -1.2855,5.57113 2.64413,8.45283 0.95517,0.70032 2.71528,1.24315 4.75359,1.87232 6.66186,2.05581 16.72924,5.1626 20.02283,20.12908 0.27685,1.25731 0.50545,2.61579 0.67959,4.03732 0.46767,3.85572 2.30109,6.52792 5.60497,8.17284 2.68841,1.33839 6.33604,1.989 10.84904,1.94315 v -1.38051 c -1.16394,-0.17244 -2.29108,-0.55848 -3.31506,-1.14932 -1.42392,-0.82178 -2.61104,-2.009 -3.4332,-3.43325 v -0.004 l -0.14699,-0.25659 c -1.57515,-2.73151 -1.29009,-6.20568 0.71097,-8.64193 0.71846,-0.87173 1.62989,-1.5819 2.63674,-2.05608 0.86725,-0.41021 1.82233,-0.65343 2.78643,-0.71365 l 4.26185,-6.8e-4 c 2.11496,0.12795 4.07202,1.12134 5.42578,2.77106 1.11497,1.35446 1.72999,3.07155 1.72999,4.83314 0,1.33633 -0.35287,2.6544 -1.02101,3.81146 l -0.145,0.25259 c -1.43998,2.49474 -3.95019,4.16987 -6.75358,4.58657 v 1.38118 c 10.21987,0.11838 15.61742,-3.19488 16.45735,-10.11466 0.17413,-1.42323 0.4031,-2.781 0.67949,-4.03864 3.29396,-14.96683 13.36106,-18.07328 20.02284,-20.12909 2.03876,-0.62916 3.79877,-1.17232 4.75431,-1.87299 3.97408,-2.91419 2.65747,-8.39708 2.6435,-8.45216 -0.27514,-1.09992 0.39345,-2.21467 1.49345,-2.48974 1.09747,-0.27472 2.21461,0.39352 2.48965,1.49345 0.0839,0.33425 1.97392,8.2328 -4.19899,12.75942 -1.51248,1.10882 -3.57865,1.74677 -5.97109,2.48507 -4.94604,1.5262 -10.81875,3.34424 -14.53555,9.83601 6.487,-4.26489 13.61175,-3.65805 21.0506,-3.01896 8.05079,0.69143 16.3503,1.40401 25.53149,-3.53281 -7.76782,-6.15205 -12.55369,-18.08221 -12.77607,-18.645 -0.30075,-0.76088 -0.12084,-1.6279 0.45765,-2.20642 0.16458,-0.16457 3.09485,-3.04197 6.90201,-3.48604 -2.18106,-3.47494 -5.71021,-6.05029 -9.14845,-8.55908 -3.87462,-2.82695 -7.88036,-5.75032 -9.79999,-9.93892 -0.40166,-0.87651 -0.13933,-1.91418 0.6308,-2.49442 0.76976,-0.58092 1.83946,-0.54692 2.57126,0.0802 1.44341,1.23712 3.55837,1.69465 5.65971,1.76274 -2.40543,-2.00792 -5.10952,-5.26801 -7.57348,-10.56303 -0.72801,-1.56316 -1.41553,-3.25889 -2.04264,-5.03896 -3.87939,-10.99 -13.32679,-15.09053 -18.61297,-16.55618 -2.68057,-0.7448 -4.55908,-0.89403 -4.57784,-0.8954 -1.12903,-0.0858 -1.97689,-1.07007 -1.89303,-2.19907 0.0839,-1.129 1.06438,-1.97749 2.19297,-1.89504 0.0622,0.005 1.09188,0.0827 2.71835,0.40293 -0.67057,-4.57862 0.99512,-9.28809 4.58125,-12.42398 l 22.01606,-19.24773 c -0.94769,-1.02705 -2.2294,-1.71894 -3.65711,-1.93379 -1.83342,-0.27609 -3.61788,0.24627 -5.0189,1.47072 l -25.49217,22.28607 c -0.5426,0.47281 -1.03336,0.99964 -1.46134,1.56962 -1.52006,2.0127 -2.25447,4.51097 -2.07078,7.03822 0.0821,1.13072 -0.76832,2.11363 -1.89907,2.19574 -1.1303,0.0821 -2.11352,-0.76801 -2.19567,-1.89838 -0.16287,-2.24295 0.19641,-4.46946 1.02434,-6.51569 l -12.31842,6.8e-4 -12.31778,6.9e-4 c 0.82766,2.04555 1.1873,4.2724 1.02443,6.51569 -0.0821,1.13071 -1.06501,1.98049 -2.19639,1.89838 -1.13075,-0.0822 -1.98114,-1.06569 -1.89907,-2.1964 0.18369,-2.52692 -0.55045,-5.02496 -2.06744,-7.03355 -0.43106,-0.57375 -0.92181,-1.10056 -1.46135,-1.5703 l -25.49478,-22.28873 c -1.13752,-0.99543 -2.52672,-1.52744 -3.99122,-1.54423 z m 102.90861,4.40482 -21.62981,18.90961 c -3.16979,2.77222 -4.46205,7.07583 -3.44799,11.07421 6.1024,1.74448 16.67711,6.50971 21.11003,19.06731 0.18883,0.5361 0.38524,1.05903 0.58463,1.57564 9.91957,-12.77862 12.17638,-29.84126 5.84953,-44.79064 z m -109.06547,0.13833 -2.4076,5.69714 c -6.32684,14.95006 -4.0703,32.01335 5.84882,44.79196 0.19947,-0.5166 0.39579,-1.03921 0.58471,-1.57497 4.39694,-12.45462 14.85578,-17.23751 20.87746,-19.00115 1.04724,-4.01925 -0.23816,-8.35032 -3.43121,-11.1417 z m 52.89802,121.5276 c -0.71918,0 -1.44061,0.16156 -2.08683,0.46708 -0.64559,0.30414 -1.23039,0.76066 -1.69193,1.32038 -1.28027,1.5587 -1.4627,3.78507 -0.4517,5.5381 l 0.14834,0.25793 c 0.58228,1.0072 1.42167,1.84767 2.42887,2.42893 1.00586,0.58058 2.15284,0.88738 3.31569,0.88738 2.36476,0 4.56756,-1.27174 5.74926,-3.31832 l 0.14501,-0.25325 c 0.43078,-0.74548 0.65749,-1.58997 0.65749,-2.44631 0,-1.12866 -0.39354,-2.22818 -1.10785,-3.0958 -0.93226,-1.13584 -2.3083,-1.78612 -3.7774,-1.78612 z"
     style="fill:#ff0000;fill-opacity:1;stroke:none;stroke-width:1.2930609;stroke-linecap:round;stroke-linejoin:round;stroke-miterlimit:4;stroke-dasharray:none;stroke-dashoffset:0;stroke-opacity:1" />
  <g
     id="g1742"
     clip-path="url(#clipPath1744)"
     transform="matrix(0.34212234,0,0,0.34212234,-97.449491,187.10227)">
    <g
       inkscape:label="Clip"
       id="g1740">
      <g
         id="g1749">
        <path
           sodipodi:nodetypes="cccccccccccccccccscccccccccccccccccccccccccscccccccccccccccccscccccccccccccccccccccccccccccccccccccccccccccccscccccsccscss"
           inkscape:connector-curvature="0"
           id="path1737"
           d="m 3476.8583,-28.005481 c -0.9879,-0.0113 -1.9872,0.0582 -2.9922,0.20899 -4.313,0.647 -8.1696,2.78675 -10.9766,5.96875 l 63.9961,55.94336 c 10.539,9.214 15.3959,23.03626 13.3789,36.44726 5.122,-1.044 8.3861,-1.29655 8.5801,-1.31055 3.296,-0.244 6.1789,2.23992 6.4219,5.544931 0.243,3.302 -2.2342,6.17582 -5.5332,6.42382 -0.058,0.004 -5.8547,0.47064 -14.0567,2.80664 -18.622,5.307 -43.0643,17.97904 -53.7363,48.20704 -1.834,5.204 -3.8428,10.1586 -5.9688,14.7246 -7.192,15.455 -15.0844,24.98057 -22.1074,30.85157 6.144,-0.2 12.3177,-1.53291 16.5137,-5.12891 2.14,-1.833 5.2686,-1.93233 7.5176,-0.23633 2.25,1.696 3.0177,4.72902 1.8437,7.29102 -5.612,12.244 -17.3225,20.78778 -28.6465,29.05078 -10.05,7.334 -20.3652,14.86158 -26.7402,25.01758 11.129,1.296 19.6909,9.70845 20.1719,10.18945 1.691,1.691 2.2169,4.22522 1.3379,6.44922 -0.65,1.645 -14.6368,36.518 -37.3418,54.5 26.833,14.427 51.094,12.34226 74.625,10.32226 21.744,-1.867 42.5693,-3.63882 61.5293,8.82618 -10.863,-18.975 -28.0304,-24.29096 -42.4864,-28.75196 -6.994,-2.158 -13.0331,-4.02267 -17.4531,-7.26367 -18.043,-13.231 -12.5174,-36.31892 -12.2734,-37.29492 0.804,-3.214 4.0653,-5.17023 7.2773,-4.36523 3.215,0.804 5.1693,4.06234 4.3653,7.27734 -0.152,0.637 -3.7575,16.28403 7.7285,24.70703 2.792,2.047 7.9365,3.63366 13.8945,5.47266 19.472,6.009 48.8984,15.08993 58.5254,58.83593 0.809,3.675 1.4773,7.64579 1.9863,11.80079 1.367,11.27 6.7258,19.08067 16.3828,23.88867 7.858,3.912 18.52,5.81369 31.711,5.67968 v -4.03515 c -3.402,-0.504 -6.6965,-1.63238 -9.6895,-3.35938 -4.162,-2.402 -7.6321,-5.87215 -10.0351,-10.03515 v -0.01 l -0.4297,-0.75 c -4.604,-7.984 -3.7709,-18.13876 2.0781,-25.25976 2.1,-2.548 4.764,-4.62377 7.707,-6.00977 2.535,-1.199 5.3266,-1.90994 8.1446,-2.08594 l 12.457,-0.002 c 6.182,0.374 11.9024,3.27761 15.8594,8.09961 3.259,3.959 5.0566,8.97795 5.0566,14.12695 0,3.906 -1.0314,7.75863 -2.9844,11.14063 l -0.4238,0.73828 c -4.209,7.292 -11.5462,12.18825 -19.7402,13.40625 v 4.03711 c 29.872,0.346 45.6485,-9.33845 48.1035,-29.56446 0.509,-4.16 1.1783,-8.12868 1.9863,-11.80468 9.628,-43.747 39.0534,-52.82694 58.5254,-58.83594 5.959,-1.839 11.1035,-3.42661 13.8965,-5.47461 11.616,-8.518 7.7676,-24.54408 7.7266,-24.70508 -0.804,-3.215 1.1502,-6.47334 4.3652,-7.27734 3.208,-0.803 6.4733,1.15023 7.2773,4.36523 0.244,0.977 5.7696,24.06393 -12.2734,37.29492 -4.421,3.241 -10.4601,5.10568 -17.4531,7.26368 -14.457,4.461 -31.6224,9.775 -42.4864,28.75 18.961,-12.466 39.7863,-10.69222 61.5293,-8.82422 23.532,2.021 47.791,4.10383 74.627,-10.32617 -22.705,-17.982 -36.6938,-52.85305 -37.3438,-54.49805 -0.879,-2.224 -0.3531,-4.75822 1.3379,-6.44922 0.481,-0.481 9.0459,-8.89145 20.1739,-10.18945 -6.375,-10.157 -16.6903,-17.68458 -26.7403,-25.01758 -11.325,-8.263 -23.0335,-16.80778 -28.6445,-29.05078 -1.174,-2.562 -0.4073,-5.59502 1.8437,-7.29102 2.25,-1.698 5.3767,-1.59862 7.5157,0.23438 4.219,3.616 10.4009,4.95334 16.5429,5.15234 -7.031,-5.869 -14.9347,-15.398 -22.1367,-30.875 -2.128,-4.569 -4.1377,-9.52551 -5.9707,-14.72851 -11.339,-32.123 -38.9533,-44.10858 -54.4043,-48.39258 -7.835,-2.177 -13.3258,-2.61319 -13.3808,-2.61719 -3.3,-0.251 -5.7782,-3.12773 -5.5332,-6.42773 0.246,-3.300001 3.1111,-5.780071 6.4101,-5.539071 0.182,0.013 3.1913,0.24174 7.9453,1.17774 -1.96,-13.383 2.9087,-27.14845 13.3907,-36.31445 l 64.3515,-56.25977 c -2.77,-3.002 -6.5164,-5.02434 -10.6894,-5.65234 -5.359,-0.807 -10.575,0.71982 -14.67,4.29882 l -74.5117,65.14063 c -1.586,1.382 -3.0205,2.92189 -4.2715,4.58789 -4.443,5.883 -6.5897,13.18526 -6.0527,20.57226 0.24,3.305 -2.2458,6.177971 -5.5508,6.417971 -3.304,0.24 -6.1779,-2.244821 -6.4179,-5.548821 -0.476,-6.556 0.5741,-13.06393 2.9941,-19.04493 l -36.0059,0.002 -36.0039,0.002 c 2.419,5.979 3.4702,12.48792 2.9942,19.04492 -0.24,3.305 -3.113,5.788831 -6.42,5.548831 -3.305,-0.24 -5.7907,-3.114921 -5.5507,-6.419921 0.537,-7.386 -1.609,-14.68759 -6.043,-20.55859 -1.26,-1.677 -2.6945,-3.21684 -4.2715,-4.58984 l -74.5195,-65.14844 c -3.3248,-2.90956 -7.3854,-4.46461 -11.666,-4.51367 z m 300.7949,12.875 -63.2227,55.27149 c -9.265,8.103 -13.0421,20.68214 -10.0781,32.369141 17.837,5.099 48.7461,19.02742 61.7031,55.73242 0.552,1.567 1.126,3.09547 1.709,4.60547 28.994,-37.351 35.5907,-87.223921 17.0977,-130.9199212 z m -318.791,0.4043 -7.0371,16.6523398 c -18.493,43.6980002 -11.8973,93.5728312 17.0957,130.9238312 0.583,-1.51 1.1569,-3.03752 1.7089,-4.60352 12.852,-36.404 43.4225,-50.38406 61.0235,-55.53906 3.061,-11.748001 -0.6963,-24.407401 -10.0293,-32.566401 z m 154.6172,355.216791 c -2.102,0 -4.2107,0.47224 -6.0996,1.36524 -1.887,0.889 -3.5964,2.22337 -4.9454,3.85937 -3.742,4.556 -4.2753,11.0635 -1.3203,16.1875 l 0.4336,0.75391 c 1.702,2.944 4.1556,5.40061 7.0996,7.09961 2.94,1.697 6.2924,2.59375 9.6914,2.59375 6.912,0 13.3507,-3.71722 16.8047,-9.69922 l 0.4238,-0.74023 c 1.2591,-2.179 1.9219,-4.64739 1.9219,-7.15039 0,-3.299 -1.1503,-6.51283 -3.2383,-9.04883 -2.725,-3.32 -6.747,-5.22071 -11.041,-5.22071 z"
           style="fill:#ff0000;fill-opacity:1;stroke:none;stroke-width:3.77952766;stroke-linecap:round;stroke-linejoin:round;stroke-miterlimit:4;stroke-dasharray:none;stroke-dashoffset:0;stroke-opacity:1" />
      </g>
    </g>
  </g>
  <path
     sodipodi:nodetypes="cccccccccccccccccccccccccccccccccccccccccccccccccccccccccccccccscccccsscsccsccccccccccccccccccccccccccccccscccccccccccccccccccccccccccccccccccccccccccccccscccccccccccccccccscc"
     inkscape:connector-curvature="0"
     id="path1751"
     d="m 1217.0639,289.72394 c -6.6105,-3.55944 -11.5494,-13.45327 -13.1885,-17.08764 1.2709,-0.90115 3.4995,-2.07839 5.5386,-1.13687 0.7401,0.34143 1.6124,0.21279 2.2218,-0.32776 0.61,-0.54055 0.8423,-1.39072 0.5918,-2.16631 -2.0835,-6.45927 -7.4196,-10.35263 -12.1268,-13.78788 -1.4698,-1.07221 -2.9061,-2.12047 -4.1921,-3.20329 0.8765,0.0561 1.8,0.0557 2.7685,-0.002 3.1082,-0.18303 5.5763,-0.90559 5.6799,-0.93638 0.9948,-0.29491 1.6603,-1.28672 1.4882,-2.31001 -0.1711,-1.0161 -1.0215,-1.74996 -2.0497,-1.71164 -0.1991,-0.0154 -1.5169,-0.1625 -3.4019,-1.45744 -1.7952,-1.23301 -4.4049,-3.75137 -6.9459,-8.80178 l 0.6908,-0.84983 c 11.4173,-14.04139 14.1286,-33.11744 7.0758,-49.78257 l -2.7206,-6.43669 c -0.207,-0.48889 -0.453,-0.96684 -0.7355,-1.42836 -1.5912,-2.5731 -4.2348,-4.30937 -7.2527,-4.76337 -3.0042,-0.4516 -6.0408,0.43723 -8.332,2.43968 l -25.4889,22.28209 c -0.4899,0.42628 -0.9473,0.88951 -1.3739,1.37703 h -29.6959 c -0.4266,-0.48786 -0.8834,-0.95007 -1.3705,-1.3743 l -25.4908,-22.28517 c -2.2888,-2.00278 -5.3238,-2.8923 -8.3269,-2.44206 -3.0207,0.45331 -5.6673,2.19129 -7.2692,4.78013 -0.276,0.45297 -0.5199,0.92851 -0.7263,1.41468 l -2.7195,6.43428 c -7.0532,16.66616 -4.3419,35.74221 7.0751,49.78326 l 0.6911,0.85017 c -2.5406,5.05041 -5.151,7.56878 -6.9461,8.80178 -1.8855,1.29528 -3.203,1.44239 -3.4024,1.45744 -1.0227,-0.0387 -1.8783,0.69554 -2.0494,1.71164 -0.172,1.02329 0.4927,2.0151 1.4879,2.31002 0.1037,0.0308 2.5718,0.75335 5.6799,0.93639 0.9693,0.0572 1.8927,0.0572 2.7681,0.002 -1.286,1.08316 -2.7222,2.13108 -4.1917,3.20329 -4.7076,3.43525 -10.0432,7.32861 -12.1271,13.78788 -0.2502,0.77559 -0.018,1.62577 0.5918,2.16631 0.61,0.54056 1.4821,0.66919 2.2218,0.32776 2.0455,-0.94461 4.271,0.23264 5.5397,1.13516 -1.6385,3.63334 -6.5777,13.52957 -13.1892,17.0897 -0.6378,0.34349 -1.0476,0.99797 -1.0777,1.72155 -0.03,0.72394 0.3233,1.41024 0.9302,1.80572 11.4601,7.46649 21.7597,6.58176 30.8475,5.80137 9.3858,-0.80569 16.7982,-1.44272 23.3892,7.07749 0.069,0.0896 0.5056,1.88509 0.6124,2.75477 0.7697,6.34124 4.9214,13.72971 20.0859,13.72937 0.5875,0 1.1909,-0.0109 1.8119,-0.0339 0.622,0.0225 1.2238,0.0339 1.8119,0.0339 15.1646,-6.9e-4 19.32,-7.38847 20.0891,-13.72697 0.107,-0.87105 0.5433,-2.66753 0.6128,-2.75717 6.5909,-8.52021 14.0043,-7.88318 23.3888,-7.07749 9.0878,0.78073 19.3877,1.66477 30.8474,-5.80137 0.6069,-0.39548 0.9607,-1.08178 0.9306,-1.80572 -0.03,-0.7229 -0.4393,-1.37738 -1.0773,-1.72087 z m -25.4806,-57.17138 c -0.1995,-0.5166 -0.3955,-1.03971 -0.5844,-1.57581 -4.4328,-12.55761 -15.0075,-17.32303 -21.1099,-19.06751 -1.0141,-3.99839 0.2781,-8.30194 3.4479,-11.07416 l 21.6296,-18.9091 2.4664,5.83558 c 6.3269,14.94938 4.0699,32.01238 -5.8496,44.791 z m -51.122,81.93864 c -1.1628,0 -2.3093,-0.30688 -3.3151,-0.88746 -1.0072,-0.58127 -1.8472,-1.42118 -2.4294,-2.42838 l -0.1482,-0.25831 c -1.0109,-1.75303 -0.8283,-3.97923 0.452,-5.53793 0.4615,-0.55971 1.0459,-1.01611 1.6915,-1.32025 0.6462,-0.30552 1.3677,-0.46734 2.0869,-0.46734 h 3.3287 c 1.4691,0 2.8455,0.65072 3.7778,1.78656 0.7143,0.86762 1.1075,1.96686 1.1075,3.09552 0,0.85634 -0.2265,1.70103 -0.6572,2.44652 l -0.1448,0.25283 c -1.1817,2.04658 -3.3849,3.31824 -5.7497,3.31824 z m -56.9681,-126.73032 2.4078,-5.69702 21.4723,18.77156 c 3.1931,2.79138 4.4784,7.12231 3.4311,11.14156 -6.0217,1.76364 -16.4807,6.54651 -20.8776,19.00113 -0.1888,0.53577 -0.3849,1.05853 -0.5844,1.57513 -9.9191,-12.77861 -12.1761,-29.8423 -5.8492,-44.79236 z m 54.837,113.10872 c -0.9641,0.0602 -1.9196,0.30313 -2.7869,0.71333 -1.0068,0.47418 -1.9179,1.18443 -2.6363,2.05616 -2.0011,2.43625 -2.2864,5.91016 -0.7114,8.64166 l 0.1472,0.2566 c 0,9e-4 0,0.002 0,0.004 0.8221,1.42426 2.0093,2.61142 3.4332,3.43321 1.024,0.59084 2.1509,0.97743 3.3148,1.14986 v 1.38047 c -4.5129,0.0458 -8.1603,-0.60487 -10.8487,-1.94325 -3.3039,-1.64494 -5.1373,-4.31759 -5.605,-8.17331 -0.1742,-1.42152 -0.4027,-2.77975 -0.6795,-4.03704 -3.2936,-14.96649 -13.3608,-18.07296 -20.0227,-20.12877 -2.0383,-0.62917 -3.7989,-1.17246 -4.7541,-1.87278 -3.9297,-2.88169 -2.6959,-8.23488 -2.6439,-8.45282 0.2751,-1.09992 -0.3938,-2.21421 -1.4937,-2.48928 -1.0989,-0.27541 -2.2143,0.39378 -2.4893,1.49337 -0.084,0.33391 -1.974,8.23248 4.1989,12.7591 1.5121,1.10882 3.5786,1.74654 5.9714,2.48484 4.9457,1.5262 10.8185,3.34493 14.5351,9.83671 -6.4867,-4.26456 -13.6114,-3.65798 -21.0505,-3.01923 -8.0505,0.69108 -16.3503,1.40406 -25.5305,-3.53173 7.7679,-6.15205 12.5527,-18.08254 12.7751,-18.64533 0.3008,-0.76088 0.1211,-1.62782 -0.4574,-2.20635 -0.1645,-0.16456 -3.0942,-3.04284 -6.9016,-3.48623 2.1811,-3.47459 5.7104,-6.04974 9.1487,-8.55887 3.8742,-2.82696 7.8801,-5.75005 9.8001,-9.939 0.4017,-0.87651 0.1392,-1.91417 -0.6305,-2.49441 -0.7695,-0.58024 -1.8397,-0.54671 -2.5718,0.0804 -1.4355,1.23028 -3.5478,1.68633 -5.6498,1.75475 2.4027,-2.0086 5.1031,-5.26732 7.5636,-10.55482 0.7274,-1.56213 1.4147,-3.25734 2.0422,-5.03775 3.6511,-10.34167 12.0129,-14.67705 18.3839,-16.49269 2.8061,-0.7992 4.7897,-0.95897 4.8095,-0.96034 1.1287,-0.0849 1.9762,-1.06776 1.8931,-2.19745 -0.083,-1.13071 -1.0699,-1.9802 -2.1975,-1.89672 -0.067,0.004 -1.1827,0.091 -2.9351,0.44817 0.6901,-4.5882 -0.9716,-9.31702 -4.5772,-12.46933 l -21.8945,-19.13969 c 0.9604,-1.08863 2.2796,-1.82078 3.7551,-2.04213 1.8338,-0.27507 3.6149,0.24735 5.0148,1.47249 l 25.495,22.28894 c 0.5395,0.46973 1.0301,0.9966 1.4613,1.57033 1.5169,2.00861 2.2514,4.50678 2.0678,7.0337 -0.082,1.13071 0.768,2.11397 1.8987,2.19608 1.1313,0.0821 2.1139,-0.76772 2.1961,-1.89844 0.1628,-2.24329 -0.1964,-4.47017 -1.024,-6.51572 l 12.3176,-5.1e-4 12.3182,-5.1e-4 c -0.8279,2.04623 -1.1871,4.27276 -1.0243,6.51571 0.082,1.13038 1.0657,1.98055 2.1961,1.89845 1.1308,-0.0821 1.9809,-1.06537 1.8988,-2.19609 -0.1838,-2.52726 0.5505,-5.02509 2.0705,-7.0378 0.428,-0.56997 0.919,-1.09684 1.4616,-1.56966 l 25.4919,-22.28585 c 1.401,-1.22445 3.1854,-1.74687 5.0189,-1.47078 1.4277,0.21485 2.7099,0.90662 3.6576,1.93368 l -22.0166,19.24701 c -3.5861,3.13589 -5.2515,7.84554 -4.581,12.42417 -1.6264,-0.32022 -2.6559,-0.39857 -2.7181,-0.40302 -1.1287,-0.0824 -2.1089,0.76636 -2.1931,1.89536 -0.084,1.129 0.764,2.11295 1.893,2.19882 0.019,0.002 1.8974,0.15088 4.578,0.89567 5.286,1.46566 14.7334,5.566 18.6127,16.55599 0.6272,1.78006 1.3145,3.47562 2.0425,5.03878 2.464,5.29503 5.1681,8.55545 7.5736,10.56337 -2.1013,-0.0681 -4.2163,-0.52584 -5.6597,-1.76296 -0.7318,-0.62711 -1.8016,-0.66132 -2.5714,-0.0804 -0.7701,0.58024 -1.0322,1.6179 -0.6305,2.49441 1.9196,4.18861 5.9255,7.11204 9.8001,9.939 3.4383,2.50878 6.9673,5.08393 9.1483,8.55887 -3.8071,0.44408 -6.737,3.32167 -6.9016,3.48623 -0.5786,0.57853 -0.7585,1.44546 -0.4578,2.20635 0.2224,0.56279 5.0077,12.49328 12.7756,18.64532 -9.1812,4.93683 -17.4808,4.22385 -25.5316,3.53241 -7.4388,-0.63908 -14.5635,-1.24566 -21.0505,3.01924 3.7169,-6.49178 9.5894,-8.31016 14.5354,-9.83636 2.3925,-0.7383 4.4589,-1.37602 5.9714,-2.48484 6.1729,-4.52662 4.2824,-12.42486 4.1989,-12.75911 -0.2751,-1.09993 -1.3917,-1.76809 -2.4893,-1.49337 -1.0999,0.27508 -1.7688,1.38937 -1.4937,2.48929 0.014,0.0551 1.3306,5.53828 -2.6436,8.45248 -0.9555,0.70066 -2.7157,1.24361 -4.7544,1.87277 -6.6619,2.05582 -16.7288,5.16228 -20.0228,20.12911 -0.2763,1.25764 -0.505,2.61553 -0.6791,4.03875 -0.8399,6.91977 -6.2376,10.23322 -16.4574,10.11485 v -1.38149 c 2.8034,-0.41671 5.3135,-2.09173 6.7535,-4.58649 l 0.1447,-0.25249 c 0.6681,-1.15706 1.0215,-2.47525 1.0215,-3.81158 0,-1.76159 -0.6151,-3.4787 -1.73,-4.83317 -1.3538,-1.64971 -3.3111,-2.64289 -5.4261,-2.77084"
     inkscape:export-xdpi="1000"
     inkscape:export-ydpi="1000"
     style="fill:#000000;fill-opacity:1;stroke:none;stroke-width:0.34212235;stroke-opacity:1" />
  <path
     sodipodi:nodetypes="ccccccsccccccc"
     inkscape:connector-curvature="0"
     id="path1753"
     d="m 1125.9557,270.69338 c 0.4355,-0.2778 0.6777,-0.7773 0.6258,-1.29151 -0.2624,-2.59192 -1.6419,-4.93032 -3.7856,-6.41582 -2.1451,-1.48618 -4.823,-1.9566 -7.3482,-1.29048 l -3.6193,0.95452 c 2.9127,5.91571 -0.2189,-0.344 1.5227,3.05941 2.2296,3.46441 3.9201,6.31064 8.0468,6.31064 1.6211,0 3.1972,-0.45879 4.5578,-1.32676 z m -10.2411,-6.23688 0.4321,-0.11428 c 1.7482,-0.46186 3.6039,-0.13582 5.0898,0.89397 1.2384,0.85804 2.1088,2.12697 2.4684,3.56595 -0.7226,0.3168 -1.5064,0.48136 -2.307,0.48136 -2.854,-3.4e-4 -5.2304,-2.08695 -5.6833,-4.827 z"
     inkscape:export-xdpi="1000"
     inkscape:export-ydpi="1000"
     style="stroke-width:0.34212235" />
  <flowRoot
     transform="matrix(0.84978309,0,0,0.84978309,1222.8219,207.42068)"
     style="font-style:normal;font-weight:normal;font-size:40px;line-height:1.25;font-family:sans-serif;letter-spacing:0px;word-spacing:0px;fill:#000000;fill-opacity:1;stroke:none"
     id="flowRoot1761"
     xml:space="preserve"
     inkscape:export-xdpi="1000"
     inkscape:export-ydpi="1000"><flowRegion
       id="flowRegion1757"><rect
         y="137.76787"
         x="-180.28099"
         height="112.25043"
         width="583.70221"
         id="rect1755" /></flowRegion><flowPara
       style="font-style:normal;font-variant:normal;font-weight:normal;font-stretch:normal;font-family:'Fox Sans TRF';-inkscape-font-specification:'Fox Sans TRF'"
       id="flowPara1759">ArcticFox</flowPara></flowRoot>  <path
     d="m 1154.8212,270.69338 c -0.4356,-0.2778 -0.6778,-0.7773 -0.6257,-1.29151 0.2624,-2.59192 1.6418,-4.93032 3.7856,-6.41582 2.145,-1.48618 4.8228,-1.9566 7.3481,-1.29048 l 3.6192,0.95452 c -2.9126,5.91571 0.2191,-0.344 -1.5226,3.05941 -2.2295,3.46441 -3.9202,6.31064 -8.0469,6.31064 -1.6209,0 -3.1971,-0.45879 -4.5577,-1.32676 z m 10.2411,-6.23688 -0.4321,-0.11428 c -1.7483,-0.46186 -3.6039,-0.13582 -5.0898,0.89397 -1.2385,0.85804 -2.1088,2.12697 -2.4683,3.56595 0.7225,0.3168 1.5063,0.48136 2.3068,0.48136 2.854,-3.4e-4 5.2304,-2.08695 5.6834,-4.827 z"
     id="path1763"
     inkscape:connector-curvature="0"
     sodipodi:nodetypes="ccccccsccccccc"
     inkscape:export-xdpi="1000"
     inkscape:export-ydpi="1000"
     style="stroke-width:0.34212235" />
  <g
     id="g1805"
     transform="matrix(0.27467864,0,0,0.27467864,-42.456071,192.45723)"
     inkscape:export-xdpi="5000"
     inkscape:export-ydpi="5000">
    <path
       sodipodi:nodetypes="cccccccccccccccccccccccccccccccccccccccccccccccccccccccccccccccscccccsscsccscccccccccccccccccccccccccccccscccccccccccccccccccccccccccccccccccccccccccccccscccccccccccccccccscccc"
       inkscape:connector-curvature="0"
       id="path1775"
       d="m -116.44308,341.95607 c -19.322,-10.404 -33.758,-39.323 -38.549,-49.946 3.715,-2.634 10.229,-6.075 16.189,-3.323 2.163,0.998 4.713,0.622 6.494,-0.958 1.783,-1.58 2.462,-4.065 1.73,-6.332 -6.09,-18.88 -21.687,-30.26 -35.446,-40.301 -4.296,-3.134 -8.494,-6.198 -12.253,-9.363 2.562,0.164 5.261,0.163 8.092,-0.004 9.085,-0.535 16.299,-2.647 16.602,-2.737 2.908,-0.862 4.853,-3.761 4.35,-6.752 -0.5,-2.97 -2.986,-5.115 -5.991,-5.003 -0.582,-0.045 -4.434,-0.475 -9.944,-4.26 -5.247,-3.604 -12.875,-10.965 -20.302,-25.727 l 2.019,-2.484 c 33.372,-41.042 41.297,-96.800002 20.682,-145.511002 l -7.952,-18.814 c -0.605,-1.429 -1.324,-2.826 -2.15,-4.175 -4.651,-7.5210002 -12.378,-12.5960002 -21.199,-13.9230002 -8.781,-1.32 -17.657,1.278 -24.354,7.131 l -74.502,65.1290002 c -1.432,1.246 -2.769,2.6 -4.016,4.025 h -86.7989 c -1.247,-1.426 -2.582,-2.777 -4.006,-4.017 l -74.508,-65.1380002 c -6.69,-5.854 -15.561,-8.454 -24.339,-7.138 -8.829,1.325 -16.565,6.405 -21.247,13.9720002 -0.807,1.324 -1.52,2.714 -2.123,4.135 l -7.949,18.807 c -20.616,48.714 -12.691,104.472002 20.68,145.513002 l 2.02,2.485 c -7.426,14.762 -15.056,22.123 -20.303,25.727 -5.511,3.786 -9.362,4.216 -9.945,4.26 -2.989,-0.113 -5.49,2.033 -5.99,5.003 -0.503,2.991 1.44,5.89 4.349,6.752 0.303,0.09 7.517,2.202 16.602,2.737 2.833,0.167 5.532,0.167 8.091,0.004 -3.759,3.166 -7.957,6.229 -12.252,9.363 -13.76,10.041 -29.356,21.421 -35.447,40.301 -0.731,2.267 -0.052,4.752 1.73,6.332 1.783,1.58 4.332,1.956 6.494,0.958 5.979,-2.761 12.484,0.68 16.192,3.318 -4.789,10.62 -19.226,39.546 -38.551,49.952 -1.864,1.004 -3.062,2.917 -3.15,5.032 -0.088,2.116 0.945,4.122 2.719,5.278 33.497,21.824 63.602,19.238 90.165,16.957 27.434,-2.355 49.1,-4.217 68.365,20.687 0.203,0.262 1.478,5.51 1.79,8.052 2.25,18.535 14.385,40.131 58.7099,40.13 1.717,0 3.481,-0.032 5.296,-0.099 1.818,0.066 3.577,0.099 5.296,0.099 44.325,-0.002 56.471,-21.596 58.719,-40.123 0.313,-2.546 1.588,-7.797 1.791,-8.059 19.265,-24.904 40.934,-23.042 68.364,-20.687 26.563,2.282 56.669,4.866 90.165,-16.957 1.774,-1.156 2.808,-3.162 2.72,-5.278 -0.087,-2.113 -1.284,-4.026 -3.149,-5.03 z m -74.478,-167.108 c -0.583,-1.51 -1.156,-3.039 -1.708,-4.606 -12.957,-36.705 -43.866,-50.634 -61.703,-55.733 -2.964,-11.687 0.813,-24.266002 10.078,-32.369002 l 63.222,-55.27 7.209,17.057 c 18.493,43.696 11.896,93.570002 -17.098,130.921002 z m -149.426,239.501 c -3.399,0 -6.7499,-1.0845 -9.6899,-2.7815 -2.944,-1.699 -4.649,-4.4665 -6.351,-7.4105 l -0.433,-0.755 c -2.955,-5.124 -3.2335,-10.381 0.5085,-14.937 1.349,-1.636 2.557,-3.095 4.444,-3.984 1.889,-0.893 4.5605,-1.991 6.6624,-1.991 h 9.73 c 4.294,0 8.317,1.902 11.042,5.222 2.088,2.536 3.237,5.749 3.237,9.048 0,2.503 -0.662,4.972 -1.921,7.151 l -0.423,0.739 c -3.454,5.982 -9.894,9.699 -16.806,9.699 z m -166.5139,-370.424002 7.038,-16.652 62.762,54.868 c 9.333,8.159 13.09,20.818002 10.029,32.566002 -17.601,5.155 -48.172,19.135 -61.024,55.539 -0.552,1.566 -1.125,3.094 -1.708,4.604 -28.993,-37.351 -35.59,-87.227002 -17.097,-130.925002 z m 150.1945,331.898502 c -2.943,1.386 -6.1364,4.43428 -8.2364,6.98228 -5.849,7.121 -5.092,18.24727 -0.488,26.23127 l 0.1889,0.66345 c -0.1768,1.77077 0.4298,0.30882 0.8698,1.06882 2.403,4.163 4.945,7.58881 9.107,9.99081 2.993,1.727 5.4031,2.68022 8.805,3.18422 l -0.221,2.13465 c -13.1909,0.134 -21.5538,-1.768 -29.4118,-5.68 -9.657,-4.808 -15.016,-12.62 -16.383,-23.89 -0.509,-4.155 -1.177,-8.125 -1.986,-11.8 -9.627,-43.746 -39.053,-52.826 -58.525,-58.835 -5.958,-1.839 -11.104,-3.427 -13.896,-5.474 -11.486,-8.423 -7.88,-24.07 -7.728,-24.707 0.804,-3.215 -1.151,-6.472 -4.366,-7.276 -3.212,-0.805 -6.472,1.151 -7.276,4.365 -0.244,0.976 -5.77,24.063 12.273,37.294 4.42,3.241 10.46,5.105 17.454,7.263 14.456,4.461 31.622,9.777 42.485,28.752 -18.96,-12.465 -39.785,-10.692 -61.529,-8.825 -23.531,2.02 -47.791,4.104 -74.624,-10.323 22.705,-17.982 36.691,-52.854 37.341,-54.499 0.879,-2.224 0.354,-4.758 -1.337,-6.449 -0.481,-0.481 -9.044,-8.894 -20.173,-10.19 6.375,-10.156 16.691,-17.683 26.741,-25.017 11.324,-8.263 23.033,-16.807 28.645,-29.051 1.174,-2.562 0.407,-5.595 -1.843,-7.291 -2.249,-1.696 -5.377,-1.598 -7.517,0.235 -4.196,3.596 -10.37,4.929 -16.514,5.129 7.023,-5.871 14.916,-15.396 22.108,-30.851 2.126,-4.566 4.135,-9.521 5.969,-14.725 10.672,-30.228 35.113,-42.9 53.735,-48.207 8.202,-2.336 14,-2.803 14.058,-2.807 3.299,-0.248 5.776,-3.121 5.533,-6.423 -0.243,-3.305 -3.127,-5.788 -6.423,-5.544 -0.194,0.014 -3.457,0.266 -8.579,1.31 2.017,-13.411002 -2.84,-27.233002 -13.379,-36.447002 l -63.996,-55.944 c 2.807,-3.182 6.663,-5.322 10.976,-5.969 5.36,-0.804 10.566,0.723 14.658,4.304 l 74.52,65.149 c 1.577,1.373 3.011,2.913 4.271,4.59 4.434,5.871 6.581,13.173002 6.044,20.559002 -0.24,3.305 2.245,6.179 5.55,6.419 3.307,0.24 6.179,-2.244 6.419,-5.549 0.476,-6.557 -0.574,-13.066002 -2.993,-19.045002 l 36.0034,-0.0015 36.0055,-0.0015 c -2.42,5.981 -3.47,12.489002 -2.994,19.045002 0.24,3.304 3.115,5.789 6.419,5.549 3.305,-0.24 5.79,-3.114 5.55,-6.419 -0.537,-7.387 1.609,-14.688002 6.052,-20.571002 1.251,-1.666 2.686,-3.206 4.272,-4.588 l 74.511,-65.14 c 4.095,-3.579 9.311,-5.106 14.67,-4.299 4.173,0.628 7.921,2.65 10.691,5.652 l -64.353,56.259 c -10.482,9.166 -15.35,22.932 -13.39,36.315002 -4.754,-0.936 -7.763,-1.165 -7.945,-1.178 -3.299,-0.241 -6.164,2.24 -6.41,5.54 -0.245,3.3 2.233,6.176 5.533,6.427 0.055,0.004 5.546,0.441 13.381,2.618 15.451,4.284 43.065,16.269 54.404,48.392 1.833,5.203 3.842,10.159 5.97,14.728 7.202,15.477 15.106,25.007 22.137,30.876 -6.142,-0.199 -12.324,-1.537 -16.543,-5.153 -2.139,-1.833 -5.266,-1.933 -7.516,-0.235 -2.251,1.696 -3.017,4.729 -1.843,7.291 5.611,12.243 17.32,20.788 28.645,29.051 10.05,7.333 20.365,14.86 26.74,25.017 -11.128,1.298 -19.692,9.709 -20.173,10.19 -1.691,1.691 -2.217,4.225 -1.338,6.449 0.65,1.645 14.637,36.517 37.342,54.499 -26.836,14.43 -51.095,12.346 -74.627,10.325 -21.743,-1.868 -42.568,-3.641 -61.529,8.825 10.864,-18.975 28.029,-24.29 42.486,-28.751 6.993,-2.158 13.033,-4.022 17.454,-7.263 18.043,-13.231 12.517,-36.317 12.273,-37.294 -0.804,-3.215 -4.068,-5.168 -7.276,-4.365 -3.215,0.804 -5.17,4.061 -4.366,7.276 0.041,0.161 3.889,16.188 -7.727,24.706 -2.793,2.048 -7.938,3.635 -13.897,5.474 -19.472,6.009 -48.897,15.089 -58.525,58.836 -0.808,3.676 -1.476,7.645 -1.985,11.805 -2.455,20.226 -15.7571,29.911 -45.6291,29.565 l -0.044,-1.96087 c 8.194,-1.218 15.2216,-7.39563 19.4306,-14.68763 l 0.423,-0.738 c 1.953,-3.382 3.3334,-8.1555 3.3334,-12.0615 0,-5.149 -2.7186,-11.65544 -5.9776,-15.61444 -3.957,-4.822 -11.2261,-7.88033 -23.6411,-8.25333 -9.0509,0.177 -13.7884,1.85927 -16.3234,3.05827 z"
       inkscape:export-xdpi="1000"
       inkscape:export-ydpi="1000"
       style="fill:none;fill-opacity:1;stroke:#140000;stroke-width:7.55905559;stroke-miterlimit:4;stroke-dasharray:none;stroke-opacity:1;stroke-linejoin:round;stroke-linecap:round" />
    <flowRoot
       transform="matrix(2.4838573,0,0,2.4838573,-99.612776,101.38931)"
       style="font-style:normal;font-weight:normal;font-size:40px;line-height:1.25;font-family:sans-serif;letter-spacing:0px;word-spacing:0px;fill:#000000;fill-opacity:1;stroke:none"
       id="flowRoot1785"
       xml:space="preserve"
       inkscape:export-xdpi="1000"
       inkscape:export-ydpi="1000"><flowRegion
         id="flowRegion1781"><rect
           y="137.76787"
           x="-180.28099"
           height="112.25043"
           width="583.70221"
           id="rect1779" /></flowRegion><flowPara
         style="font-style:normal;font-variant:normal;font-weight:normal;font-stretch:normal;font-family:'Fox Sans TRF';-inkscape-font-specification:'Fox Sans TRF'"
         id="flowPara1783">ArcticFox</flowPara></flowRoot>    <g
       style="fill:#000000;fill-opacity:1"
       transform="translate(-3958.6749,42)"
       id="g1773"
       clip-path="url(#clipPath1744)">
      <path
         sodipodi:nodetypes="cccccccccccccccccscccccccccccccccccccccccccscccccccccccccccccscccccccccccccccccccccccccccccccccccccccccccccccscccccsccscss"
         inkscape:connector-curvature="0"
         id="path1767"
         d="m 3476.8583,-28.005481 c -0.9879,-0.0113 -1.9872,0.0582 -2.9922,0.20899 -4.313,0.647 -8.1696,2.78675 -10.9766,5.96875 l 63.9961,55.94336 c 10.539,9.214 15.3959,23.03626 13.3789,36.44726 5.122,-1.044 8.3861,-1.29655 8.5801,-1.31055 3.296,-0.244 6.1789,2.23992 6.4219,5.544931 0.243,3.302 -2.2342,6.17582 -5.5332,6.42382 -0.058,0.004 -5.8547,0.47064 -14.0567,2.80664 -18.622,5.307 -43.0643,17.97904 -53.7363,48.20704 -1.834,5.204 -3.8428,10.1586 -5.9688,14.7246 -7.192,15.455 -15.0844,24.98057 -22.1074,30.85157 6.144,-0.2 12.3177,-1.53291 16.5137,-5.12891 2.14,-1.833 5.2686,-1.93233 7.5176,-0.23633 2.25,1.696 3.0177,4.72902 1.8437,7.29102 -5.612,12.244 -17.3225,20.78778 -28.6465,29.05078 -10.05,7.334 -20.3652,14.86158 -26.7402,25.01758 11.129,1.296 19.6909,9.70845 20.1719,10.18945 1.691,1.691 2.2169,4.22522 1.3379,6.44922 -0.65,1.645 -14.6368,36.518 -37.3418,54.5 26.833,14.427 51.094,12.34226 74.625,10.32226 21.744,-1.867 42.5693,-3.63882 61.5293,8.82618 -10.863,-18.975 -28.0304,-24.29096 -42.4864,-28.75196 -6.994,-2.158 -13.0331,-4.02267 -17.4531,-7.26367 -18.043,-13.231 -12.5174,-36.31892 -12.2734,-37.29492 0.804,-3.214 4.0653,-5.17023 7.2773,-4.36523 3.215,0.804 5.1693,4.06234 4.3653,7.27734 -0.152,0.637 -3.7575,16.28403 7.7285,24.70703 2.792,2.047 7.9365,3.63366 13.8945,5.47266 19.472,6.009 48.8984,15.08993 58.5254,58.83593 0.809,3.675 1.4773,7.64579 1.9863,11.80079 1.367,11.27 6.7258,19.08067 16.3828,23.88867 7.858,3.912 18.52,5.81369 31.711,5.67968 v -4.03515 c -3.402,-0.504 -6.6965,-1.63238 -9.6895,-3.35938 -4.162,-2.402 -7.6321,-5.87215 -10.0351,-10.03515 v -0.01 l -0.4297,-0.75 c -4.604,-7.984 -3.7709,-18.13876 2.0781,-25.25976 2.1,-2.548 4.764,-4.62377 7.707,-6.00977 2.535,-1.199 5.3266,-1.90994 8.1446,-2.08594 l 12.457,-0.002 c 6.182,0.374 11.9024,3.27761 15.8594,8.09961 3.259,3.959 5.0566,8.97795 5.0566,14.12695 0,3.906 -1.0314,7.75863 -2.9844,11.14063 l -0.4238,0.73828 c -4.209,7.292 -11.5462,12.18825 -19.7402,13.40625 v 4.03711 c 29.872,0.346 45.6485,-9.33845 48.1035,-29.56446 0.509,-4.16 1.1783,-8.12868 1.9863,-11.80468 9.628,-43.747 39.0534,-52.82694 58.5254,-58.83594 5.959,-1.839 11.1035,-3.42661 13.8965,-5.47461 11.616,-8.518 7.7676,-24.54408 7.7266,-24.70508 -0.804,-3.215 1.1502,-6.47334 4.3652,-7.27734 3.208,-0.803 6.4733,1.15023 7.2773,4.36523 0.244,0.977 5.7696,24.06393 -12.2734,37.29492 -4.421,3.241 -10.4601,5.10568 -17.4531,7.26368 -14.457,4.461 -42.4864,28.75 -42.4864,28.75 0,0 39.7863,-10.69222 61.5293,-8.82422 23.532,2.021 47.791,4.10383 74.627,-10.32617 -22.705,-17.982 -36.6938,-52.85305 -37.3438,-54.49805 -0.879,-2.224 -0.3531,-4.75822 1.3379,-6.44922 0.481,-0.481 9.0459,-8.89145 20.1739,-10.18945 -6.375,-10.157 -16.6903,-17.68458 -26.7403,-25.01758 -11.325,-8.263 -23.0335,-16.80778 -28.6445,-29.05078 -1.174,-2.562 -0.4073,-5.59502 1.8437,-7.29102 2.25,-1.698 5.3767,-1.59862 7.5157,0.23438 4.219,3.616 10.4009,4.95334 16.5429,5.15234 -7.031,-5.869 -14.9347,-15.398 -22.1367,-30.875 -2.128,-4.569 -4.1377,-9.52551 -5.9707,-14.72851 -11.339,-32.123 -38.9533,-44.10858 -54.4043,-48.39258 -7.835,-2.177 -13.3258,-2.61319 -13.3808,-2.61719 -3.3,-0.251 -5.7782,-3.12773 -5.5332,-6.42773 0.246,-3.300001 3.1111,-5.780071 6.4101,-5.539071 0.182,0.013 3.1913,0.24174 7.9453,1.17774 -1.96,-13.383 2.9087,-27.14845 13.3907,-36.31445 l 64.3515,-56.25977 c -2.77,-3.002 -6.5164,-5.02434 -10.6894,-5.65234 -5.359,-0.807 -10.575,0.71982 -14.67,4.29882 l -74.5117,65.14063 c -1.586,1.382 -3.0205,2.92189 -4.2715,4.58789 -4.443,5.883 -6.5897,13.18526 -6.0527,20.57226 0.24,3.305 -2.2458,6.177971 -5.5508,6.417971 -3.304,0.24 -6.1779,-2.244821 -6.4179,-5.548821 -0.476,-6.556 0.5741,-13.06393 2.9941,-19.04493 l -36.0059,0.002 -36.0039,0.002 c 2.419,5.979 3.4702,12.48792 2.9942,19.04492 -0.24,3.305 -3.113,5.788831 -6.42,5.548831 -3.305,-0.24 -5.7907,-3.114921 -5.5507,-6.419921 0.537,-7.386 -1.609,-14.68759 -6.043,-20.55859 -1.26,-1.677 -2.6945,-3.21684 -4.2715,-4.58984 l -74.5195,-65.14844 c -3.3248,-2.90956 -7.3854,-4.46461 -11.666,-4.51367 z m 300.7949,12.875 -63.2227,55.27149 c -9.265,8.103 -13.0421,20.68214 -10.0781,32.369141 17.837,5.099 48.7461,19.02742 61.7031,55.73242 0.552,1.567 1.126,3.09547 1.709,4.60547 28.994,-37.351 35.5907,-87.223921 17.0977,-130.9199212 z m -317.7689,3.202235 -12.125,29.410754 c -18.493,43.698 -7.8315,78.016482 21.1615,115.367482 0.583,-1.51 1.1569,-3.03752 1.7089,-4.60352 12.852,-36.404 43.4225,-50.38406 61.0235,-55.53906 3.061,-11.748001 -0.6963,-24.407401 -10.0293,-32.566401 z m 153.5951,352.418856 c -2.102,0 -4.2107,0.47224 -6.0996,1.36524 -1.887,0.889 -4.2151,3.19564 -5.5641,4.83164 -3.742,4.556 -3.6566,10.09123 -0.7016,15.21523 l 0.4336,0.75391 c 1.702,2.944 4.1556,5.40061 7.0996,7.09961 2.94,1.697 6.2924,2.59375 9.6914,2.59375 6.912,0 13.3507,-3.71722 16.8047,-9.69922 l 0.4238,-0.74023 c 1.2591,-2.179 1.9219,-4.64739 1.9219,-7.15039 0,-3.299 -1.1503,-6.51283 -3.2383,-9.04883 -2.725,-3.32 -6.747,-5.22071 -11.041,-5.22071 z"
         style="fill:#00000b;fill-opacity:1;stroke:none;stroke-width:3.77952766;stroke-linecap:round;stroke-linejoin:round;stroke-miterlimit:4;stroke-dasharray:none;stroke-dashoffset:0;stroke-opacity:1" />
    </g>
    <path
       style="fill:#fffffc;fill-opacity:1"
       sodipodi:nodetypes="ccccccsccccccc"
       inkscape:connector-curvature="0"
       id="path1792"
       d="m -382.44298,286.33107 c 1.273,-0.812 1.981,-2.272 1.829,-3.775 -0.767,-7.576 -4.799,-14.411 -11.065,-18.753 -6.27,-4.344 -14.097,-5.719 -21.478,-3.772 l -10.579,2.79 c 8.5134,17.2912 -0.6401,-1.00549 4.4505,8.94247 6.5169,10.12621 11.4585,18.44553 23.5205,18.44553 4.738,0 9.345,-1.341 13.322,-3.878 z m -29.934,-18.23 1.263,-0.334 c 5.11,-1.35 10.534,-0.397 14.877,2.613 3.62,2.508 6.164,6.217 7.215,10.423 -2.112,0.926 -4.403,1.407 -6.743,1.407 -8.342,-10e-4 -15.288,-6.1 -16.612,-14.109 z"
       inkscape:export-xdpi="1000"
       inkscape:export-ydpi="1000" />
    <path
       style="fill:#fffffc;fill-opacity:1"
       d="m -298.07108,286.33107 c -1.273,-0.812 -1.981,-2.272 -1.829,-3.775 0.767,-7.576 4.799,-14.411 11.065,-18.753 6.27,-4.344 14.097,-5.719 21.478,-3.772 l 10.579,2.79 c -8.5134,17.2912 0.6401,-1.00549 -4.4505,8.94247 -6.5169,10.12621 -11.4585,18.44553 -23.5205,18.44553 -4.738,0 -9.345,-1.341 -13.322,-3.878 z m 29.934,-18.23 -1.263,-0.334 c -5.11,-1.35 -10.534,-0.397 -14.877,2.613 -3.62,2.508 -6.164,6.217 -7.215,10.423 2.112,0.926 4.403,1.407 6.743,1.407 8.342,-10e-4 15.288,-6.1 16.612,-14.109 z"
       id="path1794"
       inkscape:connector-curvature="0"
       sodipodi:nodetypes="ccccccsccccccc"
       inkscape:export-xdpi="1000"
       inkscape:export-ydpi="1000" />
  </g>
  <g
     inkscape:export-ydpi="10000"
     inkscape:export-xdpi="10000"
     transform="matrix(0.10611913,0,0,0.10611913,-138.73367,532.52419)"
     id="g950">
    <path
       style="fill:none;fill-opacity:1;stroke:#140000;stroke-width:7.55905581;stroke-linecap:round;stroke-linejoin:round;stroke-miterlimit:4;stroke-dasharray:none;stroke-opacity:1"
       inkscape:export-ydpi="1000"
       inkscape:export-xdpi="1000"
       d="m -116.44308,341.95607 c -19.322,-10.404 -33.758,-39.323 -38.549,-49.946 3.715,-2.634 10.229,-6.075 16.189,-3.323 2.163,0.998 4.713,0.622 6.494,-0.958 1.783,-1.58 2.462,-4.065 1.73,-6.332 -6.09,-18.88 -21.687,-30.26 -35.446,-40.301 -4.296,-3.134 -8.494,-6.198 -12.253,-9.363 2.562,0.164 5.261,0.163 8.092,-0.004 9.085,-0.535 16.299,-2.647 16.602,-2.737 2.908,-0.862 4.853,-3.761 4.35,-6.752 -0.5,-2.97 -2.986,-5.115 -5.991,-5.003 -0.582,-0.045 -4.434,-0.475 -9.944,-4.26 -5.247,-3.604 -12.875,-10.965 -20.302,-25.727 l 2.019,-2.484 c 33.372,-41.042 41.297,-96.800002 20.682,-145.511002 l -7.952,-18.814 c -0.605,-1.429 -1.324,-2.826 -2.15,-4.175 -4.651,-7.5210002 -12.378,-12.5960002 -21.199,-13.9230002 -8.781,-1.32 -17.657,1.278 -24.354,7.131 l -74.502,65.1290002 c -1.432,1.246 -2.769,2.6 -4.016,4.025 h -86.7989 c -1.247,-1.426 -2.582,-2.777 -4.006,-4.017 l -74.508,-65.1380002 c -6.69,-5.854 -15.561,-8.454 -24.339,-7.138 -8.829,1.325 -16.565,6.405 -21.247,13.9720002 -0.807,1.324 -1.52,2.714 -2.123,4.135 l -7.949,18.807 c -20.616,48.714 -12.691,104.472002 20.68,145.513002 l 2.02,2.485 c -7.426,14.762 -15.056,22.123 -20.303,25.727 -5.511,3.786 -9.362,4.216 -9.945,4.26 -2.989,-0.113 -5.49,2.033 -5.99,5.003 -0.503,2.991 1.44,5.89 4.349,6.752 0.303,0.09 7.517,2.202 16.602,2.737 2.833,0.167 5.532,0.167 8.091,0.004 -3.759,3.166 -7.957,6.229 -12.252,9.363 -13.76,10.041 -29.356,21.421 -35.447,40.301 -0.731,2.267 -0.052,4.752 1.73,6.332 1.783,1.58 4.332,1.956 6.494,0.958 5.979,-2.761 12.484,0.68 16.192,3.318 -4.789,10.62 -19.226,39.546 -38.551,49.952 -1.864,1.004 -3.062,2.917 -3.15,5.032 -0.088,2.116 0.945,4.122 2.719,5.278 33.497,21.824 63.602,19.238 90.165,16.957 27.434,-2.355 49.1,-4.217 68.365,20.687 0.203,0.262 1.478,5.51 1.79,8.052 2.25,18.535 14.385,40.131 58.7099,40.13 1.717,0 3.481,-0.032 5.296,-0.099 1.818,0.066 3.577,0.099 5.296,0.099 44.325,-0.002 56.471,-21.596 58.719,-40.123 0.313,-2.546 1.588,-7.797 1.791,-8.059 19.265,-24.904 40.934,-23.042 68.364,-20.687 26.563,2.282 56.669,4.866 90.165,-16.957 1.774,-1.156 2.808,-3.162 2.72,-5.278 -0.087,-2.113 -1.284,-4.026 -3.149,-5.03 z m -74.478,-167.108 c -0.583,-1.51 -1.156,-3.039 -1.708,-4.606 -12.957,-36.705 -37.97639,-48.27816 -55.81339,-53.37716 -2.964,-11.687 0.813,-24.265999 10.078,-32.368999 l 60.2772,-51.441755 4.26419,10.872912 c 18.493,43.696 11.896,93.570002 -17.098,130.921002 z m -149.426,239.501 c -3.399,0 -6.7499,-1.0845 -9.6899,-2.7815 -2.944,-1.699 -4.649,-4.4665 -6.351,-7.4105 l -0.433,-0.755 c -2.955,-5.124 -3.2335,-10.381 0.5085,-14.937 1.349,-1.636 2.557,-3.095 4.444,-3.984 1.889,-0.893 4.5605,-1.991 6.6624,-1.991 h 9.73 c 4.294,0 8.317,1.902 11.042,5.222 2.088,2.536 3.237,5.749 3.237,9.048 0,2.503 -0.662,4.972 -1.921,7.151 l -0.423,0.739 c -3.454,5.982 -9.894,9.699 -16.806,9.699 z m -166.5139,-370.424002 4.38768,-11.645834 60.11168,52.364917 c 10.21644,9.484162 13.09,20.817999 10.029,32.565999 -17.601,5.155 -42.87136,16.63192 -55.72336,53.03592 -0.552,1.566 -1.125,3.094 -1.708,4.604 -28.993,-37.351 -35.59,-87.227002 -17.097,-130.925002 z m 150.1945,331.898502 c -2.943,1.386 -6.1364,4.43428 -8.2364,6.98228 -5.849,7.121 -5.092,18.24727 -0.488,26.23127 l 0.1889,0.66345 c -0.1768,1.77077 0.4298,0.30882 0.8698,1.06882 2.403,4.163 4.945,7.58881 9.107,9.99081 2.993,1.727 5.4031,2.68022 8.805,3.18422 l -0.221,2.13465 c -13.1909,0.134 -21.5538,-1.768 -29.4118,-5.68 -9.657,-4.808 -15.016,-12.62 -16.383,-23.89 -0.509,-4.155 -1.177,-8.125 -1.986,-11.8 -9.627,-43.746 -39.053,-52.826 -58.525,-58.835 -5.958,-1.839 -11.104,-3.427 -13.896,-5.474 -11.486,-8.423 -7.88,-24.07 -7.728,-24.707 0.804,-3.215 -1.151,-6.472 -4.366,-7.276 -3.212,-0.805 -6.472,1.151 -7.276,4.365 -0.244,0.976 -5.77,24.063 12.273,37.294 4.42,3.241 10.46,5.105 17.454,7.263 14.456,4.461 31.622,9.777 42.485,28.752 -18.96,-12.465 -39.785,-10.692 -61.529,-8.825 -23.531,2.02 -47.791,4.104 -74.624,-10.323 22.705,-17.982 36.691,-52.854 37.341,-54.499 0.879,-2.224 0.354,-4.758 -1.337,-6.449 -0.481,-0.481 -9.044,-8.894 -20.173,-10.19 6.375,-10.156 16.691,-17.683 26.741,-25.017 11.324,-8.263 23.033,-16.807 28.645,-29.051 1.174,-2.562 0.407,-5.595 -1.843,-7.291 -2.249,-1.696 -5.377,-1.598 -7.517,0.235 -4.196,3.596 -10.37,4.929 -16.514,5.129 7.023,-5.871 14.916,-15.396 22.108,-30.851 2.126,-4.566 4.135,-9.521 5.969,-14.725 10.672,-30.228 35.113,-42.9 53.735,-48.207 8.202,-2.336 14,-2.803 14.058,-2.807 3.299,-0.248 5.776,-3.121 5.533,-6.423 -0.243,-3.305 -3.127,-5.788 -6.423,-5.544 -0.194,0.014 -3.457,0.266 -8.579,1.31 2.017,-13.411002 -2.84,-27.233002 -13.379,-36.447002 l -63.996,-55.944 c 2.807,-3.182 6.663,-5.322 10.976,-5.969 5.36,-0.804 10.566,0.723 14.658,4.304 l 74.52,65.149 c 1.577,1.373 3.011,2.913 4.271,4.59 4.434,5.871 6.581,13.173002 6.044,20.559002 -0.24,3.305 2.245,6.179 5.55,6.419 3.307,0.24 6.179,-2.244 6.419,-5.549 0.476,-6.557 -0.574,-13.066002 -2.993,-19.045002 l 36.0034,-0.0015 36.0055,-0.0015 c -2.42,5.981 -3.47,12.489002 -2.994,19.045002 0.24,3.304 3.115,5.789 6.419,5.549 3.305,-0.24 5.79,-3.114 5.55,-6.419 -0.537,-7.387 1.609,-14.688002 6.052,-20.571002 1.251,-1.666 2.686,-3.206 4.272,-4.588 l 74.511,-65.14 c 4.095,-3.579 9.311,-5.106 14.67,-4.299 4.173,0.628 7.921,2.65 10.691,5.652 l -64.353,56.259 c -10.482,9.166 -15.35,22.932 -13.39,36.315002 -4.754,-0.936 -7.763,-1.165 -7.945,-1.178 -3.299,-0.241 -6.164,2.24 -6.41,5.54 -0.245,3.3 2.233,6.176 5.533,6.427 0.055,0.004 5.546,0.441 13.381,2.618 15.451,4.284 43.065,16.269 54.404,48.392 1.833,5.203 3.842,10.159 5.97,14.728 7.202,15.477 15.106,25.007 22.137,30.876 -6.142,-0.199 -12.324,-1.537 -16.543,-5.153 -2.139,-1.833 -5.266,-1.933 -7.516,-0.235 -2.251,1.696 -3.017,4.729 -1.843,7.291 5.611,12.243 17.32,20.788 28.645,29.051 10.05,7.333 20.365,14.86 26.74,25.017 -11.128,1.298 -19.692,9.709 -20.173,10.19 -1.691,1.691 -2.217,4.225 -1.338,6.449 0.65,1.645 14.637,36.517 37.342,54.499 -26.836,14.43 -51.095,12.346 -74.627,10.325 -21.743,-1.868 -42.568,-3.641 -61.529,8.825 10.864,-18.975 28.029,-24.29 42.486,-28.751 6.993,-2.158 13.033,-4.022 17.454,-7.263 18.043,-13.231 12.517,-36.317 12.273,-37.294 -0.804,-3.215 -4.068,-5.168 -7.276,-4.365 -3.215,0.804 -5.17,4.061 -4.366,7.276 0.041,0.161 3.889,16.188 -7.727,24.706 -2.793,2.048 -7.938,3.635 -13.897,5.474 -19.472,6.009 -48.897,15.089 -58.525,58.836 -0.808,3.676 -1.476,7.645 -1.985,11.805 -2.455,20.226 -15.7571,29.911 -45.6291,29.565 l -0.044,-1.96087 c 8.194,-1.218 15.2216,-7.39563 19.4306,-14.68763 l 0.423,-0.738 c 1.953,-3.382 3.3334,-8.1555 3.3334,-12.0615 0,-5.149 -2.7186,-11.65544 -5.9776,-15.61444 -3.957,-4.822 -11.2261,-7.88033 -23.6411,-8.25333 -9.0509,0.177 -13.7884,1.85927 -16.3234,3.05827 z"
       id="path931"
       inkscape:connector-curvature="0"
       sodipodi:nodetypes="cccccccccccccccccccccccccccccccccccccccccccccccccccccccccccccccscccccsscsccscccccccccccccccccccccccccccccscccccccccccccccccccccccccccccccccccccccccccccccscccccccccccccccccscccc" />
    <g
       aria-label="ArcticFox"
       transform="matrix(2.4838573,0,0,2.4838573,-99.612776,101.38931)"
       style="font-style:normal;font-weight:normal;font-size:40px;line-height:1.25;font-family:sans-serif;letter-spacing:0px;word-spacing:0px;fill:#000000;fill-opacity:1;stroke:none"
       id="flowRoot940">
      <path
         d="m -179.08984,173.1582 11.01562,-28.00781 h 3.1836 l 11.01562,28.00781 h -4.23828 l -3.125,-8.16406 h -10.48828 l -3.10547,8.16406 z m 8.73047,-11.60156 h 7.7539 l -3.78906,-10.42969 h -0.17578 z"
         style="font-style:normal;font-variant:normal;font-weight:normal;font-stretch:normal;font-family:'Fox Sans TRF';-inkscape-font-specification:'Fox Sans TRF'"
         id="path952"
         inkscape:connector-curvature="0" />
      <path
         d="m -149.91016,153.72461 h 3.65235 l 0.15625,2.48047 q 0.2539,-0.33203 0.68359,-0.74219 0.44922,-0.41016 1.13281,-0.89844 0.70313,-0.50781 1.6211,-0.83984 0.91797,-0.33203 1.83594,-0.33203 0.95703,0 1.89453,0.19531 0.95703,0.19531 1.46484,0.52734 l -1.07422,3.28125 q -1.07422,-0.60546 -2.48047,-0.60546 -0.80078,0 -1.62109,0.33203 -0.80078,0.3125 -1.40625,0.76172 -0.58594,0.44921 -1.07422,0.89843 -0.48828,0.44922 -0.74219,0.78125 l -0.23437,0.3125 v 13.28125 h -3.76953 z"
         style="font-style:normal;font-variant:normal;font-weight:normal;font-stretch:normal;font-family:'Fox Sans TRF';-inkscape-font-specification:'Fox Sans TRF'"
         id="path954"
         inkscape:connector-curvature="0" />
      <path
         d="m -136.45312,163.23633 q 0,-4.25781 2.59765,-7.08985 2.61719,-2.83203 6.75781,-2.83203 2.1875,0 3.4961,0.39063 1.30859,0.37109 2.51953,1.09375 l -1.21094,2.91015 q -1.89453,-1.15234 -4.51172,-1.15234 -2.71484,0 -4.35547,1.89453 -1.64062,1.875 -1.64062,4.86328 0,3.20313 1.60156,5.11719 1.60156,1.89453 4.55078,1.89453 1.23047,0 2.42188,-0.29297 1.21093,-0.3125 1.79687,-0.625 l 0.58594,-0.29297 1.07422,3.125 q -2.5586,1.3086 -6.44531,1.3086 -4.25782,0 -6.75782,-2.8711 -2.48046,-2.87109 -2.48046,-7.4414 z"
         style="font-style:normal;font-variant:normal;font-weight:normal;font-stretch:normal;font-family:'Fox Sans TRF';-inkscape-font-specification:'Fox Sans TRF'"
         id="path956"
         inkscape:connector-curvature="0" />
      <path
         d="m -118.19141,157.12305 v -3.39844 h 3.04688 v -3.28125 l 3.75,-2.8125 v 6.09375 h 4.375 v 3.39844 h -4.375 v 9.58984 q 0,1.54297 1.07422,2.51953 1.09375,0.95703 2.92968,0.95703 l 1.21094,-0.0781 -0.64453,3.35937 q -1.05469,0.0781 -1.52344,0.0781 -3.02734,0 -4.92187,-1.71875 -1.875,-1.73828 -1.875,-4.4336 v -10.27343 z"
         style="font-style:normal;font-variant:normal;font-weight:normal;font-stretch:normal;font-family:'Fox Sans TRF';-inkscape-font-specification:'Fox Sans TRF'"
         id="path958"
         inkscape:connector-curvature="0" />
      <path
         d="m -103.17188,147.43555 3.281255,-3.28125 3.28125,3.28125 -3.28125,3.28125 z m 1.40625,25.72265 v -19.43359 h 3.750005 v 19.43359 z"
         style="font-style:normal;font-variant:normal;font-weight:normal;font-stretch:normal;font-family:'Fox Sans TRF';-inkscape-font-specification:'Fox Sans TRF'"
         id="path960"
         inkscape:connector-curvature="0" />
      <path
         d="m -93.015625,163.23633 q 0,-4.25781 2.597656,-7.08985 2.617188,-2.83203 6.757813,-2.83203 2.1875,0 3.496094,0.39063 1.308593,0.37109 2.519531,1.09375 l -1.210938,2.91015 q -1.894531,-1.15234 -4.511718,-1.15234 -2.714844,0 -4.355469,1.89453 -1.640625,1.875 -1.640625,4.86328 0,3.20313 1.601562,5.11719 1.601563,1.89453 4.550782,1.89453 1.230468,0 2.421875,-0.29297 1.210937,-0.3125 1.796875,-0.625 l 0.585937,-0.29297 1.074219,3.125 q -2.558594,1.3086 -6.445313,1.3086 -4.257812,0 -6.757812,-2.8711 -2.480469,-2.87109 -2.480469,-7.4414 z"
         style="font-style:normal;font-variant:normal;font-weight:normal;font-stretch:normal;font-family:'Fox Sans TRF';-inkscape-font-specification:'Fox Sans TRF'"
         id="path962"
         inkscape:connector-curvature="0" />
      <path
         d="m -72.351562,173.1582 v -28.00781 h 14.765625 v 3.61328 h -10.722657 v 8.10547 h 10.234375 v 3.57422 h -10.234375 v 12.71484 z"
         style="font-style:normal;font-variant:normal;font-weight:normal;font-stretch:normal;font-family:'Fox Sans TRF';-inkscape-font-specification:'Fox Sans TRF'"
         id="path964"
         inkscape:connector-curvature="0" />
      <path
         d="m -53.484375,163.39258 q 0,-4.45313 2.597656,-7.26563 2.617188,-2.8125 6.933594,-2.8125 4.277344,0 6.875,2.79297 2.597656,2.77344 2.597656,7.28516 0,4.64844 -2.578125,7.40234 -2.578125,2.75391 -6.894531,2.75391 -4.355469,0 -6.953125,-2.73438 -2.578125,-2.7539 -2.578125,-7.42187 z m 3.515625,0 q 0,3.125 1.640625,5.03906 1.640625,1.89453 4.375,1.89453 2.714844,0 4.335938,-1.91406 1.621093,-1.91406 1.621093,-5.01953 0,-3.06641 -1.640625,-4.94141 -1.640625,-1.89453 -4.316406,-1.89453 -2.675781,0 -4.355469,1.91406 -1.660156,1.89453 -1.660156,4.92188 z"
         style="font-style:normal;font-variant:normal;font-weight:normal;font-stretch:normal;font-family:'Fox Sans TRF';-inkscape-font-specification:'Fox Sans TRF'"
         id="path966"
         inkscape:connector-curvature="0" />
      <path
         d="m -32.527344,173.1582 6.972657,-9.96093 -6.640625,-9.47266 h 4.394531 l 4.238281,6.50391 h 0.15625 l 4.238281,-6.50391 h 4.375 l -6.640625,9.47266 7.03125,9.96093 h -4.589843 l -4.414063,-6.83593 h -0.15625 l -4.433594,6.83593 z"
         style="font-style:normal;font-variant:normal;font-weight:normal;font-stretch:normal;font-family:'Fox Sans TRF';-inkscape-font-specification:'Fox Sans TRF'"
         id="path968"
         inkscape:connector-curvature="0" />
    </g>
    <g
       clip-path="url(#clipPath1744)"
       id="g944"
       transform="translate(-3958.6749,42)"
       style="fill:#000000;fill-opacity:1">
      <path
         style="fill:#00000b;fill-opacity:1;stroke:none;stroke-width:3.77952766;stroke-linecap:round;stroke-linejoin:round;stroke-miterlimit:4;stroke-dasharray:none;stroke-dashoffset:0;stroke-opacity:1"
         d="m 3476.8583,-28.005481 c -0.9879,-0.0113 -1.9872,0.0582 -2.9922,0.20899 -4.313,0.647 -8.1696,2.78675 -10.9766,5.96875 l 63.9961,55.94336 c 10.539,9.214 15.3959,23.03626 13.3789,36.44726 5.122,-1.044 8.3861,-1.29655 8.5801,-1.31055 3.296,-0.244 6.1789,2.23992 6.4219,5.544931 0.243,3.302 -2.2342,6.17582 -5.5332,6.42382 -0.058,0.004 -5.8547,0.47064 -14.0567,2.80664 -18.622,5.307 -43.0643,17.97904 -53.7363,48.20704 -1.834,5.204 -3.8428,10.1586 -5.9688,14.7246 -7.192,15.455 -15.0844,24.98057 -22.1074,30.85157 6.144,-0.2 12.3177,-1.53291 16.5137,-5.12891 2.14,-1.833 5.2686,-1.93233 7.5176,-0.23633 2.25,1.696 3.0177,4.72902 1.8437,7.29102 -5.612,12.244 -17.3225,20.78778 -28.6465,29.05078 -10.05,7.334 -20.3652,14.86158 -26.7402,25.01758 11.129,1.296 19.6909,9.70845 20.1719,10.18945 1.691,1.691 2.2169,4.22522 1.3379,6.44922 -0.65,1.645 -14.6368,36.518 -37.3418,54.5 26.833,14.427 51.094,12.34226 74.625,10.32226 21.744,-1.867 42.5693,-3.63882 61.5293,8.82618 -10.863,-18.975 -28.0304,-24.29096 -42.4864,-28.75196 -6.994,-2.158 -13.0331,-4.02267 -17.4531,-7.26367 -18.043,-13.231 -12.5174,-36.31892 -12.2734,-37.29492 0.804,-3.214 4.0653,-5.17023 7.2773,-4.36523 3.215,0.804 5.1693,4.06234 4.3653,7.27734 -0.152,0.637 -3.7575,16.28403 7.7285,24.70703 2.792,2.047 7.9365,3.63366 13.8945,5.47266 19.472,6.009 48.8984,15.08993 58.5254,58.83593 0.809,3.675 1.4773,7.64579 1.9863,11.80079 1.367,11.27 6.7258,19.08067 16.3828,23.88867 7.858,3.912 18.52,5.81369 31.711,5.67968 v -4.03515 c -3.402,-0.504 -6.6965,-1.63238 -9.6895,-3.35938 -4.162,-2.402 -7.6321,-5.87215 -10.0351,-10.03515 v -0.01 l -0.4297,-0.75 c -4.604,-7.984 -3.7709,-18.13876 2.0781,-25.25976 2.1,-2.548 4.764,-4.62377 7.707,-6.00977 2.535,-1.199 5.3266,-1.90994 8.1446,-2.08594 l 12.457,-0.002 c 6.182,0.374 11.9024,3.27761 15.8594,8.09961 3.259,3.959 5.0566,8.97795 5.0566,14.12695 0,3.906 -1.0314,7.75863 -2.9844,11.14063 l -0.4238,0.73828 c -4.209,7.292 -11.5462,12.18825 -19.7402,13.40625 v 4.03711 c 29.872,0.346 45.6485,-9.33845 48.1035,-29.56446 0.509,-4.16 1.1783,-8.12868 1.9863,-11.80468 9.628,-43.747 39.0534,-52.82694 58.5254,-58.83594 5.959,-1.839 11.1035,-3.42661 13.8965,-5.47461 11.616,-8.518 7.7676,-24.54408 7.7266,-24.70508 -0.804,-3.215 1.1502,-6.47334 4.3652,-7.27734 3.208,-0.803 6.4733,1.15023 7.2773,4.36523 0.244,0.977 5.7696,24.06393 -12.2734,37.29492 -4.421,3.241 -10.4601,5.10568 -17.4531,7.26368 -14.457,4.461 -42.4864,28.75 -42.4864,28.75 0,0 39.7863,-10.69222 61.5293,-8.82422 23.532,2.021 47.791,4.10383 74.627,-10.32617 -22.705,-17.982 -36.6938,-52.85305 -37.3438,-54.49805 -0.879,-2.224 -0.3531,-4.75822 1.3379,-6.44922 0.481,-0.481 9.0459,-8.89145 20.1739,-10.18945 -6.375,-10.157 -16.6903,-17.68458 -26.7403,-25.01758 -11.325,-8.263 -23.0335,-16.80778 -28.6445,-29.05078 -1.174,-2.562 -0.4073,-5.59502 1.8437,-7.29102 2.25,-1.698 5.3767,-1.59862 7.5157,0.23438 4.219,3.616 10.4009,4.95334 16.5429,5.15234 -7.031,-5.869 -14.9347,-15.398 -22.1367,-30.875 -2.128,-4.569 -4.1377,-9.52551 -5.9707,-14.72851 -11.339,-32.123 -38.9533,-44.10858 -54.4043,-48.39258 -7.835,-2.177 -13.3258,-2.61319 -13.3808,-2.61719 -3.3,-0.251 -5.7782,-3.12773 -5.5332,-6.42773 0.246,-3.300001 3.1111,-5.780071 6.4101,-5.539071 0.182,0.013 3.1913,0.24174 7.9453,1.17774 -1.96,-13.383 2.9087,-27.14845 13.3907,-36.31445 l 64.3515,-56.25977 c -2.77,-3.002 -6.5164,-5.02434 -10.6894,-5.65234 -5.359,-0.807 -10.575,0.71982 -14.67,4.29882 l -74.5117,65.14063 c -1.586,1.382 -3.0205,2.92189 -4.2715,4.58789 -4.443,5.883 -6.5897,13.18526 -6.0527,20.57226 0.24,3.305 -2.2458,6.177971 -5.5508,6.417971 -3.304,0.24 -6.1779,-2.244821 -6.4179,-5.548821 -0.476,-6.556 0.5741,-13.06393 2.9941,-19.04493 l -36.0059,0.002 -36.0039,0.002 c 2.419,5.979 3.4702,12.48792 2.9942,19.04492 -0.24,3.305 -3.113,5.788831 -6.42,5.548831 -3.305,-0.24 -5.7907,-3.114921 -5.5507,-6.419921 0.537,-7.386 -1.609,-14.68759 -6.043,-20.55859 -1.26,-1.677 -2.6945,-3.21684 -4.2715,-4.58984 l -74.5195,-65.14844 c -3.3248,-2.90956 -7.3854,-4.46461 -11.666,-4.51367 z m 304.6231,15.819804 -63.2227,55.27149 c -9.265,8.103 -13.0421,20.68214 -10.0781,32.369141 17.837,5.099 44.9179,16.082616 57.8749,52.787616 0.552,1.567 1.126,3.09547 1.709,4.60547 28.994,-37.351 39.4189,-84.279117 20.9259,-127.9751176 z m -327.7812,4.0856756 -5.9409,25.5825094 c -18.493,43.698 -7.8315,78.016482 21.1615,115.367482 0.583,-1.51 1.1569,-3.03752 1.7089,-4.60352 12.852,-36.404 37.2384,-46.555815 54.8394,-51.710815 3.061,-11.748001 -0.6963,-24.407401 -10.0293,-32.566401 z M 3613.4794,340.49061 c -2.102,0 -4.2107,0.47224 -6.0996,1.36524 -1.887,0.889 -4.2151,3.19564 -5.5641,4.83164 -3.742,4.556 -3.6566,10.09123 -0.7016,15.21523 l 0.4336,0.75391 c 1.702,2.944 4.1556,5.40061 7.0996,7.09961 2.94,1.697 6.2924,2.59375 9.6914,2.59375 6.912,0 13.3507,-3.71722 16.8047,-9.69922 l 0.4238,-0.74023 c 1.2591,-2.179 1.9219,-4.64739 1.9219,-7.15039 0,-3.299 -1.1503,-6.51283 -3.2383,-9.04883 -2.725,-3.32 -6.747,-5.22071 -11.041,-5.22071 z"
         id="path942"
         inkscape:connector-curvature="0"
         sodipodi:nodetypes="cccccccccccccccccscccccccccccccccccccccccccscccccccccccccccccscccccccccccccccccccccccccccccccccccccccccccccccscccccsccscss" />
    </g>
    <path
       inkscape:export-ydpi="1000"
       inkscape:export-xdpi="1000"
       d="m -382.44298,286.33107 c 1.273,-0.812 1.981,-2.272 1.829,-3.775 -0.767,-7.576 -4.799,-14.411 -11.065,-18.753 -6.27,-4.344 -14.097,-5.719 -21.478,-3.772 l -10.579,2.79 c 8.5134,17.2912 -0.6401,-1.00549 4.4505,8.94247 6.5169,10.12621 11.4585,18.44553 23.5205,18.44553 4.738,0 9.345,-1.341 13.322,-3.878 z m -29.934,-18.23 1.263,-0.334 c 5.11,-1.35 10.534,-0.397 14.877,2.613 3.62,2.508 6.164,6.217 7.215,10.423 -2.112,0.926 -4.403,1.407 -6.743,1.407 -8.342,-10e-4 -15.288,-6.1 -16.612,-14.109 z"
       id="path946"
       inkscape:connector-curvature="0"
       sodipodi:nodetypes="ccccccsccccccc"
       style="fill:#fffffc;fill-opacity:1" />
    <path
       inkscape:export-ydpi="1000"
       inkscape:export-xdpi="1000"
       sodipodi:nodetypes="ccccccsccccccc"
       inkscape:connector-curvature="0"
       id="path948"
       d="m -298.07108,286.33107 c -1.273,-0.812 -1.981,-2.272 -1.829,-3.775 0.767,-7.576 4.799,-14.411 11.065,-18.753 6.27,-4.344 14.097,-5.719 21.478,-3.772 l 10.579,2.79 c -8.5134,17.2912 0.6401,-1.00549 -4.4505,8.94247 -6.5169,10.12621 -11.4585,18.44553 -23.5205,18.44553 -4.738,0 -9.345,-1.341 -13.322,-3.878 z m 29.934,-18.23 -1.263,-0.334 c -5.11,-1.35 -10.534,-0.397 -14.877,2.613 -3.62,2.508 -6.164,6.217 -7.215,10.423 2.112,0.926 4.403,1.407 6.743,1.407 8.342,-10e-4 15.288,-6.1 16.612,-14.109 z"
       style="fill:#fffffc;fill-opacity:1" />
  </g>
</svg>
