M48
; DRILL file {KiCad 5.1.4} date Mon 16 Sep 2019 11:06:56 AM -03
; FORMAT={3:3/ absolute / metric / suppress leading zeros}
; #@! TF.CreationDate,2019-09-16T11:06:56-03:00
; #@! TF.GenerationSoftware,Kicad,Pcbnew,5.1.4
FMAT,2
METRIC,TZ
T1C0.300
T2C0.500
T3C0.600
T4C0.762
T5C0.800
T6C1.524
T7C1.525
T8C2.500
T9C0.650
T10C1.702
T11C3.048
T12C3.988
%
G90
G05
T1
X228900Y-69700
X245582Y-58272
X249450Y-38200
X249782Y-60272
X252650Y-34000
X254350Y-38025
X256050Y-34950
X257600Y-36325
X258100Y-35700
X258100Y-37025
X258782Y-58272
X260650Y-32950
X260650Y-44200
X261816Y-14979
X261850Y-33800
X262850Y-11200
X263850Y-11200
X264700Y-17700
X265350Y-11200
X266100Y-11200
X266600Y-17700
X266904Y-11200
X267850Y-11200
X268650Y-11200
X269950Y-11200
X271100Y-11200
X276050Y-69000
X278100Y-16600
T2
X21055Y-54444
X32350Y-22500
X52012Y-50872
X90112Y-50872
X99637Y-69922
X254050Y-48200
X258050Y-39400
T4
X279914Y-65080
X279914Y-67620
X279914Y-70160
X282200Y-65080
X282200Y-67620
X282200Y-70160
T5
X282200Y-34600
X282200Y-37140
X282200Y-39680
X282200Y-42220
X282200Y-44760
X282200Y-47300
X282200Y-19360
X282200Y-21900
X282200Y-24440
X282200Y-26980
X282200Y-29520
X282200Y-32060
T6
X13753Y-61270
X20103Y-63810
X261404Y-61270
X267754Y-63810
X270929Y-42220
X277279Y-44760
X220922Y-80320
X227272Y-82860
X139959Y-80320
X146309Y-82860
X11371Y-80320
X17721Y-82860
X16134Y-4120
X22484Y-6660
X268547Y-80320
X274897Y-82860
X18515Y-42220
X24865Y-44760
X268547Y-23170
X274897Y-25710
X11371Y-23170
X17721Y-25710
X23278Y-61270
X29628Y-63810
X266166Y-42220
X272516Y-44760
X58997Y-81511
X65347Y-84051
T7
X120909Y-4120
X127259Y-6660
X187585Y-23170
X193935Y-25710
X35184Y-23170
X41534Y-25710
X6609Y-4120
X12959Y-6660
X244735Y-80320
X251085Y-82860
X182822Y-42220
X189172Y-44760
X58997Y-61270
X65347Y-63810
X154247Y-61270
X160597Y-63810
X173297Y-61270
X179647Y-63810
X206635Y-23170
X212985Y-25710
X63759Y-4120
X70109Y-6660
X82809Y-4120
X89159Y-6660
X159010Y-4120
X165360Y-6660
X163772Y-42220
X170122Y-44760
X201872Y-42220
X208222Y-44760
X78047Y-61270
X84397Y-63810
X192347Y-61270
X198697Y-63810
X225685Y-23170
X232035Y-25710
X197110Y-4120
X203460Y-6660
X106622Y-42220
X112972Y-44760
X101859Y-4120
X108209Y-6660
X178060Y-4120
X184410Y-6660
X220922Y-42220
X227272Y-44760
X73284Y-23170
X79634Y-25710
X216160Y-4120
X222510Y-6660
X97097Y-61270
X103447Y-63810
X125672Y-42220
X132022Y-44760
X244735Y-23170
X251085Y-25710
X35184Y-80320
X41534Y-82860
X239972Y-42220
X246322Y-44760
X92334Y-23170
X98684Y-25710
X111384Y-23170
X117734Y-25710
X44709Y-4120
X51059Y-6660
X116147Y-61270
X122497Y-63810
X211397Y-61270
X217747Y-63810
X49472Y-42220
X55822Y-44760
X68522Y-42220
X74872Y-44760
X235210Y-4120
X241560Y-6660
X25659Y-4120
X32009Y-6660
X130434Y-23170
X136784Y-25710
X135197Y-61270
X141547Y-63810
X230447Y-61270
X236797Y-63810
X39947Y-61270
X46297Y-63810
X254260Y-4120
X260610Y-6660
X149484Y-23170
X155834Y-25710
X273310Y-4120
X279660Y-6660
X54234Y-23170
X60584Y-25710
X168535Y-23170
X174885Y-25710
X87572Y-42220
X93922Y-44760
X139959Y-4120
X146309Y-6660
X144722Y-42220
X151072Y-44760
T9
X264510Y-5749
X270290Y-5749
T10
X146944Y-28250
X157104Y-28250
X270770Y-9200
X280930Y-9200
X51694Y-28250
X61854Y-28250
X11213Y-66350
X21373Y-66350
X165995Y-28250
X176155Y-28250
X258864Y-66350
X269024Y-66350
X268389Y-47300
X278549Y-47300
X85032Y-47300
X95192Y-47300
X218382Y-85400
X228542Y-85400
X137419Y-9200
X147579Y-9200
X142182Y-47300
X152342Y-47300
X118369Y-9200
X128529Y-9200
X185045Y-28250
X195205Y-28250
X32644Y-28250
X42804Y-28250
X4069Y-9200
X14229Y-9200
X242195Y-85400
X252355Y-85400
X137419Y-85400
X147579Y-85400
X8831Y-85400
X18991Y-85400
X180282Y-47300
X190442Y-47300
X56457Y-66350
X66617Y-66350
X151707Y-66350
X161867Y-66350
X170757Y-66350
X180917Y-66350
X204095Y-28250
X214255Y-28250
X61219Y-9200
X71379Y-9200
X80269Y-9200
X90429Y-9200
X13594Y-9200
X23754Y-9200
X266007Y-85400
X276167Y-85400
X156470Y-9200
X166630Y-9200
X161232Y-47300
X171392Y-47300
X199332Y-47300
X209492Y-47300
X75507Y-66350
X85667Y-66350
X189807Y-66350
X199967Y-66350
X15975Y-47300
X26135Y-47300
X223145Y-28250
X233305Y-28250
X266007Y-28250
X276167Y-28250
X194570Y-9200
X204730Y-9200
X104082Y-47300
X114242Y-47300
X99319Y-9200
X109479Y-9200
X175520Y-9200
X185680Y-9200
X8831Y-28250
X18991Y-28250
X218382Y-47300
X228542Y-47300
X70744Y-28250
X80904Y-28250
X213620Y-9200
X223780Y-9200
X94557Y-66350
X104717Y-66350
X20738Y-66350
X30898Y-66350
X123132Y-47300
X133292Y-47300
X242195Y-28250
X252355Y-28250
X32644Y-85400
X42804Y-85400
X237432Y-47300
X247592Y-47300
X263626Y-47300
X273786Y-47300
X89794Y-28250
X99954Y-28250
X108844Y-28250
X119004Y-28250
X42169Y-9200
X52329Y-9200
X113607Y-66350
X123767Y-66350
X208857Y-66350
X219017Y-66350
X46932Y-47300
X57092Y-47300
X65982Y-47300
X76142Y-47300
X232670Y-9200
X242830Y-9200
X23119Y-9200
X33279Y-9200
X127894Y-28250
X138054Y-28250
X132657Y-66350
X142817Y-66350
X56457Y-86591
X66617Y-86591
X227907Y-66350
X238067Y-66350
X37407Y-66350
X47567Y-66350
X251720Y-9200
X261880Y-9200
T11
X252006Y-59365
X275882Y-59365
X85349Y-92385
X199649Y-92385
X6736Y-2215
X30612Y-2215
X9117Y-40315
X32993Y-40315
X13880Y-59365
X37756Y-59365
T12
X152024Y-28250
X275850Y-9200
X56774Y-28250
X16293Y-66350
X171075Y-28250
X252006Y-74605
X263944Y-66350
X275882Y-74605
X273469Y-47300
X90112Y-47300
X223462Y-85400
X142499Y-9200
X147262Y-47300
X123449Y-9200
X190125Y-28250
X37724Y-28250
X9149Y-9200
X247275Y-85400
X85349Y-77145
X142499Y-85400
X199649Y-77145
X13911Y-85400
X185362Y-47300
X61537Y-66350
X156787Y-66350
X175837Y-66350
X209175Y-28250
X66299Y-9200
X85349Y-9200
X6736Y-17455
X18674Y-9200
X30612Y-17455
X271087Y-85400
X161550Y-9200
X166312Y-47300
X204412Y-47300
X80587Y-66350
X194887Y-66350
X9117Y-55555
X21055Y-47300
X32993Y-55555
X228225Y-28250
X271087Y-28250
X199650Y-9200
X109162Y-47300
X104399Y-9200
X180600Y-9200
X13911Y-28250
X223462Y-47300
X75824Y-28250
X218700Y-9200
X99637Y-66350
X13880Y-74605
X25818Y-66350
X37756Y-74605
X128212Y-47300
X247275Y-28250
X37724Y-85400
X242512Y-47300
X268706Y-47300
X94874Y-28250
X113924Y-28250
X47249Y-9200
X118687Y-66350
X213937Y-66350
X52012Y-47300
X71062Y-47300
X237750Y-9200
X28199Y-9200
X132974Y-28250
X137737Y-66350
X61537Y-86591
X232987Y-66350
X42487Y-66350
X256800Y-9200
T3
G00X263100Y-2400
M15
G01X263100Y-1800
M16
G05
G00X263100Y-6850
M15
G01X263100Y-5750
M16
G05
G00X271700Y-2400
M15
G01X271700Y-1800
M16
G05
G00X271700Y-6850
M15
G01X271700Y-5750
M16
G05
T8
G00X259700Y-85200
M15
G01X262200Y-85200
M16
G05
G00X158037Y-47300
M15
G01X155537Y-47300
M16
G05
G00X74574Y-9200
M15
G01X77074Y-9200
M16
G05
G00X26250Y-28250
M15
G01X23750Y-28250
M16
G05
G00X-1750Y-56825
M15
G01X3750Y-56825
M16
G05
G00X20750Y-88972
M15
G01X23250Y-88972
M16
G05
G00X286740Y-56820
M15
G01X281240Y-56820
M16
G05
G00X207925Y-9200
M15
G01X210425Y-9200
M16
G05
G00X95770Y-85180
M15
G01X93270Y-85180
M16
G05
G00X261622Y-28250
M15
G01X259122Y-28250
M16
G05
T0
M30
