<?xml version="1.0" encoding="UTF-8" standalone="no"?>
<svg
   xmlns:dc="http://purl.org/dc/elements/1.1/"
   xmlns:cc="http://creativecommons.org/ns#"
   xmlns:rdf="http://www.w3.org/1999/02/22-rdf-syntax-ns#"
   xmlns:svg="http://www.w3.org/2000/svg"
   xmlns="http://www.w3.org/2000/svg"
   xmlns:sodipodi="http://sodipodi.sourceforge.net/DTD/sodipodi-0.dtd"
   xmlns:inkscape="http://www.inkscape.org/namespaces/inkscape"
   version="1.1"
   viewBox="0 0 1233.7406 530.45967"
   enable-background="new 0 0 454.11 454.11"
   id="svg48"
   sodipodi:docname="foxLogo.svg"
   inkscape:version="0.92.2 2405546, 2018-03-11"
   width="1233.7406"
   height="530.45966">
  <metadata
     id="metadata54">
    <rdf:RDF>
      <cc:Work
         rdf:about="">
        <dc:format>image/svg+xml</dc:format>
        <dc:type
           rdf:resource="http://purl.org/dc/dcmitype/StillImage" />
        <dc:title></dc:title>
      </cc:Work>
    </rdf:RDF>
  </metadata>
  <defs
     id="defs52" />
  <sodipodi:namedview
     pagecolor="#ffffff"
     bordercolor="#666666"
     borderopacity="1"
     objecttolerance="10"
     gridtolerance="10"
     guidetolerance="10"
     inkscape:pageopacity="0"
     inkscape:pageshadow="2"
     inkscape:window-width="1920"
     inkscape:window-height="1023"
     id="namedview50"
     showgrid="false"
     inkscape:zoom="0.3674819"
     inkscape:cx="815.03689"
     inkscape:cy="451.64068"
     inkscape:window-x="1920"
     inkscape:window-y="220"
     inkscape:window-maximized="1"
     inkscape:current-layer="g46"
     showguides="false"
     fit-margin-top="0"
     fit-margin-left="0"
     fit-margin-right="0"
     fit-margin-bottom="0" />
  <g
     id="g46"
     transform="translate(0.0022043,-9.0091021)">
    <path
       d="m 450.954,348.965 c -19.322,-10.404 -33.758,-39.323 -38.549,-49.946 3.715,-2.634 10.229,-6.075 16.189,-3.323 2.163,0.998 4.713,0.622 6.494,-0.958 1.783,-1.58 2.462,-4.065 1.73,-6.332 -6.09,-18.88 -21.687,-30.26 -35.446,-40.301 -4.296,-3.134 -8.494,-6.198 -12.253,-9.363 2.562,0.164 5.261,0.163 8.092,-0.004 9.085,-0.535 16.299,-2.647 16.602,-2.737 2.908,-0.862 4.853,-3.761 4.35,-6.752 -0.5,-2.97 -2.986,-5.115 -5.991,-5.003 -0.582,-0.045 -4.434,-0.475 -9.944,-4.26 -5.247,-3.604 -12.875,-10.965 -20.302,-25.727 l 2.019,-2.484 c 33.372,-41.042 41.297,-96.8 20.682,-145.511 L 396.675,27.45 c -0.605,-1.429 -1.324,-2.826 -2.15,-4.175 -4.651,-7.521 -12.378,-12.596 -21.199,-13.923 -8.781,-1.32 -17.657,1.278 -24.354,7.131 L 274.47,81.612 c -1.432,1.246 -2.769,2.6 -4.016,4.025 h -86.799 c -1.247,-1.426 -2.582,-2.777 -4.006,-4.017 L 105.141,16.482 C 98.451,10.628 89.58,8.028 80.802,9.344 71.973,10.669 64.237,15.749 59.555,23.316 58.748,24.64 58.035,26.03 57.432,27.451 L 49.483,46.258 C 28.867,94.972 36.792,150.73 70.163,191.771 l 2.02,2.485 c -7.426,14.762 -15.056,22.123 -20.303,25.727 -5.511,3.786 -9.362,4.216 -9.945,4.26 -2.989,-0.113 -5.49,2.033 -5.99,5.003 -0.503,2.991 1.44,5.89 4.349,6.752 0.303,0.09 7.517,2.202 16.602,2.737 2.833,0.167 5.532,0.167 8.091,0.004 -3.759,3.166 -7.957,6.229 -12.252,9.363 -13.76,10.041 -29.356,21.421 -35.447,40.301 -0.731,2.267 -0.052,4.752 1.73,6.332 1.783,1.58 4.332,1.956 6.494,0.958 5.979,-2.761 12.484,0.68 16.192,3.318 -4.789,10.62 -19.226,39.546 -38.551,49.952 -1.864,1.004 -3.062,2.917 -3.15,5.032 -0.088,2.116 0.945,4.122 2.719,5.278 33.497,21.824 63.602,19.238 90.165,16.957 27.434,-2.355 49.1,-4.217 68.365,20.687 0.203,0.262 1.478,5.51 1.79,8.052 2.25,18.535 14.385,40.131 58.71,40.13 1.717,0 3.481,-0.032 5.296,-0.099 1.818,0.066 3.577,0.099 5.296,0.099 44.325,-0.002 56.471,-21.596 58.719,-40.123 0.313,-2.546 1.588,-7.797 1.791,-8.059 19.265,-24.904 40.934,-23.042 68.364,-20.687 26.563,2.282 56.669,4.866 90.165,-16.957 1.774,-1.156 2.808,-3.162 2.72,-5.278 -0.087,-2.113 -1.284,-4.026 -3.149,-5.03 z M 376.476,181.857 c -0.583,-1.51 -1.156,-3.039 -1.708,-4.606 -12.957,-36.705 -43.866,-50.634 -61.703,-55.733 -2.964,-11.687 0.813,-24.266 10.078,-32.369 l 63.222,-55.27 7.209,17.057 c 18.493,43.696 11.896,93.57 -17.098,130.921 z M 227.05,421.358 c -3.399,0 -6.75,-0.897 -9.69,-2.594 -2.944,-1.699 -5.399,-4.154 -7.101,-7.098 l -0.433,-0.755 c -2.955,-5.124 -2.421,-11.631 1.321,-16.187 1.349,-1.636 3.057,-2.97 4.944,-3.859 1.889,-0.893 3.998,-1.366 6.1,-1.366 h 9.73 c 4.294,0 8.317,1.902 11.042,5.222 2.088,2.536 3.237,5.749 3.237,9.048 0,2.503 -0.662,4.972 -1.921,7.151 l -0.423,0.739 c -3.454,5.982 -9.894,9.699 -16.806,9.699 z M 60.536,50.934 67.574,34.282 130.336,89.15 c 9.333,8.159 13.09,20.818 10.029,32.566 -17.601,5.155 -48.172,19.135 -61.024,55.539 -0.552,1.566 -1.125,3.094 -1.708,4.604 C 48.64,144.508 42.043,94.632 60.536,50.934 Z m 160.285,330.609 c -2.818,0.176 -5.611,0.886 -8.146,2.085 -2.943,1.386 -5.606,3.462 -7.706,6.01 -5.849,7.121 -6.683,17.275 -2.079,25.259 l 0.43,0.75 c 0.002,0.003 0.004,0.006 0.005,0.01 2.403,4.163 5.873,7.633 10.035,10.035 2.993,1.727 6.287,2.857 9.689,3.361 v 4.035 c -13.191,0.134 -23.852,-1.768 -31.71,-5.68 -9.657,-4.808 -15.016,-12.62 -16.383,-23.89 -0.509,-4.155 -1.177,-8.125 -1.986,-11.8 -9.627,-43.746 -39.053,-52.826 -58.525,-58.835 -5.958,-1.839 -11.104,-3.427 -13.896,-5.474 -11.486,-8.423 -7.88,-24.07 -7.728,-24.707 0.804,-3.215 -1.151,-6.472 -4.366,-7.276 -3.212,-0.805 -6.472,1.151 -7.276,4.365 -0.244,0.976 -5.77,24.063 12.273,37.294 4.42,3.241 10.46,5.105 17.454,7.263 14.456,4.461 31.622,9.777 42.485,28.752 -18.96,-12.465 -39.785,-10.692 -61.529,-8.825 -23.531,2.02 -47.791,4.104 -74.624,-10.323 22.705,-17.982 36.691,-52.854 37.341,-54.499 0.879,-2.224 0.354,-4.758 -1.337,-6.449 -0.481,-0.481 -9.044,-8.894 -20.173,-10.19 6.375,-10.156 16.691,-17.683 26.741,-25.017 11.324,-8.263 23.033,-16.807 28.645,-29.051 1.174,-2.562 0.407,-5.595 -1.843,-7.291 -2.249,-1.696 -5.377,-1.598 -7.517,0.235 -4.196,3.596 -10.37,4.929 -16.514,5.129 7.023,-5.871 14.916,-15.396 22.108,-30.851 2.126,-4.566 4.135,-9.521 5.969,-14.725 10.672,-30.228 35.113,-42.9 53.735,-48.207 8.202,-2.336 14,-2.803 14.058,-2.807 3.299,-0.248 5.776,-3.121 5.533,-6.423 -0.243,-3.305 -3.127,-5.788 -6.423,-5.544 -0.194,0.014 -3.457,0.266 -8.579,1.31 2.017,-13.411 -2.84,-27.233 -13.379,-36.447 L 71.607,27.181 c 2.807,-3.182 6.663,-5.322 10.976,-5.969 5.36,-0.804 10.566,0.723 14.658,4.304 l 74.52,65.149 c 1.577,1.373 3.011,2.913 4.271,4.59 4.434,5.871 6.581,13.173 6.044,20.559 -0.24,3.305 2.245,6.179 5.55,6.419 3.307,0.24 6.179,-2.244 6.419,-5.549 0.476,-6.557 -0.574,-13.066 -2.993,-19.045 l 36.0035,-0.0015 36.0055,-0.0015 c -2.42,5.981 -3.47,12.489 -2.994,19.045 0.24,3.304 3.115,5.789 6.419,5.549 3.305,-0.24 5.79,-3.114 5.55,-6.419 -0.537,-7.387 1.609,-14.688 6.052,-20.571 1.251,-1.666 2.686,-3.206 4.272,-4.588 l 74.511,-65.14 c 4.095,-3.579 9.311,-5.106 14.67,-4.299 4.173,0.628 7.921,2.65 10.691,5.652 l -64.353,56.259 c -10.482,9.166 -15.35,22.932 -13.39,36.315 -4.754,-0.936 -7.763,-1.165 -7.945,-1.178 -3.299,-0.241 -6.164,2.24 -6.41,5.54 -0.245,3.3 2.233,6.176 5.533,6.427 0.055,0.004 5.546,0.441 13.381,2.618 15.451,4.284 43.065,16.269 54.404,48.392 1.833,5.203 3.842,10.159 5.97,14.728 7.202,15.477 15.106,25.007 22.137,30.876 -6.142,-0.199 -12.324,-1.537 -16.543,-5.153 -2.139,-1.833 -5.266,-1.933 -7.516,-0.235 -2.251,1.696 -3.017,4.729 -1.843,7.291 5.611,12.243 17.32,20.788 28.645,29.051 10.05,7.333 20.365,14.86 26.74,25.017 -11.128,1.298 -19.692,9.709 -20.173,10.19 -1.691,1.691 -2.217,4.225 -1.338,6.449 0.65,1.645 14.637,36.517 37.342,54.499 -26.836,14.43 -51.095,12.346 -74.627,10.325 -21.743,-1.868 -42.568,-3.641 -61.529,8.825 10.864,-18.975 28.029,-24.29 42.486,-28.751 6.993,-2.158 13.033,-4.022 17.454,-7.263 18.043,-13.231 12.517,-36.317 12.273,-37.294 -0.804,-3.215 -4.068,-5.168 -7.276,-4.365 -3.215,0.804 -5.17,4.061 -4.366,7.276 0.041,0.161 3.889,16.188 -7.727,24.706 -2.793,2.048 -7.938,3.635 -13.897,5.474 -19.472,6.009 -48.897,15.089 -58.525,58.836 -0.808,3.676 -1.476,7.645 -1.985,11.805 -2.455,20.226 -18.232,29.911 -48.104,29.565 v -4.038 c 8.194,-1.218 15.531,-6.114 19.74,-13.406 l 0.423,-0.738 c 1.953,-3.382 2.986,-7.235 2.986,-11.141 0,-5.149 -1.798,-10.168 -5.057,-14.127 -3.957,-4.822 -9.678,-7.725 -15.86,-8.099"
       id="path14"
       inkscape:connector-curvature="0"
       sodipodi:nodetypes="cccccccccccccccccccccccccccccccccccccccccccccccccccccccccccccccscccccsscsccsccccccccccccccccccccccccccccccscccccccccccccccccccccccccccccccccccccccccccccccscccccccccccccccccscc" />
    <path
       d="m 211.653,287.54339 c 0.849,-2.04 -0.116,-4.381 -2.156,-5.23 -2.038,-0.849 -4.381,0.117 -5.23,2.156 -2.637,6.335 -6.959,11.83 -12.503,15.892 -4.556,3.343 -8.405,7.443 -11.441,12.186 -3.047,4.753 -5.167,9.967 -6.301,15.498 l -5.77,28.25 c -0.442,2.165 0.954,4.278 3.119,4.72 0.27,0.055 0.539,0.082 0.805,0.082 1.861,0 3.528,-1.306 3.915,-3.2 l 5.77,-28.247 c 0.936,-4.562 2.685,-8.863 5.201,-12.787 2.504,-3.912 5.679,-7.294 9.435,-10.05 6.717,-4.924 11.958,-11.587 15.156,-19.27 z"
       id="path16"
       inkscape:connector-curvature="0" />
    <path
       d="m 280.088,328.04239 c -1.134,-5.529 -3.254,-10.742 -6.299,-15.493 -3.038,-4.745 -6.889,-8.846 -11.445,-12.19 -5.542,-4.061 -9.865,-9.555 -12.501,-15.89 -0.85,-2.039 -3.187,-3.007 -5.23,-2.156 -2.039,0.849 -3.005,3.19 -2.156,5.23 3.198,7.683 8.439,14.346 15.157,19.268 3.758,2.758 6.933,6.139 9.439,10.054 2.514,3.922 4.263,8.224 5.198,12.782 l 5.77,28.25 c 0.387,1.895 2.054,3.2 3.915,3.2 0.265,0 0.534,-0.026 0.805,-0.082 2.164,-0.442 3.561,-2.555 3.118,-4.719 z"
       id="path18"
       inkscape:connector-curvature="0" />
    <path
       d="m 335.1,251.42 c -2.118,-0.642 -4.348,0.554 -4.988,2.668 l -1.807,5.962 c -2.285,7.483 -9.999,11.778 -17.551,9.781 l -10.587,-2.802 c -2.198,-0.578 -4.441,-0.872 -6.668,-0.872 -13.408,0 -24.534,10.073 -25.879,23.429 -0.152,1.509 0.562,2.973 1.843,3.783 3.986,2.517 8.58,3.848 13.286,3.848 12.066,0 22.15,-8.648 24.382,-20.071 l 1.576,0.418 c 11.735,3.102 23.703,-3.566 27.251,-15.187 l 1.81,-5.97 c 0.641,-2.113 -0.554,-4.346 -2.668,-4.987 z m -52.351,37.798 c -2.325,0 -4.61,-0.479 -6.726,-1.4 1.966,-7.945 9.073,-13.66 17.476,-13.66 1.54,0 3.099,0.205 4.629,0.607 l 1.243,0.328 c -1.302,7.999 -8.26,14.125 -16.622,14.125 z"
       id="path22"
       inkscape:connector-curvature="0" />
    <flowRoot
       xml:space="preserve"
       id="flowRoot889"
       style="font-style:normal;font-weight:normal;font-size:40px;line-height:1.25;font-family:sans-serif;letter-spacing:0px;word-spacing:0px;fill:#000000;fill-opacity:1;stroke:none"
       transform="matrix(2.4838573,0,0,2.4838573,467.78422,108.39824)"><flowRegion
         id="flowRegion891"><rect
           id="rect893"
           width="583.70221"
           height="112.25043"
           x="-180.28099"
           y="137.76787" /></flowRegion><flowPara
         id="flowPara895"
         style="font-style:normal;font-variant:normal;font-weight:normal;font-stretch:normal;font-family:'Fox Sans TRF';-inkscape-font-specification:'Fox Sans TRF'">ArcticFox</flowPara></flowRoot>    <path
       sodipodi:nodetypes="cccccccccccccccccccccccccccccccccccccccccccccccccccccccccccccccscccccsscsccsccccccccccccccccccccccccccccccscccccccccccccccccccccccccccccccccccccccccccccccscccccccccccccccccscc"
       inkscape:connector-curvature="0"
       id="path907"
       d="m 1230.5842,348.965 c -19.322,-10.404 -33.758,-39.323 -38.549,-49.946 3.715,-2.634 10.229,-6.075 16.189,-3.323 2.163,0.998 4.713,0.622 6.494,-0.958 1.783,-1.58 2.462,-4.065 1.73,-6.332 -6.09,-18.88 -21.687,-30.26 -35.446,-40.301 -4.296,-3.134 -8.494,-6.198 -12.253,-9.363 2.562,0.164 5.261,0.163 8.092,-0.004 9.085,-0.535 16.299,-2.647 16.602,-2.737 2.908,-0.862 4.853,-3.761 4.35,-6.752 -0.5,-2.97 -2.986,-5.115 -5.991,-5.003 -0.582,-0.045 -4.434,-0.475 -9.944,-4.26 -5.247,-3.604 -12.875,-10.965 -20.302,-25.727 l 2.019,-2.484 c 33.372,-41.042 41.297,-96.8 20.682,-145.511 l -7.952,-18.814 c -0.605,-1.429 -1.324,-2.826 -2.15,-4.175 -4.651,-7.521 -12.378,-12.596 -21.199,-13.923 -8.781,-1.32 -17.657,1.278 -24.354,7.131 l -74.502,65.129 c -1.432,1.246 -2.769,2.6 -4.016,4.025 h -86.79897 c -1.247,-1.426 -2.582,-2.777 -4.006,-4.017 l -74.508,-65.138 c -6.69,-5.854 -15.561,-8.454 -24.339,-7.138 -8.829,1.325 -16.565,6.405 -21.247,13.972 -0.807,1.324 -1.52,2.714 -2.123,4.135 l -7.949,18.807 c -20.616,48.714 -12.691,104.472 20.68,145.513 l 2.02,2.485 c -7.426,14.762 -15.056,22.123 -20.303,25.727 -5.511,3.786 -9.362,4.216 -9.945,4.26 -2.989,-0.113 -5.49,2.033 -5.99,5.003 -0.503,2.991 1.44,5.89 4.349,6.752 0.303,0.09 7.517,2.202 16.602,2.737 2.833,0.167 5.532,0.167 8.091,0.004 -3.759,3.166 -7.957,6.229 -12.252,9.363 -13.76,10.041 -29.356,21.421 -35.447,40.301 -0.731,2.267 -0.052,4.752 1.73,6.332 1.783,1.58 4.332,1.956 6.494,0.958 5.979,-2.761 12.484,0.68 16.192,3.318 -4.789,10.62 -19.226,39.546 -38.551,49.952 -1.864,1.004 -3.062,2.917 -3.15,5.032 -0.088,2.116 0.945,4.122 2.719,5.278 33.497,21.824 63.602,19.238 90.165,16.957 27.434,-2.355 49.1,-4.217 68.365,20.687 0.203,0.262 1.478,5.51 1.79,8.052 2.25,18.535 14.385,40.131 58.70997,40.13 1.717,0 3.481,-0.032 5.296,-0.099 1.818,0.066 3.577,0.099 5.296,0.099 44.325,-0.002 56.471,-21.596 58.719,-40.123 0.313,-2.546 1.588,-7.797 1.791,-8.059 19.265,-24.904 40.934,-23.042 68.364,-20.687 26.563,2.282 56.669,4.866 90.165,-16.957 1.774,-1.156 2.808,-3.162 2.72,-5.278 -0.087,-2.113 -1.284,-4.026 -3.149,-5.03 z m -74.478,-167.108 c -0.583,-1.51 -1.156,-3.039 -1.708,-4.606 -12.957,-36.705 -43.866,-50.634 -61.703,-55.733 -2.964,-11.687 0.813,-24.266 10.078,-32.369 l 63.222,-55.27 7.209,17.057 c 18.493,43.696 11.896,93.57 -17.098,130.921 z m -149.426,239.501 c -3.399,0 -6.74997,-0.897 -9.68997,-2.594 -2.944,-1.699 -5.399,-4.154 -7.101,-7.098 l -0.433,-0.755 c -2.955,-5.124 -2.421,-11.631 1.321,-16.187 1.349,-1.636 3.057,-2.97 4.944,-3.859 1.889,-0.893 3.998,-1.366 6.09997,-1.366 h 9.73 c 4.294,0 8.317,1.902 11.042,5.222 2.088,2.536 3.237,5.749 3.237,9.048 0,2.503 -0.662,4.972 -1.921,7.151 l -0.423,0.739 c -3.454,5.982 -9.894,9.699 -16.806,9.699 z M 840.16623,50.934 l 7.038,-16.652 62.762,54.868 c 9.333,8.159 13.09,20.818 10.029,32.566 -17.601,5.155 -48.172,19.135 -61.024,55.539 -0.552,1.566 -1.125,3.094 -1.708,4.604 -28.993,-37.351 -35.59,-87.227 -17.097,-130.925 z m 160.28497,330.609 c -2.81797,0.176 -5.61097,0.886 -8.14597,2.085 -2.943,1.386 -5.606,3.462 -7.706,6.01 -5.849,7.121 -6.683,17.275 -2.079,25.259 l 0.43,0.75 c 0.002,0.003 0.004,0.006 0.005,0.01 2.403,4.163 5.873,7.633 10.035,10.035 2.993,1.727 6.287,2.857 9.68897,3.361 v 4.035 c -13.19097,0.134 -23.85197,-1.768 -31.70997,-5.68 -9.657,-4.808 -15.016,-12.62 -16.383,-23.89 -0.509,-4.155 -1.177,-8.125 -1.986,-11.8 -9.627,-43.746 -39.053,-52.826 -58.525,-58.835 -5.958,-1.839 -11.104,-3.427 -13.896,-5.474 -11.486,-8.423 -7.88,-24.07 -7.728,-24.707 0.804,-3.215 -1.151,-6.472 -4.366,-7.276 -3.212,-0.805 -6.472,1.151 -7.276,4.365 -0.244,0.976 -5.77,24.063 12.273,37.294 4.42,3.241 10.46,5.105 17.454,7.263 14.456,4.461 31.622,9.777 42.485,28.752 -18.96,-12.465 -39.785,-10.692 -61.529,-8.825 -23.531,2.02 -47.791,4.104 -74.624,-10.323 22.705,-17.982 36.691,-52.854 37.341,-54.499 0.879,-2.224 0.354,-4.758 -1.337,-6.449 -0.481,-0.481 -9.044,-8.894 -20.173,-10.19 6.375,-10.156 16.691,-17.683 26.741,-25.017 11.324,-8.263 23.033,-16.807 28.645,-29.051 1.174,-2.562 0.407,-5.595 -1.843,-7.291 -2.249,-1.696 -5.377,-1.598 -7.517,0.235 -4.196,3.596 -10.37,4.929 -16.514,5.129 7.023,-5.871 14.916,-15.396 22.108,-30.851 2.126,-4.566 4.135,-9.521 5.969,-14.725 10.672,-30.228 35.113,-42.9 53.735,-48.207 8.202,-2.336 14,-2.803 14.058,-2.807 3.299,-0.248 5.776,-3.121 5.533,-6.423 -0.243,-3.305 -3.127,-5.788 -6.423,-5.544 -0.194,0.014 -3.457,0.266 -8.579,1.31 2.017,-13.411 -2.84,-27.233 -13.379,-36.447 l -63.996,-55.944 c 2.807,-3.182 6.663,-5.322 10.976,-5.969 5.36,-0.804 10.566,0.723 14.658,4.304 l 74.52,65.149 c 1.577,1.373 3.011,2.913 4.271,4.59 4.434,5.871 6.581,13.173 6.044,20.559 -0.24,3.305 2.245,6.179 5.55,6.419 3.307,0.24 6.179,-2.244 6.419,-5.549 0.476,-6.557 -0.574,-13.066 -2.993,-19.045 l 36.00347,-0.0015 36.0055,-0.0015 c -2.42,5.981 -3.47,12.489 -2.994,19.045 0.24,3.304 3.115,5.789 6.419,5.549 3.305,-0.24 5.79,-3.114 5.55,-6.419 -0.537,-7.387 1.609,-14.688 6.052,-20.571 1.251,-1.666 2.686,-3.206 4.272,-4.588 l 74.511,-65.14 c 4.095,-3.579 9.311,-5.106 14.67,-4.299 4.173,0.628 7.921,2.65 10.691,5.652 l -64.353,56.259 c -10.482,9.166 -15.35,22.932 -13.39,36.315 -4.754,-0.936 -7.763,-1.165 -7.945,-1.178 -3.299,-0.241 -6.164,2.24 -6.41,5.54 -0.245,3.3 2.233,6.176 5.533,6.427 0.055,0.004 5.546,0.441 13.381,2.618 15.451,4.284 43.065,16.269 54.404,48.392 1.833,5.203 3.842,10.159 5.97,14.728 7.202,15.477 15.106,25.007 22.137,30.876 -6.142,-0.199 -12.324,-1.537 -16.543,-5.153 -2.139,-1.833 -5.266,-1.933 -7.516,-0.235 -2.251,1.696 -3.017,4.729 -1.843,7.291 5.611,12.243 17.32,20.788 28.645,29.051 10.05,7.333 20.365,14.86 26.74,25.017 -11.128,1.298 -19.692,9.709 -20.173,10.19 -1.691,1.691 -2.217,4.225 -1.338,6.449 0.65,1.645 14.637,36.517 37.342,54.499 -26.836,14.43 -51.095,12.346 -74.627,10.325 -21.743,-1.868 -42.568,-3.641 -61.529,8.825 10.864,-18.975 28.029,-24.29 42.486,-28.751 6.993,-2.158 13.033,-4.022 17.454,-7.263 18.043,-13.231 12.517,-36.317 12.273,-37.294 -0.804,-3.215 -4.068,-5.168 -7.276,-4.365 -3.215,0.804 -5.17,4.061 -4.366,7.276 0.041,0.161 3.889,16.188 -7.727,24.706 -2.793,2.048 -7.938,3.635 -13.897,5.474 -19.472,6.009 -48.897,15.089 -58.525,58.836 -0.808,3.676 -1.476,7.645 -1.985,11.805 -2.455,20.226 -18.232,29.911 -48.104,29.565 v -4.038 c 8.194,-1.218 15.531,-6.114 19.74,-13.406 l 0.423,-0.738 c 1.953,-3.382 2.986,-7.235 2.986,-11.141 0,-5.149 -1.798,-10.168 -5.057,-14.127 -3.957,-4.822 -9.678,-7.725 -15.86,-8.099" />
    <path
       sodipodi:nodetypes="ccccccsccccccc"
       inkscape:connector-curvature="0"
       id="path913"
       d="m 964.28123,293.34 c 1.273,-0.812 1.981,-2.272 1.829,-3.775 -0.767,-7.576 -4.799,-14.411 -11.065,-18.753 -6.27,-4.344 -14.097,-5.719 -21.478,-3.772 l -10.579,2.79 c 8.51346,17.2912 -0.6401,-1.00549 4.45051,8.94247 6.51687,10.12621 11.45849,18.44553 23.52049,18.44553 4.738,0 9.345,-1.341 13.322,-3.878 z m -29.934,-18.23 1.263,-0.334 c 5.11,-1.35 10.534,-0.397 14.877,2.613 3.62,2.508 6.164,6.217 7.215,10.423 -2.112,0.926 -4.403,1.407 -6.743,1.407 -8.342,-10e-4 -15.288,-6.1 -16.612,-14.109 z" />
    <flowRoot
       transform="matrix(2.4838573,0,0,2.4838573,1247.4145,108.39824)"
       style="font-style:normal;font-weight:normal;font-size:40px;line-height:1.25;font-family:sans-serif;letter-spacing:0px;word-spacing:0px;fill:#000000;fill-opacity:1;stroke:none"
       id="flowRoot923"
       xml:space="preserve"><flowRegion
         id="flowRegion919"><rect
           y="137.76787"
           x="-180.28099"
           height="112.25043"
           width="583.70221"
           id="rect917" /></flowRegion><flowPara
         style="font-style:normal;font-variant:normal;font-weight:normal;font-stretch:normal;font-family:'Fox Sans TRF';-inkscape-font-specification:'Fox Sans TRF'"
         id="flowPara921">ArcticFox</flowPara></flowRoot>    <path
       d="m 1048.6532,293.34 c -1.273,-0.812 -1.981,-2.272 -1.829,-3.775 0.767,-7.576 4.799,-14.411 11.065,-18.753 6.27,-4.344 14.097,-5.719 21.478,-3.772 l 10.579,2.79 c -8.5134,17.2912 0.6401,-1.00549 -4.4505,8.94247 -6.5169,10.12621 -11.4585,18.44553 -23.5205,18.44553 -4.738,0 -9.345,-1.341 -13.322,-3.878 z m 29.934,-18.23 -1.263,-0.334 c -5.11,-1.35 -10.534,-0.397 -14.877,2.613 -3.62,2.508 -6.164,6.217 -7.215,10.423 2.112,0.926 4.403,1.407 6.743,1.407 8.342,-10e-4 15.288,-6.1 16.612,-14.109 z"
       id="path925"
       inkscape:connector-curvature="0"
       sodipodi:nodetypes="ccccccsccccccc" />
    <path
       inkscape:connector-curvature="0"
       id="path927"
       d="m 109.99544,251.42 c 2.118,-0.642 4.348,0.554 4.988,2.668 l 1.807,5.962 c 2.285,7.483 9.999,11.778 17.551,9.781 l 10.587,-2.802 c 2.198,-0.578 4.441,-0.872 6.668,-0.872 13.408,0 24.534,10.073 25.879,23.429 0.152,1.509 -0.562,2.973 -1.843,3.783 -3.986,2.517 -8.58,3.848 -13.286,3.848 -12.066,0 -22.15,-8.648 -24.382,-20.071 l -1.576,0.418 c -11.735,3.102 -23.703,-3.566 -27.251,-15.187 l -1.81,-5.97 c -0.641,-2.113 0.554,-4.346 2.668,-4.987 z m 52.351,37.798 c 2.325,0 4.61,-0.479 6.726,-1.4 -1.966,-7.945 -9.073,-13.66 -17.476,-13.66 -1.54,0 -3.099,0.205 -4.629,0.607 l -1.243,0.328 c 1.302,7.999 8.26,14.125 16.622,14.125 z" />
  </g>
</svg>
