  0
SECTION
  2
HEADER
  9
$ACADVER
  1
AC1009
  9
$EXTMIN
 10
0.0
 20
0.0
 30
0.0
  9
$EXTMAX
 10
1000.0
 20
1000.0
 30
0.0
  9
$FILLMODE
 70
 0
  9
$SPLFRAME
 70
 1
  0
ENDSEC
  0
SECTION
  2
TABLES
  0
TABLE
  2
LAYER
 70
1
  0
LAYER
  2
0
 70
     0
 62
     7
  6
CONTINUOUS
  0
ENDTAB
  0
ENDSEC
  0
SECTION
  2
ENTITIES
  0
POLYLINE
  8
0
 62
     0
 66
     1
 10
0
 20
0
 30
0.0
 70
     1
 40
0
 41
0
  0
VERTEX
  8
0
 10
18.6131
 20
9.25489
 30
0.0
 40
0
 41
0
  0
VERTEX
  8
0
 10
18.6131
 20
9.16542
 30
0.0
 40
0
 41
0
  0
VERTEX
  8
0
 10
18.595
 20
8.89686
 30
0.0
 40
0
 41
0
  0
VERTEX
  8
0
 10
18.5419
 20
8.54915
 30
0.0
 40
0
 41
0
  0
VERTEX
  8
0
 10
18.4556
 20
8.21354
 30
0.0
 40
0
 41
0
  0
VERTEX
  8
0
 10
18.3378
 20
7.89176
 30
0.0
 40
0
 41
0
  0
VERTEX
  8
0
 10
18.1904
 20
7.58567
 30
0.0
 40
0
 41
0
  0
VERTEX
  8
0
 10
18.015
 20
7.29693
 30
0.0
 40
0
 41
0
  0
VERTEX
  8
0
 10
17.8133
 20
7.02735
 30
0.0
 40
0
 41
0
  0
VERTEX
  8
0
 10
17.5874
 20
6.77865
 30
0.0
 40
0
 41
0
  0
VERTEX
  8
0
 10
17.3386
 20
6.55263
 30
0.0
 40
0
 41
0
  0
VERTEX
  8
0
 10
17.069
 20
6.35101
 30
0.0
 40
0
 41
0
  0
VERTEX
  8
0
 10
16.7803
 20
6.17562
 30
0.0
 40
0
 41
0
  0
VERTEX
  8
0
 10
16.4742
 20
6.02815
 30
0.0
 40
0
 41
0
  0
VERTEX
  8
0
 10
16.1525
 20
5.91038
 30
0.0
 40
0
 41
0
  0
VERTEX
  8
0
 10
15.8168
 20
5.82411
 30
0.0
 40
0
 41
0
  0
VERTEX
  8
0
 10
15.4692
 20
5.77106
 30
0.0
 40
0
 41
0
  0
VERTEX
  8
0
 10
15.2006
 20
5.75293
 30
0.0
 40
0
 41
0
  0
VERTEX
  8
0
 10
15.1111
 20
5.75293
 30
0.0
 40
0
 41
0
  0
VERTEX
  8
0
 10
15.0215
 20
5.75293
 30
0.0
 40
0
 41
0
  0
VERTEX
  8
0
 10
14.7531
 20
5.77106
 30
0.0
 40
0
 41
0
  0
VERTEX
  8
0
 10
14.4053
 20
5.82411
 30
0.0
 40
0
 41
0
  0
VERTEX
  8
0
 10
14.0697
 20
5.91038
 30
0.0
 40
0
 41
0
  0
VERTEX
  8
0
 10
13.748
 20
6.02815
 30
0.0
 40
0
 41
0
  0
VERTEX
  8
0
 10
13.4419
 20
6.17562
 30
0.0
 40
0
 41
0
  0
VERTEX
  8
0
 10
13.1532
 20
6.35101
 30
0.0
 40
0
 41
0
  0
VERTEX
  8
0
 10
12.8836
 20
6.55263
 30
0.0
 40
0
 41
0
  0
VERTEX
  8
0
 10
12.6349
 20
6.77865
 30
0.0
 40
0
 41
0
  0
VERTEX
  8
0
 10
12.4089
 20
7.02735
 30
0.0
 40
0
 41
0
  0
VERTEX
  8
0
 10
12.2073
 20
7.29693
 30
0.0
 40
0
 41
0
  0
VERTEX
  8
0
 10
12.0318
 20
7.58567
 30
0.0
 40
0
 41
0
  0
VERTEX
  8
0
 10
11.8844
 20
7.89176
 30
0.0
 40
0
 41
0
  0
VERTEX
  8
0
 10
11.7666
 20
8.21354
 30
0.0
 40
0
 41
0
  0
VERTEX
  8
0
 10
11.6803
 20
8.54915
 30
0.0
 40
0
 41
0
  0
VERTEX
  8
0
 10
11.6273
 20
8.89686
 30
0.0
 40
0
 41
0
  0
VERTEX
  8
0
 10
11.6092
 20
9.16542
 30
0.0
 40
0
 41
0
  0
VERTEX
  8
0
 10
11.6092
 20
9.25489
 30
0.0
 40
0
 41
0
  0
VERTEX
  8
0
 10
11.6092
 20
9.3444
 30
0.0
 40
0
 41
0
  0
VERTEX
  8
0
 10
11.6273
 20
9.61296
 30
0.0
 40
0
 41
0
  0
VERTEX
  8
0
 10
11.6803
 20
9.96067
 30
0.0
 40
0
 41
0
  0
VERTEX
  8
0
 10
11.7666
 20
10.2963
 30
0.0
 40
0
 41
0
  0
VERTEX
  8
0
 10
11.8844
 20
10.618
 30
0.0
 40
0
 41
0
  0
VERTEX
  8
0
 10
12.0318
 20
10.9241
 30
0.0
 40
0
 41
0
  0
VERTEX
  8
0
 10
12.2073
 20
11.2128
 30
0.0
 40
0
 41
0
  0
VERTEX
  8
0
 10
12.4089
 20
11.4824
 30
0.0
 40
0
 41
0
  0
VERTEX
  8
0
 10
12.6349
 20
11.7311
 30
0.0
 40
0
 41
0
  0
VERTEX
  8
0
 10
12.8836
 20
11.9571
 30
0.0
 40
0
 41
0
  0
VERTEX
  8
0
 10
13.1532
 20
12.1587
 30
0.0
 40
0
 41
0
  0
VERTEX
  8
0
 10
13.4419
 20
12.3342
 30
0.0
 40
0
 41
0
  0
VERTEX
  8
0
 10
13.748
 20
12.4816
 30
0.0
 40
0
 41
0
  0
VERTEX
  8
0
 10
14.0697
 20
12.5994
 30
0.0
 40
0
 41
0
  0
VERTEX
  8
0
 10
14.4053
 20
12.6857
 30
0.0
 40
0
 41
0
  0
VERTEX
  8
0
 10
14.7531
 20
12.7387
 30
0.0
 40
0
 41
0
  0
VERTEX
  8
0
 10
15.0215
 20
12.7568
 30
0.0
 40
0
 41
0
  0
VERTEX
  8
0
 10
15.1111
 20
12.7568
 30
0.0
 40
0
 41
0
  0
VERTEX
  8
0
 10
15.2006
 20
12.7568
 30
0.0
 40
0
 41
0
  0
VERTEX
  8
0
 10
15.4692
 20
12.7387
 30
0.0
 40
0
 41
0
  0
VERTEX
  8
0
 10
15.8168
 20
12.6857
 30
0.0
 40
0
 41
0
  0
VERTEX
  8
0
 10
16.1525
 20
12.5994
 30
0.0
 40
0
 41
0
  0
VERTEX
  8
0
 10
16.4742
 20
12.4816
 30
0.0
 40
0
 41
0
  0
VERTEX
  8
0
 10
16.7803
 20
12.3342
 30
0.0
 40
0
 41
0
  0
VERTEX
  8
0
 10
17.069
 20
12.1587
 30
0.0
 40
0
 41
0
  0
VERTEX
  8
0
 10
17.3386
 20
11.9571
 30
0.0
 40
0
 41
0
  0
VERTEX
  8
0
 10
17.5874
 20
11.7311
 30
0.0
 40
0
 41
0
  0
VERTEX
  8
0
 10
17.8133
 20
11.4824
 30
0.0
 40
0
 41
0
  0
VERTEX
  8
0
 10
18.015
 20
11.2128
 30
0.0
 40
0
 41
0
  0
VERTEX
  8
0
 10
18.1904
 20
10.9241
 30
0.0
 40
0
 41
0
  0
VERTEX
  8
0
 10
18.3378
 20
10.618
 30
0.0
 40
0
 41
0
  0
VERTEX
  8
0
 10
18.4556
 20
10.2963
 30
0.0
 40
0
 41
0
  0
VERTEX
  8
0
 10
18.5419
 20
9.96067
 30
0.0
 40
0
 41
0
  0
VERTEX
  8
0
 10
18.595
 20
9.61296
 30
0.0
 40
0
 41
0
  0
VERTEX
  8
0
 10
18.6131
 20
9.3444
 30
0.0
 40
0
 41
0
  0
VERTEX
  8
0
 10
18.6131
 20
9.25489
 30
0.0
 40
0
 41
0
  0
SEQEND
 8
0
  0
POLYLINE
  8
0
 62
     0
 66
     1
 10
0
 20
0
 30
0.0
 70
     1
 40
0
 41
0
  0
VERTEX
  8
0
 10
25.6849
 20
94.7171
 30
0.0
 40
0
 41
0
  0
VERTEX
  8
0
 10
27.7354
 20
94.7171
 30
0.0
 40
0
 41
0
  0
VERTEX
  8
0
 10
27.7354
 20
90.715
 30
0.0
 40
0
 41
0
  0
VERTEX
  8
0
 10
25.6849
 20
90.715
 30
0.0
 40
0
 41
0
  0
VERTEX
  8
0
 10
25.6849
 20
94.7171
 30
0.0
 40
0
 41
0
  0
SEQEND
 8
0
  0
POLYLINE
  8
0
 62
     0
 66
     1
 10
0
 20
0
 30
0.0
 70
     1
 40
0
 41
0
  0
VERTEX
  8
0
 10
15.8312
 20
94.7171
 30
0.0
 40
0
 41
0
  0
VERTEX
  8
0
 10
17.8817
 20
94.7171
 30
0.0
 40
0
 41
0
  0
VERTEX
  8
0
 10
17.8817
 20
90.715
 30
0.0
 40
0
 41
0
  0
VERTEX
  8
0
 10
15.8312
 20
90.715
 30
0.0
 40
0
 41
0
  0
VERTEX
  8
0
 10
15.8312
 20
94.7171
 30
0.0
 40
0
 41
0
  0
SEQEND
 8
0
  0
POLYLINE
  8
0
 62
     0
 66
     1
 10
0
 20
0
 30
0.0
 70
     1
 40
0
 41
0
  0
VERTEX
  8
0
 10
15.8312
 20
90.2146
 30
0.0
 40
0
 41
0
  0
VERTEX
  8
0
 10
17.8817
 20
90.2146
 30
0.0
 40
0
 41
0
  0
VERTEX
  8
0
 10
17.8817
 20
86.7132
 30
0.0
 40
0
 41
0
  0
VERTEX
  8
0
 10
15.8312
 20
86.7132
 30
0.0
 40
0
 41
0
  0
VERTEX
  8
0
 10
15.8312
 20
90.2146
 30
0.0
 40
0
 41
0
  0
SEQEND
 8
0
  0
POLYLINE
  8
0
 62
     0
 66
     1
 10
0
 20
0
 30
0.0
 70
     1
 40
0
 41
0
  0
VERTEX
  8
0
 10
25.6849
 20
90.2146
 30
0.0
 40
0
 41
0
  0
VERTEX
  8
0
 10
27.7354
 20
90.2146
 30
0.0
 40
0
 41
0
  0
VERTEX
  8
0
 10
27.7354
 20
86.7132
 30
0.0
 40
0
 41
0
  0
VERTEX
  8
0
 10
25.6849
 20
86.7132
 30
0.0
 40
0
 41
0
  0
VERTEX
  8
0
 10
25.6849
 20
90.2146
 30
0.0
 40
0
 41
0
  0
SEQEND
 8
0
  0
POLYLINE
  8
0
 62
     0
 66
     1
 10
0
 20
0
 30
0.0
 40
36.0418
 41
36.0418
  0
VERTEX
  8
0
 10
21.7846
 20
87.4628
 30
0.0
 40
0.500581
 41
0.500581
  0
VERTEX
  8
0
 10
21.7846
 20
89.4624
 30
0.0
 40
0.500581
 41
0.500581
  0
SEQEND
 8
0
  0
POLYLINE
  8
0
 62
     0
 66
     1
 10
0
 20
0
 30
0.0
 40
36.0418
 41
36.0418
  0
VERTEX
  8
0
 10
20.9842
 20
87.4628
 30
0.0
 40
0.500581
 41
0.500581
  0
VERTEX
  8
0
 10
20.9842
 20
89.4624
 30
0.0
 40
0.500581
 41
0.500581
  0
SEQEND
 8
0
  0
POLYLINE
  8
0
 62
     0
 66
     1
 10
0
 20
0
 30
0.0
 40
36.0418
 41
36.0418
  0
VERTEX
  8
0
 10
20.1837
 20
87.4628
 30
0.0
 40
0.500581
 41
0.500581
  0
VERTEX
  8
0
 10
20.1837
 20
89.4624
 30
0.0
 40
0.500581
 41
0.500581
  0
SEQEND
 8
0
  0
POLYLINE
  8
0
 62
     0
 66
     1
 10
0
 20
0
 30
0.0
 40
36.0418
 41
36.0418
  0
VERTEX
  8
0
 10
22.585
 20
87.4628
 30
0.0
 40
0.500581
 41
0.500581
  0
VERTEX
  8
0
 10
22.585
 20
89.4624
 30
0.0
 40
0.500581
 41
0.500581
  0
SEQEND
 8
0
  0
POLYLINE
  8
0
 62
     0
 66
     1
 10
0
 20
0
 30
0.0
 40
36.0418
 41
36.0418
  0
VERTEX
  8
0
 10
23.3854
 20
87.4628
 30
0.0
 40
0.500581
 41
0.500581
  0
VERTEX
  8
0
 10
23.3854
 20
89.4624
 30
0.0
 40
0.500581
 41
0.500581
  0
SEQEND
 8
0
  0
POLYLINE
  8
0
 62
     0
 66
     1
 10
0
 20
0
 30
0.0
 40
360.22
 41
360.22
  0
VERTEX
  8
0
 10
284.721
 20
38.1639
 30
0.0
 40
5.00306
 41
5.00306
  0
VERTEX
  8
0
 10
289.722
 20
38.1639
 30
0.0
 40
5.00306
 41
5.00306
  0
SEQEND
 8
0
  0
POLYLINE
  8
0
 62
     0
 66
     1
 10
0
 20
0
 30
0.0
 40
360.22
 41
360.22
  0
VERTEX
  8
0
 10
2.53717
 20
38.1639
 30
0.0
 40
5.00306
 41
5.00306
  0
VERTEX
  8
0
 10
7.53771
 20
38.1639
 30
0.0
 40
5.00306
 41
5.00306
  0
SEQEND
 8
0
  0
POLYLINE
  8
0
 62
     0
 66
     1
 10
0
 20
0
 30
0.0
 70
     1
 40
0
 41
0
  0
VERTEX
  8
0
 10
267.225
 20
66.7736
 30
0.0
 40
0
 41
0
  0
VERTEX
  8
0
 10
267.225
 20
66.684
 30
0.0
 40
0
 41
0
  0
VERTEX
  8
0
 10
267.206
 20
66.4156
 30
0.0
 40
0
 41
0
  0
VERTEX
  8
0
 10
267.153
 20
66.0679
 30
0.0
 40
0
 41
0
  0
VERTEX
  8
0
 10
267.067
 20
65.7324
 30
0.0
 40
0
 41
0
  0
VERTEX
  8
0
 10
266.949
 20
65.4107
 30
0.0
 40
0
 41
0
  0
VERTEX
  8
0
 10
266.801
 20
65.1046
 30
0.0
 40
0
 41
0
  0
VERTEX
  8
0
 10
266.626
 20
64.816
 30
0.0
 40
0
 41
0
  0
VERTEX
  8
0
 10
266.425
 20
64.5464
 30
0.0
 40
0
 41
0
  0
VERTEX
  8
0
 10
266.199
 20
64.2978
 30
0.0
 40
0
 41
0
  0
VERTEX
  8
0
 10
265.95
 20
64.0718
 30
0.0
 40
0
 41
0
  0
VERTEX
  8
0
 10
265.681
 20
63.8701
 30
0.0
 40
0
 41
0
  0
VERTEX
  8
0
 10
265.392
 20
63.6949
 30
0.0
 40
0
 41
0
  0
VERTEX
  8
0
 10
265.086
 20
63.5474
 30
0.0
 40
0
 41
0
  0
VERTEX
  8
0
 10
264.764
 20
63.4296
 30
0.0
 40
0
 41
0
  0
VERTEX
  8
0
 10
264.429
 20
63.3433
 30
0.0
 40
0
 41
0
  0
VERTEX
  8
0
 10
264.081
 20
63.2903
 30
0.0
 40
0
 41
0
  0
VERTEX
  8
0
 10
263.813
 20
63.2722
 30
0.0
 40
0
 41
0
  0
VERTEX
  8
0
 10
263.724
 20
63.2722
 30
0.0
 40
0
 41
0
  0
VERTEX
  8
0
 10
263.633
 20
63.2722
 30
0.0
 40
0
 41
0
  0
VERTEX
  8
0
 10
263.365
 20
63.2903
 30
0.0
 40
0
 41
0
  0
VERTEX
  8
0
 10
263.017
 20
63.3433
 30
0.0
 40
0
 41
0
  0
VERTEX
  8
0
 10
262.682
 20
63.4296
 30
0.0
 40
0
 41
0
  0
VERTEX
  8
0
 10
262.36
 20
63.5474
 30
0.0
 40
0
 41
0
  0
VERTEX
  8
0
 10
262.054
 20
63.6949
 30
0.0
 40
0
 41
0
  0
VERTEX
  8
0
 10
261.765
 20
63.8701
 30
0.0
 40
0
 41
0
  0
VERTEX
  8
0
 10
261.496
 20
64.0718
 30
0.0
 40
0
 41
0
  0
VERTEX
  8
0
 10
261.247
 20
64.2978
 30
0.0
 40
0
 41
0
  0
VERTEX
  8
0
 10
261.021
 20
64.5464
 30
0.0
 40
0
 41
0
  0
VERTEX
  8
0
 10
260.819
 20
64.816
 30
0.0
 40
0
 41
0
  0
VERTEX
  8
0
 10
260.644
 20
65.1046
 30
0.0
 40
0
 41
0
  0
VERTEX
  8
0
 10
260.497
 20
65.4107
 30
0.0
 40
0
 41
0
  0
VERTEX
  8
0
 10
260.379
 20
65.7324
 30
0.0
 40
0
 41
0
  0
VERTEX
  8
0
 10
260.293
 20
66.0679
 30
0.0
 40
0
 41
0
  0
VERTEX
  8
0
 10
260.24
 20
66.4156
 30
0.0
 40
0
 41
0
  0
VERTEX
  8
0
 10
260.222
 20
66.684
 30
0.0
 40
0
 41
0
  0
VERTEX
  8
0
 10
260.222
 20
66.7736
 30
0.0
 40
0
 41
0
  0
VERTEX
  8
0
 10
260.222
 20
66.8631
 30
0.0
 40
0
 41
0
  0
VERTEX
  8
0
 10
260.24
 20
67.1315
 30
0.0
 40
0
 41
0
  0
VERTEX
  8
0
 10
260.293
 20
67.4792
 30
0.0
 40
0
 41
0
  0
VERTEX
  8
0
 10
260.379
 20
67.8147
 30
0.0
 40
0
 41
0
  0
VERTEX
  8
0
 10
260.497
 20
68.1364
 30
0.0
 40
0
 41
0
  0
VERTEX
  8
0
 10
260.644
 20
68.4425
 30
0.0
 40
0
 41
0
  0
VERTEX
  8
0
 10
260.819
 20
68.7312
 30
0.0
 40
0
 41
0
  0
VERTEX
  8
0
 10
261.021
 20
69.0008
 30
0.0
 40
0
 41
0
  0
VERTEX
  8
0
 10
261.247
 20
69.2494
 30
0.0
 40
0
 41
0
  0
VERTEX
  8
0
 10
261.496
 20
69.4754
 30
0.0
 40
0
 41
0
  0
VERTEX
  8
0
 10
261.765
 20
69.6769
 30
0.0
 40
0
 41
0
  0
VERTEX
  8
0
 10
262.054
 20
69.8524
 30
0.0
 40
0
 41
0
  0
VERTEX
  8
0
 10
262.36
 20
69.9999
 30
0.0
 40
0
 41
0
  0
VERTEX
  8
0
 10
262.682
 20
70.1175
 30
0.0
 40
0
 41
0
  0
VERTEX
  8
0
 10
263.017
 20
70.2039
 30
0.0
 40
0
 41
0
  0
VERTEX
  8
0
 10
263.365
 20
70.2569
 30
0.0
 40
0
 41
0
  0
VERTEX
  8
0
 10
263.633
 20
70.275
 30
0.0
 40
0
 41
0
  0
VERTEX
  8
0
 10
263.724
 20
70.275
 30
0.0
 40
0
 41
0
  0
VERTEX
  8
0
 10
263.813
 20
70.275
 30
0.0
 40
0
 41
0
  0
VERTEX
  8
0
 10
264.081
 20
70.2569
 30
0.0
 40
0
 41
0
  0
VERTEX
  8
0
 10
264.429
 20
70.2039
 30
0.0
 40
0
 41
0
  0
VERTEX
  8
0
 10
264.764
 20
70.1175
 30
0.0
 40
0
 41
0
  0
VERTEX
  8
0
 10
265.086
 20
69.9999
 30
0.0
 40
0
 41
0
  0
VERTEX
  8
0
 10
265.392
 20
69.8524
 30
0.0
 40
0
 41
0
  0
VERTEX
  8
0
 10
265.681
 20
69.6769
 30
0.0
 40
0
 41
0
  0
VERTEX
  8
0
 10
265.95
 20
69.4754
 30
0.0
 40
0
 41
0
  0
VERTEX
  8
0
 10
266.199
 20
69.2494
 30
0.0
 40
0
 41
0
  0
VERTEX
  8
0
 10
266.425
 20
69.0008
 30
0.0
 40
0
 41
0
  0
VERTEX
  8
0
 10
266.626
 20
68.7312
 30
0.0
 40
0
 41
0
  0
VERTEX
  8
0
 10
266.801
 20
68.4425
 30
0.0
 40
0
 41
0
  0
VERTEX
  8
0
 10
266.949
 20
68.1364
 30
0.0
 40
0
 41
0
  0
VERTEX
  8
0
 10
267.067
 20
67.8147
 30
0.0
 40
0
 41
0
  0
VERTEX
  8
0
 10
267.153
 20
67.4792
 30
0.0
 40
0
 41
0
  0
VERTEX
  8
0
 10
267.206
 20
67.1315
 30
0.0
 40
0
 41
0
  0
VERTEX
  8
0
 10
267.225
 20
66.8631
 30
0.0
 40
0
 41
0
  0
VERTEX
  8
0
 10
267.225
 20
66.7736
 30
0.0
 40
0
 41
0
  0
SEQEND
 8
0
  0
POLYLINE
  8
0
 62
     0
 66
     1
 10
0
 20
0
 30
0.0
 70
     1
 40
0
 41
0
  0
VERTEX
  8
0
 10
197.647
 20
9.45307
 30
0.0
 40
0
 41
0
  0
VERTEX
  8
0
 10
197.647
 20
9.36361
 30
0.0
 40
0
 41
0
  0
VERTEX
  8
0
 10
197.629
 20
9.09511
 30
0.0
 40
0
 41
0
  0
VERTEX
  8
0
 10
197.576
 20
8.74744
 30
0.0
 40
0
 41
0
  0
VERTEX
  8
0
 10
197.49
 20
8.41189
 30
0.0
 40
0
 41
0
  0
VERTEX
  8
0
 10
197.372
 20
8.09022
 30
0.0
 40
0
 41
0
  0
VERTEX
  8
0
 10
197.225
 20
7.78412
 30
0.0
 40
0
 41
0
  0
VERTEX
  8
0
 10
197.05
 20
7.49544
 30
0.0
 40
0
 41
0
  0
VERTEX
  8
0
 10
196.849
 20
7.22586
 30
0.0
 40
0
 41
0
  0
VERTEX
  8
0
 10
196.622
 20
6.97721
 30
0.0
 40
0
 41
0
  0
VERTEX
  8
0
 10
196.374
 20
6.75125
 30
0.0
 40
0
 41
0
  0
VERTEX
  8
0
 10
196.104
 20
6.54969
 30
0.0
 40
0
 41
0
  0
VERTEX
  8
0
 10
195.815
 20
6.37429
 30
0.0
 40
0
 41
0
  0
VERTEX
  8
0
 10
195.51
 20
6.22683
 30
0.0
 40
0
 41
0
  0
VERTEX
  8
0
 10
195.188
 20
6.1091
 30
0.0
 40
0
 41
0
  0
VERTEX
  8
0
 10
194.851
 20
6.02285
 30
0.0
 40
0
 41
0
  0
VERTEX
  8
0
 10
194.504
 20
5.96978
 30
0.0
 40
0
 41
0
  0
VERTEX
  8
0
 10
194.236
 20
5.95167
 30
0.0
 40
0
 41
0
  0
VERTEX
  8
0
 10
194.146
 20
5.95167
 30
0.0
 40
0
 41
0
  0
VERTEX
  8
0
 10
194.057
 20
5.95167
 30
0.0
 40
0
 41
0
  0
VERTEX
  8
0
 10
193.789
 20
5.96978
 30
0.0
 40
0
 41
0
  0
VERTEX
  8
0
 10
193.44
 20
6.02285
 30
0.0
 40
0
 41
0
  0
VERTEX
  8
0
 10
193.106
 20
6.1091
 30
0.0
 40
0
 41
0
  0
VERTEX
  8
0
 10
192.783
 20
6.22683
 30
0.0
 40
0
 41
0
  0
VERTEX
  8
0
 10
192.478
 20
6.37429
 30
0.0
 40
0
 41
0
  0
VERTEX
  8
0
 10
192.189
 20
6.54969
 30
0.0
 40
0
 41
0
  0
VERTEX
  8
0
 10
191.919
 20
6.75125
 30
0.0
 40
0
 41
0
  0
VERTEX
  8
0
 10
191.671
 20
6.97721
 30
0.0
 40
0
 41
0
  0
VERTEX
  8
0
 10
191.444
 20
7.22586
 30
0.0
 40
0
 41
0
  0
VERTEX
  8
0
 10
191.243
 20
7.49544
 30
0.0
 40
0
 41
0
  0
VERTEX
  8
0
 10
191.068
 20
7.78412
 30
0.0
 40
0
 41
0
  0
VERTEX
  8
0
 10
190.919
 20
8.09022
 30
0.0
 40
0
 41
0
  0
VERTEX
  8
0
 10
190.803
 20
8.41189
 30
0.0
 40
0
 41
0
  0
VERTEX
  8
0
 10
190.717
 20
8.74744
 30
0.0
 40
0
 41
0
  0
VERTEX
  8
0
 10
190.663
 20
9.09511
 30
0.0
 40
0
 41
0
  0
VERTEX
  8
0
 10
190.644
 20
9.36361
 30
0.0
 40
0
 41
0
  0
VERTEX
  8
0
 10
190.644
 20
9.45307
 30
0.0
 40
0
 41
0
  0
VERTEX
  8
0
 10
190.644
 20
9.54258
 30
0.0
 40
0
 41
0
  0
VERTEX
  8
0
 10
190.663
 20
9.81108
 30
0.0
 40
0
 41
0
  0
VERTEX
  8
0
 10
190.717
 20
10.1587
 30
0.0
 40
0
 41
0
  0
VERTEX
  8
0
 10
190.803
 20
10.4943
 30
0.0
 40
0
 41
0
  0
VERTEX
  8
0
 10
190.919
 20
10.816
 30
0.0
 40
0
 41
0
  0
VERTEX
  8
0
 10
191.068
 20
11.1221
 30
0.0
 40
0
 41
0
  0
VERTEX
  8
0
 10
191.243
 20
11.4107
 30
0.0
 40
0
 41
0
  0
VERTEX
  8
0
 10
191.444
 20
11.6803
 30
0.0
 40
0
 41
0
  0
VERTEX
  8
0
 10
191.671
 20
11.9289
 30
0.0
 40
0
 41
0
  0
VERTEX
  8
0
 10
191.919
 20
12.1549
 30
0.0
 40
0
 41
0
  0
VERTEX
  8
0
 10
192.189
 20
12.3565
 30
0.0
 40
0
 41
0
  0
VERTEX
  8
0
 10
192.478
 20
12.5318
 30
0.0
 40
0
 41
0
  0
VERTEX
  8
0
 10
192.783
 20
12.6793
 30
0.0
 40
0
 41
0
  0
VERTEX
  8
0
 10
193.106
 20
12.797
 30
0.0
 40
0
 41
0
  0
VERTEX
  8
0
 10
193.44
 20
12.8833
 30
0.0
 40
0
 41
0
  0
VERTEX
  8
0
 10
193.789
 20
12.9364
 30
0.0
 40
0
 41
0
  0
VERTEX
  8
0
 10
194.057
 20
12.9544
 30
0.0
 40
0
 41
0
  0
VERTEX
  8
0
 10
194.146
 20
12.9544
 30
0.0
 40
0
 41
0
  0
VERTEX
  8
0
 10
194.236
 20
12.9544
 30
0.0
 40
0
 41
0
  0
VERTEX
  8
0
 10
194.504
 20
12.9364
 30
0.0
 40
0
 41
0
  0
VERTEX
  8
0
 10
194.851
 20
12.8833
 30
0.0
 40
0
 41
0
  0
VERTEX
  8
0
 10
195.188
 20
12.797
 30
0.0
 40
0
 41
0
  0
VERTEX
  8
0
 10
195.51
 20
12.6793
 30
0.0
 40
0
 41
0
  0
VERTEX
  8
0
 10
195.815
 20
12.5318
 30
0.0
 40
0
 41
0
  0
VERTEX
  8
0
 10
196.104
 20
12.3565
 30
0.0
 40
0
 41
0
  0
VERTEX
  8
0
 10
196.374
 20
12.1549
 30
0.0
 40
0
 41
0
  0
VERTEX
  8
0
 10
196.622
 20
11.9289
 30
0.0
 40
0
 41
0
  0
VERTEX
  8
0
 10
196.849
 20
11.6803
 30
0.0
 40
0
 41
0
  0
VERTEX
  8
0
 10
197.05
 20
11.4107
 30
0.0
 40
0
 41
0
  0
VERTEX
  8
0
 10
197.225
 20
11.1221
 30
0.0
 40
0
 41
0
  0
VERTEX
  8
0
 10
197.372
 20
10.816
 30
0.0
 40
0
 41
0
  0
VERTEX
  8
0
 10
197.49
 20
10.4943
 30
0.0
 40
0
 41
0
  0
VERTEX
  8
0
 10
197.576
 20
10.1587
 30
0.0
 40
0
 41
0
  0
VERTEX
  8
0
 10
197.629
 20
9.81108
 30
0.0
 40
0
 41
0
  0
VERTEX
  8
0
 10
197.647
 20
9.54258
 30
0.0
 40
0
 41
0
  0
VERTEX
  8
0
 10
197.647
 20
9.45307
 30
0.0
 40
0
 41
0
  0
SEQEND
 8
0
  0
POLYLINE
  8
0
 62
     0
 66
     1
 10
0
 20
0
 30
0.0
 70
     1
 40
0
 41
0
  0
VERTEX
  8
0
 10
135.326
 20
47.6676
 30
0.0
 40
0
 41
0
  0
VERTEX
  8
0
 10
135.326
 20
47.5782
 30
0.0
 40
0
 41
0
  0
VERTEX
  8
0
 10
135.308
 20
47.3097
 30
0.0
 40
0
 41
0
  0
VERTEX
  8
0
 10
135.255
 20
46.9621
 30
0.0
 40
0
 41
0
  0
VERTEX
  8
0
 10
135.168
 20
46.6265
 30
0.0
 40
0
 41
0
  0
VERTEX
  8
0
 10
135.051
 20
46.3049
 30
0.0
 40
0
 41
0
  0
VERTEX
  8
0
 10
134.903
 20
45.9987
 30
0.0
 40
0
 41
0
  0
VERTEX
  8
0
 10
134.728
 20
45.71
 30
0.0
 40
0
 41
0
  0
VERTEX
  8
0
 10
134.526
 20
45.4404
 30
0.0
 40
0
 41
0
  0
VERTEX
  8
0
 10
134.3
 20
45.1918
 30
0.0
 40
0
 41
0
  0
VERTEX
  8
0
 10
134.052
 20
44.9658
 30
0.0
 40
0
 41
0
  0
VERTEX
  8
0
 10
133.782
 20
44.7643
 30
0.0
 40
0
 41
0
  0
VERTEX
  8
0
 10
133.493
 20
44.5889
 30
0.0
 40
0
 41
0
  0
VERTEX
  8
0
 10
133.187
 20
44.4415
 30
0.0
 40
0
 41
0
  0
VERTEX
  8
0
 10
132.866
 20
44.3238
 30
0.0
 40
0
 41
0
  0
VERTEX
  8
0
 10
132.53
 20
44.2375
 30
0.0
 40
0
 41
0
  0
VERTEX
  8
0
 10
132.182
 20
44.1844
 30
0.0
 40
0
 41
0
  0
VERTEX
  8
0
 10
131.914
 20
44.1662
 30
0.0
 40
0
 41
0
  0
VERTEX
  8
0
 10
131.825
 20
44.1662
 30
0.0
 40
0
 41
0
  0
VERTEX
  8
0
 10
131.735
 20
44.1662
 30
0.0
 40
0
 41
0
  0
VERTEX
  8
0
 10
131.467
 20
44.1844
 30
0.0
 40
0
 41
0
  0
VERTEX
  8
0
 10
131.119
 20
44.2375
 30
0.0
 40
0
 41
0
  0
VERTEX
  8
0
 10
130.783
 20
44.3238
 30
0.0
 40
0
 41
0
  0
VERTEX
  8
0
 10
130.462
 20
44.4415
 30
0.0
 40
0
 41
0
  0
VERTEX
  8
0
 10
130.156
 20
44.5889
 30
0.0
 40
0
 41
0
  0
VERTEX
  8
0
 10
129.867
 20
44.7643
 30
0.0
 40
0
 41
0
  0
VERTEX
  8
0
 10
129.597
 20
44.9658
 30
0.0
 40
0
 41
0
  0
VERTEX
  8
0
 10
129.349
 20
45.1918
 30
0.0
 40
0
 41
0
  0
VERTEX
  8
0
 10
129.123
 20
45.4404
 30
0.0
 40
0
 41
0
  0
VERTEX
  8
0
 10
128.921
 20
45.71
 30
0.0
 40
0
 41
0
  0
VERTEX
  8
0
 10
128.746
 20
45.9987
 30
0.0
 40
0
 41
0
  0
VERTEX
  8
0
 10
128.598
 20
46.3049
 30
0.0
 40
0
 41
0
  0
VERTEX
  8
0
 10
128.481
 20
46.6265
 30
0.0
 40
0
 41
0
  0
VERTEX
  8
0
 10
128.394
 20
46.9621
 30
0.0
 40
0
 41
0
  0
VERTEX
  8
0
 10
128.341
 20
47.3097
 30
0.0
 40
0
 41
0
  0
VERTEX
  8
0
 10
128.323
 20
47.5782
 30
0.0
 40
0
 41
0
  0
VERTEX
  8
0
 10
128.323
 20
47.6676
 30
0.0
 40
0
 41
0
  0
VERTEX
  8
0
 10
128.323
 20
47.7572
 30
0.0
 40
0
 41
0
  0
VERTEX
  8
0
 10
128.341
 20
48.0257
 30
0.0
 40
0
 41
0
  0
VERTEX
  8
0
 10
128.394
 20
48.3733
 30
0.0
 40
0
 41
0
  0
VERTEX
  8
0
 10
128.481
 20
48.7089
 30
0.0
 40
0
 41
0
  0
VERTEX
  8
0
 10
128.598
 20
49.0306
 30
0.0
 40
0
 41
0
  0
VERTEX
  8
0
 10
128.746
 20
49.3367
 30
0.0
 40
0
 41
0
  0
VERTEX
  8
0
 10
128.921
 20
49.6253
 30
0.0
 40
0
 41
0
  0
VERTEX
  8
0
 10
129.123
 20
49.8949
 30
0.0
 40
0
 41
0
  0
VERTEX
  8
0
 10
129.349
 20
50.1436
 30
0.0
 40
0
 41
0
  0
VERTEX
  8
0
 10
129.597
 20
50.3696
 30
0.0
 40
0
 41
0
  0
VERTEX
  8
0
 10
129.867
 20
50.5711
 30
0.0
 40
0
 41
0
  0
VERTEX
  8
0
 10
130.156
 20
50.7465
 30
0.0
 40
0
 41
0
  0
VERTEX
  8
0
 10
130.462
 20
50.8939
 30
0.0
 40
0
 41
0
  0
VERTEX
  8
0
 10
130.783
 20
51.0117
 30
0.0
 40
0
 41
0
  0
VERTEX
  8
0
 10
131.119
 20
51.0979
 30
0.0
 40
0
 41
0
  0
VERTEX
  8
0
 10
131.467
 20
51.151
 30
0.0
 40
0
 41
0
  0
VERTEX
  8
0
 10
131.735
 20
51.169
 30
0.0
 40
0
 41
0
  0
VERTEX
  8
0
 10
131.825
 20
51.169
 30
0.0
 40
0
 41
0
  0
VERTEX
  8
0
 10
131.914
 20
51.169
 30
0.0
 40
0
 41
0
  0
VERTEX
  8
0
 10
132.182
 20
51.151
 30
0.0
 40
0
 41
0
  0
VERTEX
  8
0
 10
132.53
 20
51.0979
 30
0.0
 40
0
 41
0
  0
VERTEX
  8
0
 10
132.866
 20
51.0117
 30
0.0
 40
0
 41
0
  0
VERTEX
  8
0
 10
133.187
 20
50.8939
 30
0.0
 40
0
 41
0
  0
VERTEX
  8
0
 10
133.493
 20
50.7465
 30
0.0
 40
0
 41
0
  0
VERTEX
  8
0
 10
133.782
 20
50.5711
 30
0.0
 40
0
 41
0
  0
VERTEX
  8
0
 10
134.052
 20
50.3696
 30
0.0
 40
0
 41
0
  0
VERTEX
  8
0
 10
134.3
 20
50.1436
 30
0.0
 40
0
 41
0
  0
VERTEX
  8
0
 10
134.526
 20
49.8949
 30
0.0
 40
0
 41
0
  0
VERTEX
  8
0
 10
134.728
 20
49.6253
 30
0.0
 40
0
 41
0
  0
VERTEX
  8
0
 10
134.903
 20
49.3367
 30
0.0
 40
0
 41
0
  0
VERTEX
  8
0
 10
135.051
 20
49.0306
 30
0.0
 40
0
 41
0
  0
VERTEX
  8
0
 10
135.168
 20
48.7089
 30
0.0
 40
0
 41
0
  0
VERTEX
  8
0
 10
135.255
 20
48.3733
 30
0.0
 40
0
 41
0
  0
VERTEX
  8
0
 10
135.308
 20
48.0257
 30
0.0
 40
0
 41
0
  0
VERTEX
  8
0
 10
135.326
 20
47.7572
 30
0.0
 40
0
 41
0
  0
VERTEX
  8
0
 10
135.326
 20
47.6676
 30
0.0
 40
0
 41
0
  0
SEQEND
 8
0
  0
POLYLINE
  8
0
 62
     0
 66
     1
 10
0
 20
0
 30
0.0
 70
     1
 40
0
 41
0
  0
VERTEX
  8
0
 10
32.2888
 20
66.7736
 30
0.0
 40
0
 41
0
  0
VERTEX
  8
0
 10
32.2888
 20
66.684
 30
0.0
 40
0
 41
0
  0
VERTEX
  8
0
 10
32.2707
 20
66.4156
 30
0.0
 40
0
 41
0
  0
VERTEX
  8
0
 10
32.2176
 20
66.0678
 30
0.0
 40
0
 41
0
  0
VERTEX
  8
0
 10
32.1314
 20
65.7322
 30
0.0
 40
0
 41
0
  0
VERTEX
  8
0
 10
32.0136
 20
65.4104
 30
0.0
 40
0
 41
0
  0
VERTEX
  8
0
 10
31.8661
 20
65.1044
 30
0.0
 40
0
 41
0
  0
VERTEX
  8
0
 10
31.6907
 20
64.8157
 30
0.0
 40
0
 41
0
  0
VERTEX
  8
0
 10
31.489
 20
64.5461
 30
0.0
 40
0
 41
0
  0
VERTEX
  8
0
 10
31.2631
 20
64.2974
 30
0.0
 40
0
 41
0
  0
VERTEX
  8
0
 10
31.0144
 20
64.0714
 30
0.0
 40
0
 41
0
  0
VERTEX
  8
0
 10
30.7449
 20
63.8697
 30
0.0
 40
0
 41
0
  0
VERTEX
  8
0
 10
30.4561
 20
63.6943
 30
0.0
 40
0
 41
0
  0
VERTEX
  8
0
 10
30.15
 20
63.5469
 30
0.0
 40
0
 41
0
  0
VERTEX
  8
0
 10
29.8282
 20
63.429
 30
0.0
 40
0
 41
0
  0
VERTEX
  8
0
 10
29.4925
 20
63.3428
 30
0.0
 40
0
 41
0
  0
VERTEX
  8
0
 10
29.1449
 20
63.2897
 30
0.0
 40
0
 41
0
  0
VERTEX
  8
0
 10
28.8763
 20
63.2717
 30
0.0
 40
0
 41
0
  0
VERTEX
  8
0
 10
28.7868
 20
63.2717
 30
0.0
 40
0
 41
0
  0
VERTEX
  8
0
 10
28.6974
 20
63.2717
 30
0.0
 40
0
 41
0
  0
VERTEX
  8
0
 10
28.4288
 20
63.2897
 30
0.0
 40
0
 41
0
  0
VERTEX
  8
0
 10
28.0811
 20
63.3428
 30
0.0
 40
0
 41
0
  0
VERTEX
  8
0
 10
27.7454
 20
63.429
 30
0.0
 40
0
 41
0
  0
VERTEX
  8
0
 10
27.4238
 20
63.5469
 30
0.0
 40
0
 41
0
  0
VERTEX
  8
0
 10
27.1176
 20
63.6943
 30
0.0
 40
0
 41
0
  0
VERTEX
  8
0
 10
26.8289
 20
63.8697
 30
0.0
 40
0
 41
0
  0
VERTEX
  8
0
 10
26.5593
 20
64.0714
 30
0.0
 40
0
 41
0
  0
VERTEX
  8
0
 10
26.3106
 20
64.2974
 30
0.0
 40
0
 41
0
  0
VERTEX
  8
0
 10
26.0846
 20
64.5461
 30
0.0
 40
0
 41
0
  0
VERTEX
  8
0
 10
25.8829
 20
64.8157
 30
0.0
 40
0
 41
0
  0
VERTEX
  8
0
 10
25.7076
 20
65.1044
 30
0.0
 40
0
 41
0
  0
VERTEX
  8
0
 10
25.5601
 20
65.4104
 30
0.0
 40
0
 41
0
  0
VERTEX
  8
0
 10
25.4424
 20
65.7322
 30
0.0
 40
0
 41
0
  0
VERTEX
  8
0
 10
25.3561
 20
66.0678
 30
0.0
 40
0
 41
0
  0
VERTEX
  8
0
 10
25.3031
 20
66.4156
 30
0.0
 40
0
 41
0
  0
VERTEX
  8
0
 10
25.285
 20
66.684
 30
0.0
 40
0
 41
0
  0
VERTEX
  8
0
 10
25.285
 20
66.7736
 30
0.0
 40
0
 41
0
  0
VERTEX
  8
0
 10
25.285
 20
66.8631
 30
0.0
 40
0
 41
0
  0
VERTEX
  8
0
 10
25.3031
 20
67.1317
 30
0.0
 40
0
 41
0
  0
VERTEX
  8
0
 10
25.3561
 20
67.4793
 30
0.0
 40
0
 41
0
  0
VERTEX
  8
0
 10
25.4424
 20
67.815
 30
0.0
 40
0
 41
0
  0
VERTEX
  8
0
 10
25.5601
 20
68.1367
 30
0.0
 40
0
 41
0
  0
VERTEX
  8
0
 10
25.7076
 20
68.4428
 30
0.0
 40
0
 41
0
  0
VERTEX
  8
0
 10
25.8829
 20
68.7315
 30
0.0
 40
0
 41
0
  0
VERTEX
  8
0
 10
26.0846
 20
69.0011
 30
0.0
 40
0
 41
0
  0
VERTEX
  8
0
 10
26.3106
 20
69.2499
 30
0.0
 40
0
 41
0
  0
VERTEX
  8
0
 10
26.5593
 20
69.4758
 30
0.0
 40
0
 41
0
  0
VERTEX
  8
0
 10
26.8289
 20
69.6775
 30
0.0
 40
0
 41
0
  0
VERTEX
  8
0
 10
27.1176
 20
69.8529
 30
0.0
 40
0
 41
0
  0
VERTEX
  8
0
 10
27.4238
 20
70.0003
 30
0.0
 40
0
 41
0
  0
VERTEX
  8
0
 10
27.7454
 20
70.1181
 30
0.0
 40
0
 41
0
  0
VERTEX
  8
0
 10
28.0811
 20
70.2043
 30
0.0
 40
0
 41
0
  0
VERTEX
  8
0
 10
28.4288
 20
70.2575
 30
0.0
 40
0
 41
0
  0
VERTEX
  8
0
 10
28.6974
 20
70.2756
 30
0.0
 40
0
 41
0
  0
VERTEX
  8
0
 10
28.7868
 20
70.2756
 30
0.0
 40
0
 41
0
  0
VERTEX
  8
0
 10
28.8763
 20
70.2756
 30
0.0
 40
0
 41
0
  0
VERTEX
  8
0
 10
29.1449
 20
70.2575
 30
0.0
 40
0
 41
0
  0
VERTEX
  8
0
 10
29.4925
 20
70.2043
 30
0.0
 40
0
 41
0
  0
VERTEX
  8
0
 10
29.8282
 20
70.1181
 30
0.0
 40
0
 41
0
  0
VERTEX
  8
0
 10
30.15
 20
70.0003
 30
0.0
 40
0
 41
0
  0
VERTEX
  8
0
 10
30.4561
 20
69.8529
 30
0.0
 40
0
 41
0
  0
VERTEX
  8
0
 10
30.7449
 20
69.6775
 30
0.0
 40
0
 41
0
  0
VERTEX
  8
0
 10
31.0144
 20
69.4758
 30
0.0
 40
0
 41
0
  0
VERTEX
  8
0
 10
31.2631
 20
69.2499
 30
0.0
 40
0
 41
0
  0
VERTEX
  8
0
 10
31.489
 20
69.0011
 30
0.0
 40
0
 41
0
  0
VERTEX
  8
0
 10
31.6907
 20
68.7315
 30
0.0
 40
0
 41
0
  0
VERTEX
  8
0
 10
31.8661
 20
68.4428
 30
0.0
 40
0
 41
0
  0
VERTEX
  8
0
 10
32.0136
 20
68.1367
 30
0.0
 40
0
 41
0
  0
VERTEX
  8
0
 10
32.1314
 20
67.815
 30
0.0
 40
0
 41
0
  0
VERTEX
  8
0
 10
32.2176
 20
67.4793
 30
0.0
 40
0
 41
0
  0
VERTEX
  8
0
 10
32.2707
 20
67.1317
 30
0.0
 40
0
 41
0
  0
VERTEX
  8
0
 10
32.2888
 20
66.8631
 30
0.0
 40
0
 41
0
  0
VERTEX
  8
0
 10
32.2888
 20
66.7736
 30
0.0
 40
0
 41
0
  0
SEQEND
 8
0
  0
POLYLINE
  8
0
 62
     7
 66
     1
 10
0
 20
0
 30
0.0
 70
     1
 40
0
 41
0
  0
VERTEX
  8
0
 10
16.3613
 20
9.25489
 30
0.0
 40
0
 41
0
  0
VERTEX
  8
0
 10
16.3613
 20
9.19194
 30
0.0
 40
0
 41
0
  0
VERTEX
  8
0
 10
16.3358
 20
9.00299
 30
0.0
 40
0
 41
0
  0
VERTEX
  8
0
 10
16.2631
 20
8.76828
 30
0.0
 40
0
 41
0
  0
VERTEX
  8
0
 10
16.1478
 20
8.55593
 30
0.0
 40
0
 41
0
  0
VERTEX
  8
0
 10
15.9951
 20
8.37093
 30
0.0
 40
0
 41
0
  0
VERTEX
  8
0
 10
15.81
 20
8.21826
 30
0.0
 40
0
 41
0
  0
VERTEX
  8
0
 10
15.5978
 20
8.10297
 30
0.0
 40
0
 41
0
  0
VERTEX
  8
0
 10
15.3631
 20
8.03017
 30
0.0
 40
0
 41
0
  0
VERTEX
  8
0
 10
15.1742
 20
8.00472
 30
0.0
 40
0
 41
0
  0
VERTEX
  8
0
 10
15.1111
 20
8.00472
 30
0.0
 40
0
 41
0
  0
VERTEX
  8
0
 10
15.0481
 20
8.00472
 30
0.0
 40
0
 41
0
  0
VERTEX
  8
0
 10
14.8592
 20
8.03017
 30
0.0
 40
0
 41
0
  0
VERTEX
  8
0
 10
14.6244
 20
8.10297
 30
0.0
 40
0
 41
0
  0
VERTEX
  8
0
 10
14.4121
 20
8.21826
 30
0.0
 40
0
 41
0
  0
VERTEX
  8
0
 10
14.2271
 20
8.37093
 30
0.0
 40
0
 41
0
  0
VERTEX
  8
0
 10
14.0744
 20
8.55593
 30
0.0
 40
0
 41
0
  0
VERTEX
  8
0
 10
13.9592
 20
8.76828
 30
0.0
 40
0
 41
0
  0
VERTEX
  8
0
 10
13.8864
 20
9.00299
 30
0.0
 40
0
 41
0
  0
VERTEX
  8
0
 10
13.861
 20
9.19194
 30
0.0
 40
0
 41
0
  0
VERTEX
  8
0
 10
13.861
 20
9.25489
 30
0.0
 40
0
 41
0
  0
VERTEX
  8
0
 10
13.861
 20
9.31788
 30
0.0
 40
0
 41
0
  0
VERTEX
  8
0
 10
13.8864
 20
9.50683
 30
0.0
 40
0
 41
0
  0
VERTEX
  8
0
 10
13.9592
 20
9.74154
 30
0.0
 40
0
 41
0
  0
VERTEX
  8
0
 10
14.0744
 20
9.95389
 30
0.0
 40
0
 41
0
  0
VERTEX
  8
0
 10
14.2271
 20
10.1389
 30
0.0
 40
0
 41
0
  0
VERTEX
  8
0
 10
14.4121
 20
10.2916
 30
0.0
 40
0
 41
0
  0
VERTEX
  8
0
 10
14.6244
 20
10.4068
 30
0.0
 40
0
 41
0
  0
VERTEX
  8
0
 10
14.8592
 20
10.4797
 30
0.0
 40
0
 41
0
  0
VERTEX
  8
0
 10
15.0481
 20
10.505
 30
0.0
 40
0
 41
0
  0
VERTEX
  8
0
 10
15.1111
 20
10.505
 30
0.0
 40
0
 41
0
  0
VERTEX
  8
0
 10
15.1742
 20
10.505
 30
0.0
 40
0
 41
0
  0
VERTEX
  8
0
 10
15.3631
 20
10.4797
 30
0.0
 40
0
 41
0
  0
VERTEX
  8
0
 10
15.5978
 20
10.4068
 30
0.0
 40
0
 41
0
  0
VERTEX
  8
0
 10
15.81
 20
10.2916
 30
0.0
 40
0
 41
0
  0
VERTEX
  8
0
 10
15.9951
 20
10.1389
 30
0.0
 40
0
 41
0
  0
VERTEX
  8
0
 10
16.1478
 20
9.95389
 30
0.0
 40
0
 41
0
  0
VERTEX
  8
0
 10
16.2631
 20
9.74154
 30
0.0
 40
0
 41
0
  0
VERTEX
  8
0
 10
16.3358
 20
9.50683
 30
0.0
 40
0
 41
0
  0
VERTEX
  8
0
 10
16.3613
 20
9.31788
 30
0.0
 40
0
 41
0
  0
VERTEX
  8
0
 10
16.3613
 20
9.25489
 30
0.0
 40
0
 41
0
  0
SEQEND
 8
0
  0
POLYLINE
  8
0
 62
     7
 66
     1
 10
0
 20
0
 30
0.0
 70
     1
 40
0
 41
0
  0
VERTEX
  8
0
 10
20.0343
 20
90.8132
 30
0.0
 40
0
 41
0
  0
VERTEX
  8
0
 10
20.0343
 20
90.7904
 30
0.0
 40
0
 41
0
  0
VERTEX
  8
0
 10
20.0251
 20
90.7225
 30
0.0
 40
0
 41
0
  0
VERTEX
  8
0
 10
19.9989
 20
90.6379
 30
0.0
 40
0
 41
0
  0
VERTEX
  8
0
 10
19.9574
 20
90.5615
 30
0.0
 40
0
 41
0
  0
VERTEX
  8
0
 10
19.9025
 20
90.4949
 30
0.0
 40
0
 41
0
  0
VERTEX
  8
0
 10
19.8358
 20
90.44
 30
0.0
 40
0
 41
0
  0
VERTEX
  8
0
 10
19.7594
 20
90.3985
 30
0.0
 40
0
 41
0
  0
VERTEX
  8
0
 10
19.6749
 20
90.3722
 30
0.0
 40
0
 41
0
  0
VERTEX
  8
0
 10
19.6068
 20
90.3631
 30
0.0
 40
0
 41
0
  0
VERTEX
  8
0
 10
19.5842
 20
90.3631
 30
0.0
 40
0
 41
0
  0
VERTEX
  8
0
 10
19.5614
 20
90.3631
 30
0.0
 40
0
 41
0
  0
VERTEX
  8
0
 10
19.4933
 20
90.3722
 30
0.0
 40
0
 41
0
  0
VERTEX
  8
0
 10
19.4089
 20
90.3985
 30
0.0
 40
0
 41
0
  0
VERTEX
  8
0
 10
19.3325
 20
90.44
 30
0.0
 40
0
 41
0
  0
VERTEX
  8
0
 10
19.2658
 20
90.4949
 30
0.0
 40
0
 41
0
  0
VERTEX
  8
0
 10
19.2108
 20
90.5615
 30
0.0
 40
0
 41
0
  0
VERTEX
  8
0
 10
19.1694
 20
90.6379
 30
0.0
 40
0
 41
0
  0
VERTEX
  8
0
 10
19.1431
 20
90.7225
 30
0.0
 40
0
 41
0
  0
VERTEX
  8
0
 10
19.134
 20
90.7904
 30
0.0
 40
0
 41
0
  0
VERTEX
  8
0
 10
19.134
 20
90.8132
 30
0.0
 40
0
 41
0
  0
VERTEX
  8
0
 10
19.134
 20
90.8358
 30
0.0
 40
0
 41
0
  0
VERTEX
  8
0
 10
19.1431
 20
90.9039
 30
0.0
 40
0
 41
0
  0
VERTEX
  8
0
 10
19.1694
 20
90.9885
 30
0.0
 40
0
 41
0
  0
VERTEX
  8
0
 10
19.2108
 20
91.0649
 30
0.0
 40
0
 41
0
  0
VERTEX
  8
0
 10
19.2658
 20
91.1315
 30
0.0
 40
0
 41
0
  0
VERTEX
  8
0
 10
19.3325
 20
91.1865
 30
0.0
 40
0
 41
0
  0
VERTEX
  8
0
 10
19.4089
 20
91.2279
 30
0.0
 40
0
 41
0
  0
VERTEX
  8
0
 10
19.4933
 20
91.2542
 30
0.0
 40
0
 41
0
  0
VERTEX
  8
0
 10
19.5614
 20
91.2633
 30
0.0
 40
0
 41
0
  0
VERTEX
  8
0
 10
19.5842
 20
91.2633
 30
0.0
 40
0
 41
0
  0
VERTEX
  8
0
 10
19.6068
 20
91.2633
 30
0.0
 40
0
 41
0
  0
VERTEX
  8
0
 10
19.6749
 20
91.2542
 30
0.0
 40
0
 41
0
  0
VERTEX
  8
0
 10
19.7594
 20
91.2279
 30
0.0
 40
0
 41
0
  0
VERTEX
  8
0
 10
19.8358
 20
91.1865
 30
0.0
 40
0
 41
0
  0
VERTEX
  8
0
 10
19.9025
 20
91.1315
 30
0.0
 40
0
 41
0
  0
VERTEX
  8
0
 10
19.9574
 20
91.0649
 30
0.0
 40
0
 41
0
  0
VERTEX
  8
0
 10
19.9989
 20
90.9885
 30
0.0
 40
0
 41
0
  0
VERTEX
  8
0
 10
20.0251
 20
90.9039
 30
0.0
 40
0
 41
0
  0
VERTEX
  8
0
 10
20.0343
 20
90.8358
 30
0.0
 40
0
 41
0
  0
VERTEX
  8
0
 10
20.0343
 20
90.8132
 30
0.0
 40
0
 41
0
  0
SEQEND
 8
0
  0
POLYLINE
  8
0
 62
     7
 66
     1
 10
0
 20
0
 30
0.0
 70
     1
 40
0
 41
0
  0
VERTEX
  8
0
 10
24.436
 20
90.8132
 30
0.0
 40
0
 41
0
  0
VERTEX
  8
0
 10
24.436
 20
90.7904
 30
0.0
 40
0
 41
0
  0
VERTEX
  8
0
 10
24.4268
 20
90.7225
 30
0.0
 40
0
 41
0
  0
VERTEX
  8
0
 10
24.4006
 20
90.6379
 30
0.0
 40
0
 41
0
  0
VERTEX
  8
0
 10
24.359
 20
90.5615
 30
0.0
 40
0
 41
0
  0
VERTEX
  8
0
 10
24.304
 20
90.4949
 30
0.0
 40
0
 41
0
  0
VERTEX
  8
0
 10
24.2375
 20
90.44
 30
0.0
 40
0
 41
0
  0
VERTEX
  8
0
 10
24.161
 20
90.3985
 30
0.0
 40
0
 41
0
  0
VERTEX
  8
0
 10
24.0765
 20
90.3722
 30
0.0
 40
0
 41
0
  0
VERTEX
  8
0
 10
24.0085
 20
90.3631
 30
0.0
 40
0
 41
0
  0
VERTEX
  8
0
 10
23.9858
 20
90.3631
 30
0.0
 40
0
 41
0
  0
VERTEX
  8
0
 10
23.9631
 20
90.3631
 30
0.0
 40
0
 41
0
  0
VERTEX
  8
0
 10
23.895
 20
90.3722
 30
0.0
 40
0
 41
0
  0
VERTEX
  8
0
 10
23.8106
 20
90.3985
 30
0.0
 40
0
 41
0
  0
VERTEX
  8
0
 10
23.7342
 20
90.44
 30
0.0
 40
0
 41
0
  0
VERTEX
  8
0
 10
23.6675
 20
90.4949
 30
0.0
 40
0
 41
0
  0
VERTEX
  8
0
 10
23.6125
 20
90.5615
 30
0.0
 40
0
 41
0
  0
VERTEX
  8
0
 10
23.571
 20
90.6379
 30
0.0
 40
0
 41
0
  0
VERTEX
  8
0
 10
23.5447
 20
90.7225
 30
0.0
 40
0
 41
0
  0
VERTEX
  8
0
 10
23.5357
 20
90.7904
 30
0.0
 40
0
 41
0
  0
VERTEX
  8
0
 10
23.5357
 20
90.8132
 30
0.0
 40
0
 41
0
  0
VERTEX
  8
0
 10
23.5357
 20
90.8358
 30
0.0
 40
0
 41
0
  0
VERTEX
  8
0
 10
23.5447
 20
90.9039
 30
0.0
 40
0
 41
0
  0
VERTEX
  8
0
 10
23.571
 20
90.9885
 30
0.0
 40
0
 41
0
  0
VERTEX
  8
0
 10
23.6125
 20
91.0649
 30
0.0
 40
0
 41
0
  0
VERTEX
  8
0
 10
23.6675
 20
91.1315
 30
0.0
 40
0
 41
0
  0
VERTEX
  8
0
 10
23.7342
 20
91.1865
 30
0.0
 40
0
 41
0
  0
VERTEX
  8
0
 10
23.8106
 20
91.2279
 30
0.0
 40
0
 41
0
  0
VERTEX
  8
0
 10
23.895
 20
91.2542
 30
0.0
 40
0
 41
0
  0
VERTEX
  8
0
 10
23.9631
 20
91.2633
 30
0.0
 40
0
 41
0
  0
VERTEX
  8
0
 10
23.9858
 20
91.2633
 30
0.0
 40
0
 41
0
  0
VERTEX
  8
0
 10
24.0085
 20
91.2633
 30
0.0
 40
0
 41
0
  0
VERTEX
  8
0
 10
24.0765
 20
91.2542
 30
0.0
 40
0
 41
0
  0
VERTEX
  8
0
 10
24.161
 20
91.2279
 30
0.0
 40
0
 41
0
  0
VERTEX
  8
0
 10
24.2375
 20
91.1865
 30
0.0
 40
0
 41
0
  0
VERTEX
  8
0
 10
24.304
 20
91.1315
 30
0.0
 40
0
 41
0
  0
VERTEX
  8
0
 10
24.359
 20
91.0649
 30
0.0
 40
0
 41
0
  0
VERTEX
  8
0
 10
24.4006
 20
90.9885
 30
0.0
 40
0
 41
0
  0
VERTEX
  8
0
 10
24.4268
 20
90.9039
 30
0.0
 40
0
 41
0
  0
VERTEX
  8
0
 10
24.436
 20
90.8358
 30
0.0
 40
0
 41
0
  0
VERTEX
  8
0
 10
24.436
 20
90.8132
 30
0.0
 40
0
 41
0
  0
SEQEND
 8
0
  0
POLYLINE
  8
0
 62
     7
 66
     1
 10
0
 20
0
 30
0.0
 40
180.019
 41
180.019
  0
VERTEX
  8
0
 10
284.969
 20
38.1639
 30
0.0
 40
2.50026
 41
2.50026
  0
VERTEX
  8
0
 10
289.472
 20
38.1639
 30
0.0
 40
2.50026
 41
2.50026
  0
SEQEND
 8
0
  0
POLYLINE
  8
0
 62
     7
 66
     1
 10
0
 20
0
 30
0.0
 40
180.019
 41
180.019
  0
VERTEX
  8
0
 10
2.78618
 20
38.1639
 30
0.0
 40
2.50026
 41
2.50026
  0
VERTEX
  8
0
 10
7.28868
 20
38.1639
 30
0.0
 40
2.50026
 41
2.50026
  0
SEQEND
 8
0
  0
POLYLINE
  8
0
 62
     7
 66
     1
 10
0
 20
0
 30
0.0
 40
180.019
 41
180.019
  0
VERTEX
  8
0
 10
262.471
 20
66.7746
 30
0.0
 40
2.50026
 41
2.50026
  0
VERTEX
  8
0
 10
264.974
 20
66.7746
 30
0.0
 40
2.50026
 41
2.50026
  0
SEQEND
 8
0
  0
POLYLINE
  8
0
 62
     7
 66
     1
 10
0
 20
0
 30
0.0
 40
180.019
 41
180.019
  0
VERTEX
  8
0
 10
192.894
 20
9.45404
 30
0.0
 40
2.50026
 41
2.50026
  0
VERTEX
  8
0
 10
195.397
 20
9.45404
 30
0.0
 40
2.50026
 41
2.50026
  0
SEQEND
 8
0
  0
POLYLINE
  8
0
 62
     7
 66
     1
 10
0
 20
0
 30
0.0
 40
180.019
 41
180.019
  0
VERTEX
  8
0
 10
130.571
 20
47.6694
 30
0.0
 40
2.50026
 41
2.50026
  0
VERTEX
  8
0
 10
133.074
 20
47.6694
 30
0.0
 40
2.50026
 41
2.50026
  0
SEQEND
 8
0
  0
POLYLINE
  8
0
 62
     7
 66
     1
 10
0
 20
0
 30
0.0
 70
     1
 40
0
 41
0
  0
VERTEX
  8
0
 10
30.0369
 20
66.7736
 30
0.0
 40
0
 41
0
  0
VERTEX
  8
0
 10
30.0369
 20
66.7106
 30
0.0
 40
0
 41
0
  0
VERTEX
  8
0
 10
30.0115
 20
66.5217
 30
0.0
 40
0
 41
0
  0
VERTEX
  8
0
 10
29.9388
 20
66.2869
 30
0.0
 40
0
 41
0
  0
VERTEX
  8
0
 10
29.8235
 20
66.0746
 30
0.0
 40
0
 41
0
  0
VERTEX
  8
0
 10
29.6708
 20
65.8896
 30
0.0
 40
0
 41
0
  0
VERTEX
  8
0
 10
29.4858
 20
65.7369
 30
0.0
 40
0
 41
0
  0
VERTEX
  8
0
 10
29.2735
 20
65.6217
 30
0.0
 40
0
 41
0
  0
VERTEX
  8
0
 10
29.0388
 20
65.5489
 30
0.0
 40
0
 41
0
  0
VERTEX
  8
0
 10
28.8497
 20
65.5235
 30
0.0
 40
0
 41
0
  0
VERTEX
  8
0
 10
28.7868
 20
65.5235
 30
0.0
 40
0
 41
0
  0
VERTEX
  8
0
 10
28.7239
 20
65.5235
 30
0.0
 40
0
 41
0
  0
VERTEX
  8
0
 10
28.5349
 20
65.5489
 30
0.0
 40
0
 41
0
  0
VERTEX
  8
0
 10
28.3001
 20
65.6217
 30
0.0
 40
0
 41
0
  0
VERTEX
  8
0
 10
28.0878
 20
65.7369
 30
0.0
 40
0
 41
0
  0
VERTEX
  8
0
 10
27.9028
 20
65.8896
 30
0.0
 40
0
 41
0
  0
VERTEX
  8
0
 10
27.7501
 20
66.0746
 30
0.0
 40
0
 41
0
  0
VERTEX
  8
0
 10
27.6349
 20
66.2869
 30
0.0
 40
0
 41
0
  0
VERTEX
  8
0
 10
27.5621
 20
66.5217
 30
0.0
 40
0
 41
0
  0
VERTEX
  8
0
 10
27.5367
 20
66.7106
 30
0.0
 40
0
 41
0
  0
VERTEX
  8
0
 10
27.5367
 20
66.7736
 30
0.0
 40
0
 41
0
  0
VERTEX
  8
0
 10
27.5367
 20
66.8365
 30
0.0
 40
0
 41
0
  0
VERTEX
  8
0
 10
27.5621
 20
67.0256
 30
0.0
 40
0
 41
0
  0
VERTEX
  8
0
 10
27.6349
 20
67.2601
 30
0.0
 40
0
 41
0
  0
VERTEX
  8
0
 10
27.7501
 20
67.4725
 30
0.0
 40
0
 41
0
  0
VERTEX
  8
0
 10
27.9028
 20
67.6576
 30
0.0
 40
0
 41
0
  0
VERTEX
  8
0
 10
28.0878
 20
67.8103
 30
0.0
 40
0
 41
0
  0
VERTEX
  8
0
 10
28.3001
 20
67.9256
 30
0.0
 40
0
 41
0
  0
VERTEX
  8
0
 10
28.5349
 20
67.9983
 30
0.0
 40
0
 41
0
  0
VERTEX
  8
0
 10
28.7239
 20
68.0237
 30
0.0
 40
0
 41
0
  0
VERTEX
  8
0
 10
28.7868
 20
68.0237
 30
0.0
 40
0
 41
0
  0
VERTEX
  8
0
 10
28.8497
 20
68.0237
 30
0.0
 40
0
 41
0
  0
VERTEX
  8
0
 10
29.0388
 20
67.9983
 30
0.0
 40
0
 41
0
  0
VERTEX
  8
0
 10
29.2735
 20
67.9256
 30
0.0
 40
0
 41
0
  0
VERTEX
  8
0
 10
29.4858
 20
67.8103
 30
0.0
 40
0
 41
0
  0
VERTEX
  8
0
 10
29.6708
 20
67.6576
 30
0.0
 40
0
 41
0
  0
VERTEX
  8
0
 10
29.8235
 20
67.4725
 30
0.0
 40
0
 41
0
  0
VERTEX
  8
0
 10
29.9388
 20
67.2601
 30
0.0
 40
0
 41
0
  0
VERTEX
  8
0
 10
30.0115
 20
67.0256
 30
0.0
 40
0
 41
0
  0
VERTEX
  8
0
 10
30.0369
 20
66.8365
 30
0.0
 40
0
 41
0
  0
VERTEX
  8
0
 10
30.0369
 20
66.7736
 30
0.0
 40
0
 41
0
  0
SEQEND
 8
0
  0
POLYLINE
  8
0
 62
     0
 66
     1
 10
0
 20
0
 30
0.0
 70
     1
 40
0
 41
0
  0
VERTEX
  8
0
 10
18.6131
 20
9.25489
 30
0.0
 40
0
 41
0
  0
VERTEX
  8
0
 10
18.6131
 20
9.16542
 30
0.0
 40
0
 41
0
  0
VERTEX
  8
0
 10
18.595
 20
8.89686
 30
0.0
 40
0
 41
0
  0
VERTEX
  8
0
 10
18.5419
 20
8.54915
 30
0.0
 40
0
 41
0
  0
VERTEX
  8
0
 10
18.4556
 20
8.21354
 30
0.0
 40
0
 41
0
  0
VERTEX
  8
0
 10
18.3378
 20
7.89176
 30
0.0
 40
0
 41
0
  0
VERTEX
  8
0
 10
18.1904
 20
7.58567
 30
0.0
 40
0
 41
0
  0
VERTEX
  8
0
 10
18.015
 20
7.29693
 30
0.0
 40
0
 41
0
  0
VERTEX
  8
0
 10
17.8133
 20
7.02735
 30
0.0
 40
0
 41
0
  0
VERTEX
  8
0
 10
17.5874
 20
6.77865
 30
0.0
 40
0
 41
0
  0
VERTEX
  8
0
 10
17.3386
 20
6.55263
 30
0.0
 40
0
 41
0
  0
VERTEX
  8
0
 10
17.069
 20
6.35101
 30
0.0
 40
0
 41
0
  0
VERTEX
  8
0
 10
16.7803
 20
6.17562
 30
0.0
 40
0
 41
0
  0
VERTEX
  8
0
 10
16.4742
 20
6.02815
 30
0.0
 40
0
 41
0
  0
VERTEX
  8
0
 10
16.1525
 20
5.91038
 30
0.0
 40
0
 41
0
  0
VERTEX
  8
0
 10
15.8168
 20
5.82411
 30
0.0
 40
0
 41
0
  0
VERTEX
  8
0
 10
15.4692
 20
5.77106
 30
0.0
 40
0
 41
0
  0
VERTEX
  8
0
 10
15.2006
 20
5.75293
 30
0.0
 40
0
 41
0
  0
VERTEX
  8
0
 10
15.1111
 20
5.75293
 30
0.0
 40
0
 41
0
  0
VERTEX
  8
0
 10
15.0215
 20
5.75293
 30
0.0
 40
0
 41
0
  0
VERTEX
  8
0
 10
14.7531
 20
5.77106
 30
0.0
 40
0
 41
0
  0
VERTEX
  8
0
 10
14.4053
 20
5.82411
 30
0.0
 40
0
 41
0
  0
VERTEX
  8
0
 10
14.0697
 20
5.91038
 30
0.0
 40
0
 41
0
  0
VERTEX
  8
0
 10
13.748
 20
6.02815
 30
0.0
 40
0
 41
0
  0
VERTEX
  8
0
 10
13.4419
 20
6.17562
 30
0.0
 40
0
 41
0
  0
VERTEX
  8
0
 10
13.1532
 20
6.35101
 30
0.0
 40
0
 41
0
  0
VERTEX
  8
0
 10
12.8836
 20
6.55263
 30
0.0
 40
0
 41
0
  0
VERTEX
  8
0
 10
12.6349
 20
6.77865
 30
0.0
 40
0
 41
0
  0
VERTEX
  8
0
 10
12.4089
 20
7.02735
 30
0.0
 40
0
 41
0
  0
VERTEX
  8
0
 10
12.2073
 20
7.29693
 30
0.0
 40
0
 41
0
  0
VERTEX
  8
0
 10
12.0318
 20
7.58567
 30
0.0
 40
0
 41
0
  0
VERTEX
  8
0
 10
11.8844
 20
7.89176
 30
0.0
 40
0
 41
0
  0
VERTEX
  8
0
 10
11.7666
 20
8.21354
 30
0.0
 40
0
 41
0
  0
VERTEX
  8
0
 10
11.6803
 20
8.54915
 30
0.0
 40
0
 41
0
  0
VERTEX
  8
0
 10
11.6273
 20
8.89686
 30
0.0
 40
0
 41
0
  0
VERTEX
  8
0
 10
11.6092
 20
9.16542
 30
0.0
 40
0
 41
0
  0
VERTEX
  8
0
 10
11.6092
 20
9.25489
 30
0.0
 40
0
 41
0
  0
VERTEX
  8
0
 10
11.6092
 20
9.3444
 30
0.0
 40
0
 41
0
  0
VERTEX
  8
0
 10
11.6273
 20
9.61296
 30
0.0
 40
0
 41
0
  0
VERTEX
  8
0
 10
11.6803
 20
9.96067
 30
0.0
 40
0
 41
0
  0
VERTEX
  8
0
 10
11.7666
 20
10.2963
 30
0.0
 40
0
 41
0
  0
VERTEX
  8
0
 10
11.8844
 20
10.618
 30
0.0
 40
0
 41
0
  0
VERTEX
  8
0
 10
12.0318
 20
10.9241
 30
0.0
 40
0
 41
0
  0
VERTEX
  8
0
 10
12.2073
 20
11.2128
 30
0.0
 40
0
 41
0
  0
VERTEX
  8
0
 10
12.4089
 20
11.4824
 30
0.0
 40
0
 41
0
  0
VERTEX
  8
0
 10
12.6349
 20
11.7311
 30
0.0
 40
0
 41
0
  0
VERTEX
  8
0
 10
12.8836
 20
11.9571
 30
0.0
 40
0
 41
0
  0
VERTEX
  8
0
 10
13.1532
 20
12.1587
 30
0.0
 40
0
 41
0
  0
VERTEX
  8
0
 10
13.4419
 20
12.3342
 30
0.0
 40
0
 41
0
  0
VERTEX
  8
0
 10
13.748
 20
12.4816
 30
0.0
 40
0
 41
0
  0
VERTEX
  8
0
 10
14.0697
 20
12.5994
 30
0.0
 40
0
 41
0
  0
VERTEX
  8
0
 10
14.4053
 20
12.6857
 30
0.0
 40
0
 41
0
  0
VERTEX
  8
0
 10
14.7531
 20
12.7387
 30
0.0
 40
0
 41
0
  0
VERTEX
  8
0
 10
15.0215
 20
12.7568
 30
0.0
 40
0
 41
0
  0
VERTEX
  8
0
 10
15.1111
 20
12.7568
 30
0.0
 40
0
 41
0
  0
VERTEX
  8
0
 10
15.2006
 20
12.7568
 30
0.0
 40
0
 41
0
  0
VERTEX
  8
0
 10
15.4692
 20
12.7387
 30
0.0
 40
0
 41
0
  0
VERTEX
  8
0
 10
15.8168
 20
12.6857
 30
0.0
 40
0
 41
0
  0
VERTEX
  8
0
 10
16.1525
 20
12.5994
 30
0.0
 40
0
 41
0
  0
VERTEX
  8
0
 10
16.4742
 20
12.4816
 30
0.0
 40
0
 41
0
  0
VERTEX
  8
0
 10
16.7803
 20
12.3342
 30
0.0
 40
0
 41
0
  0
VERTEX
  8
0
 10
17.069
 20
12.1587
 30
0.0
 40
0
 41
0
  0
VERTEX
  8
0
 10
17.3386
 20
11.9571
 30
0.0
 40
0
 41
0
  0
VERTEX
  8
0
 10
17.5874
 20
11.7311
 30
0.0
 40
0
 41
0
  0
VERTEX
  8
0
 10
17.8133
 20
11.4824
 30
0.0
 40
0
 41
0
  0
VERTEX
  8
0
 10
18.015
 20
11.2128
 30
0.0
 40
0
 41
0
  0
VERTEX
  8
0
 10
18.1904
 20
10.9241
 30
0.0
 40
0
 41
0
  0
VERTEX
  8
0
 10
18.3378
 20
10.618
 30
0.0
 40
0
 41
0
  0
VERTEX
  8
0
 10
18.4556
 20
10.2963
 30
0.0
 40
0
 41
0
  0
VERTEX
  8
0
 10
18.5419
 20
9.96067
 30
0.0
 40
0
 41
0
  0
VERTEX
  8
0
 10
18.595
 20
9.61296
 30
0.0
 40
0
 41
0
  0
VERTEX
  8
0
 10
18.6131
 20
9.3444
 30
0.0
 40
0
 41
0
  0
VERTEX
  8
0
 10
18.6131
 20
9.25489
 30
0.0
 40
0
 41
0
  0
SEQEND
 8
0
  0
POLYLINE
  8
0
 62
     0
 66
     1
 10
0
 20
0
 30
0.0
 40
360.22
 41
360.22
  0
VERTEX
  8
0
 10
284.721
 20
38.1639
 30
0.0
 40
5.00306
 41
5.00306
  0
VERTEX
  8
0
 10
289.722
 20
38.1639
 30
0.0
 40
5.00306
 41
5.00306
  0
SEQEND
 8
0
  0
POLYLINE
  8
0
 62
     0
 66
     1
 10
0
 20
0
 30
0.0
 40
360.22
 41
360.22
  0
VERTEX
  8
0
 10
2.53717
 20
38.1639
 30
0.0
 40
5.00306
 41
5.00306
  0
VERTEX
  8
0
 10
7.53771
 20
38.1639
 30
0.0
 40
5.00306
 41
5.00306
  0
SEQEND
 8
0
  0
POLYLINE
  8
0
 62
     0
 66
     1
 10
0
 20
0
 30
0.0
 70
     1
 40
0
 41
0
  0
VERTEX
  8
0
 10
267.225
 20
66.7736
 30
0.0
 40
0
 41
0
  0
VERTEX
  8
0
 10
267.225
 20
66.684
 30
0.0
 40
0
 41
0
  0
VERTEX
  8
0
 10
267.206
 20
66.4156
 30
0.0
 40
0
 41
0
  0
VERTEX
  8
0
 10
267.153
 20
66.0679
 30
0.0
 40
0
 41
0
  0
VERTEX
  8
0
 10
267.067
 20
65.7324
 30
0.0
 40
0
 41
0
  0
VERTEX
  8
0
 10
266.949
 20
65.4107
 30
0.0
 40
0
 41
0
  0
VERTEX
  8
0
 10
266.801
 20
65.1046
 30
0.0
 40
0
 41
0
  0
VERTEX
  8
0
 10
266.626
 20
64.816
 30
0.0
 40
0
 41
0
  0
VERTEX
  8
0
 10
266.425
 20
64.5464
 30
0.0
 40
0
 41
0
  0
VERTEX
  8
0
 10
266.199
 20
64.2978
 30
0.0
 40
0
 41
0
  0
VERTEX
  8
0
 10
265.95
 20
64.0718
 30
0.0
 40
0
 41
0
  0
VERTEX
  8
0
 10
265.681
 20
63.8701
 30
0.0
 40
0
 41
0
  0
VERTEX
  8
0
 10
265.392
 20
63.6949
 30
0.0
 40
0
 41
0
  0
VERTEX
  8
0
 10
265.086
 20
63.5474
 30
0.0
 40
0
 41
0
  0
VERTEX
  8
0
 10
264.764
 20
63.4296
 30
0.0
 40
0
 41
0
  0
VERTEX
  8
0
 10
264.429
 20
63.3433
 30
0.0
 40
0
 41
0
  0
VERTEX
  8
0
 10
264.081
 20
63.2903
 30
0.0
 40
0
 41
0
  0
VERTEX
  8
0
 10
263.813
 20
63.2722
 30
0.0
 40
0
 41
0
  0
VERTEX
  8
0
 10
263.724
 20
63.2722
 30
0.0
 40
0
 41
0
  0
VERTEX
  8
0
 10
263.633
 20
63.2722
 30
0.0
 40
0
 41
0
  0
VERTEX
  8
0
 10
263.365
 20
63.2903
 30
0.0
 40
0
 41
0
  0
VERTEX
  8
0
 10
263.017
 20
63.3433
 30
0.0
 40
0
 41
0
  0
VERTEX
  8
0
 10
262.682
 20
63.4296
 30
0.0
 40
0
 41
0
  0
VERTEX
  8
0
 10
262.36
 20
63.5474
 30
0.0
 40
0
 41
0
  0
VERTEX
  8
0
 10
262.054
 20
63.6949
 30
0.0
 40
0
 41
0
  0
VERTEX
  8
0
 10
261.765
 20
63.8701
 30
0.0
 40
0
 41
0
  0
VERTEX
  8
0
 10
261.496
 20
64.0718
 30
0.0
 40
0
 41
0
  0
VERTEX
  8
0
 10
261.247
 20
64.2978
 30
0.0
 40
0
 41
0
  0
VERTEX
  8
0
 10
261.021
 20
64.5464
 30
0.0
 40
0
 41
0
  0
VERTEX
  8
0
 10
260.819
 20
64.816
 30
0.0
 40
0
 41
0
  0
VERTEX
  8
0
 10
260.644
 20
65.1046
 30
0.0
 40
0
 41
0
  0
VERTEX
  8
0
 10
260.497
 20
65.4107
 30
0.0
 40
0
 41
0
  0
VERTEX
  8
0
 10
260.379
 20
65.7324
 30
0.0
 40
0
 41
0
  0
VERTEX
  8
0
 10
260.293
 20
66.0679
 30
0.0
 40
0
 41
0
  0
VERTEX
  8
0
 10
260.24
 20
66.4156
 30
0.0
 40
0
 41
0
  0
VERTEX
  8
0
 10
260.222
 20
66.684
 30
0.0
 40
0
 41
0
  0
VERTEX
  8
0
 10
260.222
 20
66.7736
 30
0.0
 40
0
 41
0
  0
VERTEX
  8
0
 10
260.222
 20
66.8631
 30
0.0
 40
0
 41
0
  0
VERTEX
  8
0
 10
260.24
 20
67.1315
 30
0.0
 40
0
 41
0
  0
VERTEX
  8
0
 10
260.293
 20
67.4792
 30
0.0
 40
0
 41
0
  0
VERTEX
  8
0
 10
260.379
 20
67.8147
 30
0.0
 40
0
 41
0
  0
VERTEX
  8
0
 10
260.497
 20
68.1364
 30
0.0
 40
0
 41
0
  0
VERTEX
  8
0
 10
260.644
 20
68.4425
 30
0.0
 40
0
 41
0
  0
VERTEX
  8
0
 10
260.819
 20
68.7312
 30
0.0
 40
0
 41
0
  0
VERTEX
  8
0
 10
261.021
 20
69.0008
 30
0.0
 40
0
 41
0
  0
VERTEX
  8
0
 10
261.247
 20
69.2494
 30
0.0
 40
0
 41
0
  0
VERTEX
  8
0
 10
261.496
 20
69.4754
 30
0.0
 40
0
 41
0
  0
VERTEX
  8
0
 10
261.765
 20
69.6769
 30
0.0
 40
0
 41
0
  0
VERTEX
  8
0
 10
262.054
 20
69.8524
 30
0.0
 40
0
 41
0
  0
VERTEX
  8
0
 10
262.36
 20
69.9999
 30
0.0
 40
0
 41
0
  0
VERTEX
  8
0
 10
262.682
 20
70.1175
 30
0.0
 40
0
 41
0
  0
VERTEX
  8
0
 10
263.017
 20
70.2039
 30
0.0
 40
0
 41
0
  0
VERTEX
  8
0
 10
263.365
 20
70.2569
 30
0.0
 40
0
 41
0
  0
VERTEX
  8
0
 10
263.633
 20
70.275
 30
0.0
 40
0
 41
0
  0
VERTEX
  8
0
 10
263.724
 20
70.275
 30
0.0
 40
0
 41
0
  0
VERTEX
  8
0
 10
263.813
 20
70.275
 30
0.0
 40
0
 41
0
  0
VERTEX
  8
0
 10
264.081
 20
70.2569
 30
0.0
 40
0
 41
0
  0
VERTEX
  8
0
 10
264.429
 20
70.2039
 30
0.0
 40
0
 41
0
  0
VERTEX
  8
0
 10
264.764
 20
70.1175
 30
0.0
 40
0
 41
0
  0
VERTEX
  8
0
 10
265.086
 20
69.9999
 30
0.0
 40
0
 41
0
  0
VERTEX
  8
0
 10
265.392
 20
69.8524
 30
0.0
 40
0
 41
0
  0
VERTEX
  8
0
 10
265.681
 20
69.6769
 30
0.0
 40
0
 41
0
  0
VERTEX
  8
0
 10
265.95
 20
69.4754
 30
0.0
 40
0
 41
0
  0
VERTEX
  8
0
 10
266.199
 20
69.2494
 30
0.0
 40
0
 41
0
  0
VERTEX
  8
0
 10
266.425
 20
69.0008
 30
0.0
 40
0
 41
0
  0
VERTEX
  8
0
 10
266.626
 20
68.7312
 30
0.0
 40
0
 41
0
  0
VERTEX
  8
0
 10
266.801
 20
68.4425
 30
0.0
 40
0
 41
0
  0
VERTEX
  8
0
 10
266.949
 20
68.1364
 30
0.0
 40
0
 41
0
  0
VERTEX
  8
0
 10
267.067
 20
67.8147
 30
0.0
 40
0
 41
0
  0
VERTEX
  8
0
 10
267.153
 20
67.4792
 30
0.0
 40
0
 41
0
  0
VERTEX
  8
0
 10
267.206
 20
67.1315
 30
0.0
 40
0
 41
0
  0
VERTEX
  8
0
 10
267.225
 20
66.8631
 30
0.0
 40
0
 41
0
  0
VERTEX
  8
0
 10
267.225
 20
66.7736
 30
0.0
 40
0
 41
0
  0
SEQEND
 8
0
  0
POLYLINE
  8
0
 62
     0
 66
     1
 10
0
 20
0
 30
0.0
 70
     1
 40
0
 41
0
  0
VERTEX
  8
0
 10
197.647
 20
9.45307
 30
0.0
 40
0
 41
0
  0
VERTEX
  8
0
 10
197.647
 20
9.36361
 30
0.0
 40
0
 41
0
  0
VERTEX
  8
0
 10
197.629
 20
9.09511
 30
0.0
 40
0
 41
0
  0
VERTEX
  8
0
 10
197.576
 20
8.74744
 30
0.0
 40
0
 41
0
  0
VERTEX
  8
0
 10
197.49
 20
8.41189
 30
0.0
 40
0
 41
0
  0
VERTEX
  8
0
 10
197.372
 20
8.09022
 30
0.0
 40
0
 41
0
  0
VERTEX
  8
0
 10
197.225
 20
7.78412
 30
0.0
 40
0
 41
0
  0
VERTEX
  8
0
 10
197.05
 20
7.49544
 30
0.0
 40
0
 41
0
  0
VERTEX
  8
0
 10
196.849
 20
7.22586
 30
0.0
 40
0
 41
0
  0
VERTEX
  8
0
 10
196.622
 20
6.97721
 30
0.0
 40
0
 41
0
  0
VERTEX
  8
0
 10
196.374
 20
6.75125
 30
0.0
 40
0
 41
0
  0
VERTEX
  8
0
 10
196.104
 20
6.54969
 30
0.0
 40
0
 41
0
  0
VERTEX
  8
0
 10
195.815
 20
6.37429
 30
0.0
 40
0
 41
0
  0
VERTEX
  8
0
 10
195.51
 20
6.22683
 30
0.0
 40
0
 41
0
  0
VERTEX
  8
0
 10
195.188
 20
6.1091
 30
0.0
 40
0
 41
0
  0
VERTEX
  8
0
 10
194.851
 20
6.02285
 30
0.0
 40
0
 41
0
  0
VERTEX
  8
0
 10
194.504
 20
5.96978
 30
0.0
 40
0
 41
0
  0
VERTEX
  8
0
 10
194.236
 20
5.95167
 30
0.0
 40
0
 41
0
  0
VERTEX
  8
0
 10
194.146
 20
5.95167
 30
0.0
 40
0
 41
0
  0
VERTEX
  8
0
 10
194.057
 20
5.95167
 30
0.0
 40
0
 41
0
  0
VERTEX
  8
0
 10
193.789
 20
5.96978
 30
0.0
 40
0
 41
0
  0
VERTEX
  8
0
 10
193.44
 20
6.02285
 30
0.0
 40
0
 41
0
  0
VERTEX
  8
0
 10
193.106
 20
6.1091
 30
0.0
 40
0
 41
0
  0
VERTEX
  8
0
 10
192.783
 20
6.22683
 30
0.0
 40
0
 41
0
  0
VERTEX
  8
0
 10
192.478
 20
6.37429
 30
0.0
 40
0
 41
0
  0
VERTEX
  8
0
 10
192.189
 20
6.54969
 30
0.0
 40
0
 41
0
  0
VERTEX
  8
0
 10
191.919
 20
6.75125
 30
0.0
 40
0
 41
0
  0
VERTEX
  8
0
 10
191.671
 20
6.97721
 30
0.0
 40
0
 41
0
  0
VERTEX
  8
0
 10
191.444
 20
7.22586
 30
0.0
 40
0
 41
0
  0
VERTEX
  8
0
 10
191.243
 20
7.49544
 30
0.0
 40
0
 41
0
  0
VERTEX
  8
0
 10
191.068
 20
7.78412
 30
0.0
 40
0
 41
0
  0
VERTEX
  8
0
 10
190.919
 20
8.09022
 30
0.0
 40
0
 41
0
  0
VERTEX
  8
0
 10
190.803
 20
8.41189
 30
0.0
 40
0
 41
0
  0
VERTEX
  8
0
 10
190.717
 20
8.74744
 30
0.0
 40
0
 41
0
  0
VERTEX
  8
0
 10
190.663
 20
9.09511
 30
0.0
 40
0
 41
0
  0
VERTEX
  8
0
 10
190.644
 20
9.36361
 30
0.0
 40
0
 41
0
  0
VERTEX
  8
0
 10
190.644
 20
9.45307
 30
0.0
 40
0
 41
0
  0
VERTEX
  8
0
 10
190.644
 20
9.54258
 30
0.0
 40
0
 41
0
  0
VERTEX
  8
0
 10
190.663
 20
9.81108
 30
0.0
 40
0
 41
0
  0
VERTEX
  8
0
 10
190.717
 20
10.1587
 30
0.0
 40
0
 41
0
  0
VERTEX
  8
0
 10
190.803
 20
10.4943
 30
0.0
 40
0
 41
0
  0
VERTEX
  8
0
 10
190.919
 20
10.816
 30
0.0
 40
0
 41
0
  0
VERTEX
  8
0
 10
191.068
 20
11.1221
 30
0.0
 40
0
 41
0
  0
VERTEX
  8
0
 10
191.243
 20
11.4107
 30
0.0
 40
0
 41
0
  0
VERTEX
  8
0
 10
191.444
 20
11.6803
 30
0.0
 40
0
 41
0
  0
VERTEX
  8
0
 10
191.671
 20
11.9289
 30
0.0
 40
0
 41
0
  0
VERTEX
  8
0
 10
191.919
 20
12.1549
 30
0.0
 40
0
 41
0
  0
VERTEX
  8
0
 10
192.189
 20
12.3565
 30
0.0
 40
0
 41
0
  0
VERTEX
  8
0
 10
192.478
 20
12.5318
 30
0.0
 40
0
 41
0
  0
VERTEX
  8
0
 10
192.783
 20
12.6793
 30
0.0
 40
0
 41
0
  0
VERTEX
  8
0
 10
193.106
 20
12.797
 30
0.0
 40
0
 41
0
  0
VERTEX
  8
0
 10
193.44
 20
12.8833
 30
0.0
 40
0
 41
0
  0
VERTEX
  8
0
 10
193.789
 20
12.9364
 30
0.0
 40
0
 41
0
  0
VERTEX
  8
0
 10
194.057
 20
12.9544
 30
0.0
 40
0
 41
0
  0
VERTEX
  8
0
 10
194.146
 20
12.9544
 30
0.0
 40
0
 41
0
  0
VERTEX
  8
0
 10
194.236
 20
12.9544
 30
0.0
 40
0
 41
0
  0
VERTEX
  8
0
 10
194.504
 20
12.9364
 30
0.0
 40
0
 41
0
  0
VERTEX
  8
0
 10
194.851
 20
12.8833
 30
0.0
 40
0
 41
0
  0
VERTEX
  8
0
 10
195.188
 20
12.797
 30
0.0
 40
0
 41
0
  0
VERTEX
  8
0
 10
195.51
 20
12.6793
 30
0.0
 40
0
 41
0
  0
VERTEX
  8
0
 10
195.815
 20
12.5318
 30
0.0
 40
0
 41
0
  0
VERTEX
  8
0
 10
196.104
 20
12.3565
 30
0.0
 40
0
 41
0
  0
VERTEX
  8
0
 10
196.374
 20
12.1549
 30
0.0
 40
0
 41
0
  0
VERTEX
  8
0
 10
196.622
 20
11.9289
 30
0.0
 40
0
 41
0
  0
VERTEX
  8
0
 10
196.849
 20
11.6803
 30
0.0
 40
0
 41
0
  0
VERTEX
  8
0
 10
197.05
 20
11.4107
 30
0.0
 40
0
 41
0
  0
VERTEX
  8
0
 10
197.225
 20
11.1221
 30
0.0
 40
0
 41
0
  0
VERTEX
  8
0
 10
197.372
 20
10.816
 30
0.0
 40
0
 41
0
  0
VERTEX
  8
0
 10
197.49
 20
10.4943
 30
0.0
 40
0
 41
0
  0
VERTEX
  8
0
 10
197.576
 20
10.1587
 30
0.0
 40
0
 41
0
  0
VERTEX
  8
0
 10
197.629
 20
9.81108
 30
0.0
 40
0
 41
0
  0
VERTEX
  8
0
 10
197.647
 20
9.54258
 30
0.0
 40
0
 41
0
  0
VERTEX
  8
0
 10
197.647
 20
9.45307
 30
0.0
 40
0
 41
0
  0
SEQEND
 8
0
  0
POLYLINE
  8
0
 62
     0
 66
     1
 10
0
 20
0
 30
0.0
 70
     1
 40
0
 41
0
  0
VERTEX
  8
0
 10
135.326
 20
47.6676
 30
0.0
 40
0
 41
0
  0
VERTEX
  8
0
 10
135.326
 20
47.5782
 30
0.0
 40
0
 41
0
  0
VERTEX
  8
0
 10
135.308
 20
47.3097
 30
0.0
 40
0
 41
0
  0
VERTEX
  8
0
 10
135.255
 20
46.9621
 30
0.0
 40
0
 41
0
  0
VERTEX
  8
0
 10
135.168
 20
46.6265
 30
0.0
 40
0
 41
0
  0
VERTEX
  8
0
 10
135.051
 20
46.3049
 30
0.0
 40
0
 41
0
  0
VERTEX
  8
0
 10
134.903
 20
45.9987
 30
0.0
 40
0
 41
0
  0
VERTEX
  8
0
 10
134.728
 20
45.71
 30
0.0
 40
0
 41
0
  0
VERTEX
  8
0
 10
134.526
 20
45.4404
 30
0.0
 40
0
 41
0
  0
VERTEX
  8
0
 10
134.3
 20
45.1918
 30
0.0
 40
0
 41
0
  0
VERTEX
  8
0
 10
134.052
 20
44.9658
 30
0.0
 40
0
 41
0
  0
VERTEX
  8
0
 10
133.782
 20
44.7643
 30
0.0
 40
0
 41
0
  0
VERTEX
  8
0
 10
133.493
 20
44.5889
 30
0.0
 40
0
 41
0
  0
VERTEX
  8
0
 10
133.187
 20
44.4415
 30
0.0
 40
0
 41
0
  0
VERTEX
  8
0
 10
132.866
 20
44.3238
 30
0.0
 40
0
 41
0
  0
VERTEX
  8
0
 10
132.53
 20
44.2375
 30
0.0
 40
0
 41
0
  0
VERTEX
  8
0
 10
132.182
 20
44.1844
 30
0.0
 40
0
 41
0
  0
VERTEX
  8
0
 10
131.914
 20
44.1662
 30
0.0
 40
0
 41
0
  0
VERTEX
  8
0
 10
131.825
 20
44.1662
 30
0.0
 40
0
 41
0
  0
VERTEX
  8
0
 10
131.735
 20
44.1662
 30
0.0
 40
0
 41
0
  0
VERTEX
  8
0
 10
131.467
 20
44.1844
 30
0.0
 40
0
 41
0
  0
VERTEX
  8
0
 10
131.119
 20
44.2375
 30
0.0
 40
0
 41
0
  0
VERTEX
  8
0
 10
130.783
 20
44.3238
 30
0.0
 40
0
 41
0
  0
VERTEX
  8
0
 10
130.462
 20
44.4415
 30
0.0
 40
0
 41
0
  0
VERTEX
  8
0
 10
130.156
 20
44.5889
 30
0.0
 40
0
 41
0
  0
VERTEX
  8
0
 10
129.867
 20
44.7643
 30
0.0
 40
0
 41
0
  0
VERTEX
  8
0
 10
129.597
 20
44.9658
 30
0.0
 40
0
 41
0
  0
VERTEX
  8
0
 10
129.349
 20
45.1918
 30
0.0
 40
0
 41
0
  0
VERTEX
  8
0
 10
129.123
 20
45.4404
 30
0.0
 40
0
 41
0
  0
VERTEX
  8
0
 10
128.921
 20
45.71
 30
0.0
 40
0
 41
0
  0
VERTEX
  8
0
 10
128.746
 20
45.9987
 30
0.0
 40
0
 41
0
  0
VERTEX
  8
0
 10
128.598
 20
46.3049
 30
0.0
 40
0
 41
0
  0
VERTEX
  8
0
 10
128.481
 20
46.6265
 30
0.0
 40
0
 41
0
  0
VERTEX
  8
0
 10
128.394
 20
46.9621
 30
0.0
 40
0
 41
0
  0
VERTEX
  8
0
 10
128.341
 20
47.3097
 30
0.0
 40
0
 41
0
  0
VERTEX
  8
0
 10
128.323
 20
47.5782
 30
0.0
 40
0
 41
0
  0
VERTEX
  8
0
 10
128.323
 20
47.6676
 30
0.0
 40
0
 41
0
  0
VERTEX
  8
0
 10
128.323
 20
47.7572
 30
0.0
 40
0
 41
0
  0
VERTEX
  8
0
 10
128.341
 20
48.0257
 30
0.0
 40
0
 41
0
  0
VERTEX
  8
0
 10
128.394
 20
48.3733
 30
0.0
 40
0
 41
0
  0
VERTEX
  8
0
 10
128.481
 20
48.7089
 30
0.0
 40
0
 41
0
  0
VERTEX
  8
0
 10
128.598
 20
49.0306
 30
0.0
 40
0
 41
0
  0
VERTEX
  8
0
 10
128.746
 20
49.3367
 30
0.0
 40
0
 41
0
  0
VERTEX
  8
0
 10
128.921
 20
49.6253
 30
0.0
 40
0
 41
0
  0
VERTEX
  8
0
 10
129.123
 20
49.8949
 30
0.0
 40
0
 41
0
  0
VERTEX
  8
0
 10
129.349
 20
50.1436
 30
0.0
 40
0
 41
0
  0
VERTEX
  8
0
 10
129.597
 20
50.3696
 30
0.0
 40
0
 41
0
  0
VERTEX
  8
0
 10
129.867
 20
50.5711
 30
0.0
 40
0
 41
0
  0
VERTEX
  8
0
 10
130.156
 20
50.7465
 30
0.0
 40
0
 41
0
  0
VERTEX
  8
0
 10
130.462
 20
50.8939
 30
0.0
 40
0
 41
0
  0
VERTEX
  8
0
 10
130.783
 20
51.0117
 30
0.0
 40
0
 41
0
  0
VERTEX
  8
0
 10
131.119
 20
51.0979
 30
0.0
 40
0
 41
0
  0
VERTEX
  8
0
 10
131.467
 20
51.151
 30
0.0
 40
0
 41
0
  0
VERTEX
  8
0
 10
131.735
 20
51.169
 30
0.0
 40
0
 41
0
  0
VERTEX
  8
0
 10
131.825
 20
51.169
 30
0.0
 40
0
 41
0
  0
VERTEX
  8
0
 10
131.914
 20
51.169
 30
0.0
 40
0
 41
0
  0
VERTEX
  8
0
 10
132.182
 20
51.151
 30
0.0
 40
0
 41
0
  0
VERTEX
  8
0
 10
132.53
 20
51.0979
 30
0.0
 40
0
 41
0
  0
VERTEX
  8
0
 10
132.866
 20
51.0117
 30
0.0
 40
0
 41
0
  0
VERTEX
  8
0
 10
133.187
 20
50.8939
 30
0.0
 40
0
 41
0
  0
VERTEX
  8
0
 10
133.493
 20
50.7465
 30
0.0
 40
0
 41
0
  0
VERTEX
  8
0
 10
133.782
 20
50.5711
 30
0.0
 40
0
 41
0
  0
VERTEX
  8
0
 10
134.052
 20
50.3696
 30
0.0
 40
0
 41
0
  0
VERTEX
  8
0
 10
134.3
 20
50.1436
 30
0.0
 40
0
 41
0
  0
VERTEX
  8
0
 10
134.526
 20
49.8949
 30
0.0
 40
0
 41
0
  0
VERTEX
  8
0
 10
134.728
 20
49.6253
 30
0.0
 40
0
 41
0
  0
VERTEX
  8
0
 10
134.903
 20
49.3367
 30
0.0
 40
0
 41
0
  0
VERTEX
  8
0
 10
135.051
 20
49.0306
 30
0.0
 40
0
 41
0
  0
VERTEX
  8
0
 10
135.168
 20
48.7089
 30
0.0
 40
0
 41
0
  0
VERTEX
  8
0
 10
135.255
 20
48.3733
 30
0.0
 40
0
 41
0
  0
VERTEX
  8
0
 10
135.308
 20
48.0257
 30
0.0
 40
0
 41
0
  0
VERTEX
  8
0
 10
135.326
 20
47.7572
 30
0.0
 40
0
 41
0
  0
VERTEX
  8
0
 10
135.326
 20
47.6676
 30
0.0
 40
0
 41
0
  0
SEQEND
 8
0
  0
POLYLINE
  8
0
 62
     0
 66
     1
 10
0
 20
0
 30
0.0
 70
     1
 40
0
 41
0
  0
VERTEX
  8
0
 10
32.2888
 20
66.7736
 30
0.0
 40
0
 41
0
  0
VERTEX
  8
0
 10
32.2888
 20
66.684
 30
0.0
 40
0
 41
0
  0
VERTEX
  8
0
 10
32.2707
 20
66.4156
 30
0.0
 40
0
 41
0
  0
VERTEX
  8
0
 10
32.2176
 20
66.0678
 30
0.0
 40
0
 41
0
  0
VERTEX
  8
0
 10
32.1314
 20
65.7322
 30
0.0
 40
0
 41
0
  0
VERTEX
  8
0
 10
32.0136
 20
65.4104
 30
0.0
 40
0
 41
0
  0
VERTEX
  8
0
 10
31.8661
 20
65.1044
 30
0.0
 40
0
 41
0
  0
VERTEX
  8
0
 10
31.6907
 20
64.8157
 30
0.0
 40
0
 41
0
  0
VERTEX
  8
0
 10
31.489
 20
64.5461
 30
0.0
 40
0
 41
0
  0
VERTEX
  8
0
 10
31.2631
 20
64.2974
 30
0.0
 40
0
 41
0
  0
VERTEX
  8
0
 10
31.0144
 20
64.0714
 30
0.0
 40
0
 41
0
  0
VERTEX
  8
0
 10
30.7449
 20
63.8697
 30
0.0
 40
0
 41
0
  0
VERTEX
  8
0
 10
30.4561
 20
63.6943
 30
0.0
 40
0
 41
0
  0
VERTEX
  8
0
 10
30.15
 20
63.5469
 30
0.0
 40
0
 41
0
  0
VERTEX
  8
0
 10
29.8282
 20
63.429
 30
0.0
 40
0
 41
0
  0
VERTEX
  8
0
 10
29.4925
 20
63.3428
 30
0.0
 40
0
 41
0
  0
VERTEX
  8
0
 10
29.1449
 20
63.2897
 30
0.0
 40
0
 41
0
  0
VERTEX
  8
0
 10
28.8763
 20
63.2717
 30
0.0
 40
0
 41
0
  0
VERTEX
  8
0
 10
28.7868
 20
63.2717
 30
0.0
 40
0
 41
0
  0
VERTEX
  8
0
 10
28.6974
 20
63.2717
 30
0.0
 40
0
 41
0
  0
VERTEX
  8
0
 10
28.4288
 20
63.2897
 30
0.0
 40
0
 41
0
  0
VERTEX
  8
0
 10
28.0811
 20
63.3428
 30
0.0
 40
0
 41
0
  0
VERTEX
  8
0
 10
27.7454
 20
63.429
 30
0.0
 40
0
 41
0
  0
VERTEX
  8
0
 10
27.4238
 20
63.5469
 30
0.0
 40
0
 41
0
  0
VERTEX
  8
0
 10
27.1176
 20
63.6943
 30
0.0
 40
0
 41
0
  0
VERTEX
  8
0
 10
26.8289
 20
63.8697
 30
0.0
 40
0
 41
0
  0
VERTEX
  8
0
 10
26.5593
 20
64.0714
 30
0.0
 40
0
 41
0
  0
VERTEX
  8
0
 10
26.3106
 20
64.2974
 30
0.0
 40
0
 41
0
  0
VERTEX
  8
0
 10
26.0846
 20
64.5461
 30
0.0
 40
0
 41
0
  0
VERTEX
  8
0
 10
25.8829
 20
64.8157
 30
0.0
 40
0
 41
0
  0
VERTEX
  8
0
 10
25.7076
 20
65.1044
 30
0.0
 40
0
 41
0
  0
VERTEX
  8
0
 10
25.5601
 20
65.4104
 30
0.0
 40
0
 41
0
  0
VERTEX
  8
0
 10
25.4424
 20
65.7322
 30
0.0
 40
0
 41
0
  0
VERTEX
  8
0
 10
25.3561
 20
66.0678
 30
0.0
 40
0
 41
0
  0
VERTEX
  8
0
 10
25.3031
 20
66.4156
 30
0.0
 40
0
 41
0
  0
VERTEX
  8
0
 10
25.285
 20
66.684
 30
0.0
 40
0
 41
0
  0
VERTEX
  8
0
 10
25.285
 20
66.7736
 30
0.0
 40
0
 41
0
  0
VERTEX
  8
0
 10
25.285
 20
66.8631
 30
0.0
 40
0
 41
0
  0
VERTEX
  8
0
 10
25.3031
 20
67.1317
 30
0.0
 40
0
 41
0
  0
VERTEX
  8
0
 10
25.3561
 20
67.4793
 30
0.0
 40
0
 41
0
  0
VERTEX
  8
0
 10
25.4424
 20
67.815
 30
0.0
 40
0
 41
0
  0
VERTEX
  8
0
 10
25.5601
 20
68.1367
 30
0.0
 40
0
 41
0
  0
VERTEX
  8
0
 10
25.7076
 20
68.4428
 30
0.0
 40
0
 41
0
  0
VERTEX
  8
0
 10
25.8829
 20
68.7315
 30
0.0
 40
0
 41
0
  0
VERTEX
  8
0
 10
26.0846
 20
69.0011
 30
0.0
 40
0
 41
0
  0
VERTEX
  8
0
 10
26.3106
 20
69.2499
 30
0.0
 40
0
 41
0
  0
VERTEX
  8
0
 10
26.5593
 20
69.4758
 30
0.0
 40
0
 41
0
  0
VERTEX
  8
0
 10
26.8289
 20
69.6775
 30
0.0
 40
0
 41
0
  0
VERTEX
  8
0
 10
27.1176
 20
69.8529
 30
0.0
 40
0
 41
0
  0
VERTEX
  8
0
 10
27.4238
 20
70.0003
 30
0.0
 40
0
 41
0
  0
VERTEX
  8
0
 10
27.7454
 20
70.1181
 30
0.0
 40
0
 41
0
  0
VERTEX
  8
0
 10
28.0811
 20
70.2043
 30
0.0
 40
0
 41
0
  0
VERTEX
  8
0
 10
28.4288
 20
70.2575
 30
0.0
 40
0
 41
0
  0
VERTEX
  8
0
 10
28.6974
 20
70.2756
 30
0.0
 40
0
 41
0
  0
VERTEX
  8
0
 10
28.7868
 20
70.2756
 30
0.0
 40
0
 41
0
  0
VERTEX
  8
0
 10
28.8763
 20
70.2756
 30
0.0
 40
0
 41
0
  0
VERTEX
  8
0
 10
29.1449
 20
70.2575
 30
0.0
 40
0
 41
0
  0
VERTEX
  8
0
 10
29.4925
 20
70.2043
 30
0.0
 40
0
 41
0
  0
VERTEX
  8
0
 10
29.8282
 20
70.1181
 30
0.0
 40
0
 41
0
  0
VERTEX
  8
0
 10
30.15
 20
70.0003
 30
0.0
 40
0
 41
0
  0
VERTEX
  8
0
 10
30.4561
 20
69.8529
 30
0.0
 40
0
 41
0
  0
VERTEX
  8
0
 10
30.7449
 20
69.6775
 30
0.0
 40
0
 41
0
  0
VERTEX
  8
0
 10
31.0144
 20
69.4758
 30
0.0
 40
0
 41
0
  0
VERTEX
  8
0
 10
31.2631
 20
69.2499
 30
0.0
 40
0
 41
0
  0
VERTEX
  8
0
 10
31.489
 20
69.0011
 30
0.0
 40
0
 41
0
  0
VERTEX
  8
0
 10
31.6907
 20
68.7315
 30
0.0
 40
0
 41
0
  0
VERTEX
  8
0
 10
31.8661
 20
68.4428
 30
0.0
 40
0
 41
0
  0
VERTEX
  8
0
 10
32.0136
 20
68.1367
 30
0.0
 40
0
 41
0
  0
VERTEX
  8
0
 10
32.1314
 20
67.815
 30
0.0
 40
0
 41
0
  0
VERTEX
  8
0
 10
32.2176
 20
67.4793
 30
0.0
 40
0
 41
0
  0
VERTEX
  8
0
 10
32.2707
 20
67.1317
 30
0.0
 40
0
 41
0
  0
VERTEX
  8
0
 10
32.2888
 20
66.8631
 30
0.0
 40
0
 41
0
  0
VERTEX
  8
0
 10
32.2888
 20
66.7736
 30
0.0
 40
0
 41
0
  0
SEQEND
 8
0
  0
POLYLINE
  8
0
 62
     7
 66
     1
 10
0
 20
0
 30
0.0
 70
     1
 40
0
 41
0
  0
VERTEX
  8
0
 10
16.3613
 20
9.25489
 30
0.0
 40
0
 41
0
  0
VERTEX
  8
0
 10
16.3613
 20
9.19194
 30
0.0
 40
0
 41
0
  0
VERTEX
  8
0
 10
16.3358
 20
9.00299
 30
0.0
 40
0
 41
0
  0
VERTEX
  8
0
 10
16.2631
 20
8.76828
 30
0.0
 40
0
 41
0
  0
VERTEX
  8
0
 10
16.1478
 20
8.55593
 30
0.0
 40
0
 41
0
  0
VERTEX
  8
0
 10
15.9951
 20
8.37093
 30
0.0
 40
0
 41
0
  0
VERTEX
  8
0
 10
15.81
 20
8.21826
 30
0.0
 40
0
 41
0
  0
VERTEX
  8
0
 10
15.5978
 20
8.10297
 30
0.0
 40
0
 41
0
  0
VERTEX
  8
0
 10
15.3631
 20
8.03017
 30
0.0
 40
0
 41
0
  0
VERTEX
  8
0
 10
15.1742
 20
8.00472
 30
0.0
 40
0
 41
0
  0
VERTEX
  8
0
 10
15.1111
 20
8.00472
 30
0.0
 40
0
 41
0
  0
VERTEX
  8
0
 10
15.0481
 20
8.00472
 30
0.0
 40
0
 41
0
  0
VERTEX
  8
0
 10
14.8592
 20
8.03017
 30
0.0
 40
0
 41
0
  0
VERTEX
  8
0
 10
14.6244
 20
8.10297
 30
0.0
 40
0
 41
0
  0
VERTEX
  8
0
 10
14.4121
 20
8.21826
 30
0.0
 40
0
 41
0
  0
VERTEX
  8
0
 10
14.2271
 20
8.37093
 30
0.0
 40
0
 41
0
  0
VERTEX
  8
0
 10
14.0744
 20
8.55593
 30
0.0
 40
0
 41
0
  0
VERTEX
  8
0
 10
13.9592
 20
8.76828
 30
0.0
 40
0
 41
0
  0
VERTEX
  8
0
 10
13.8864
 20
9.00299
 30
0.0
 40
0
 41
0
  0
VERTEX
  8
0
 10
13.861
 20
9.19194
 30
0.0
 40
0
 41
0
  0
VERTEX
  8
0
 10
13.861
 20
9.25489
 30
0.0
 40
0
 41
0
  0
VERTEX
  8
0
 10
13.861
 20
9.31788
 30
0.0
 40
0
 41
0
  0
VERTEX
  8
0
 10
13.8864
 20
9.50683
 30
0.0
 40
0
 41
0
  0
VERTEX
  8
0
 10
13.9592
 20
9.74154
 30
0.0
 40
0
 41
0
  0
VERTEX
  8
0
 10
14.0744
 20
9.95389
 30
0.0
 40
0
 41
0
  0
VERTEX
  8
0
 10
14.2271
 20
10.1389
 30
0.0
 40
0
 41
0
  0
VERTEX
  8
0
 10
14.4121
 20
10.2916
 30
0.0
 40
0
 41
0
  0
VERTEX
  8
0
 10
14.6244
 20
10.4068
 30
0.0
 40
0
 41
0
  0
VERTEX
  8
0
 10
14.8592
 20
10.4797
 30
0.0
 40
0
 41
0
  0
VERTEX
  8
0
 10
15.0481
 20
10.505
 30
0.0
 40
0
 41
0
  0
VERTEX
  8
0
 10
15.1111
 20
10.505
 30
0.0
 40
0
 41
0
  0
VERTEX
  8
0
 10
15.1742
 20
10.505
 30
0.0
 40
0
 41
0
  0
VERTEX
  8
0
 10
15.3631
 20
10.4797
 30
0.0
 40
0
 41
0
  0
VERTEX
  8
0
 10
15.5978
 20
10.4068
 30
0.0
 40
0
 41
0
  0
VERTEX
  8
0
 10
15.81
 20
10.2916
 30
0.0
 40
0
 41
0
  0
VERTEX
  8
0
 10
15.9951
 20
10.1389
 30
0.0
 40
0
 41
0
  0
VERTEX
  8
0
 10
16.1478
 20
9.95389
 30
0.0
 40
0
 41
0
  0
VERTEX
  8
0
 10
16.2631
 20
9.74154
 30
0.0
 40
0
 41
0
  0
VERTEX
  8
0
 10
16.3358
 20
9.50683
 30
0.0
 40
0
 41
0
  0
VERTEX
  8
0
 10
16.3613
 20
9.31788
 30
0.0
 40
0
 41
0
  0
VERTEX
  8
0
 10
16.3613
 20
9.25489
 30
0.0
 40
0
 41
0
  0
SEQEND
 8
0
  0
POLYLINE
  8
0
 62
     7
 66
     1
 10
0
 20
0
 30
0.0
 70
     1
 40
0
 41
0
  0
VERTEX
  8
0
 10
20.0343
 20
90.8132
 30
0.0
 40
0
 41
0
  0
VERTEX
  8
0
 10
20.0343
 20
90.7904
 30
0.0
 40
0
 41
0
  0
VERTEX
  8
0
 10
20.0251
 20
90.7225
 30
0.0
 40
0
 41
0
  0
VERTEX
  8
0
 10
19.9989
 20
90.6379
 30
0.0
 40
0
 41
0
  0
VERTEX
  8
0
 10
19.9574
 20
90.5615
 30
0.0
 40
0
 41
0
  0
VERTEX
  8
0
 10
19.9025
 20
90.4949
 30
0.0
 40
0
 41
0
  0
VERTEX
  8
0
 10
19.8358
 20
90.44
 30
0.0
 40
0
 41
0
  0
VERTEX
  8
0
 10
19.7594
 20
90.3985
 30
0.0
 40
0
 41
0
  0
VERTEX
  8
0
 10
19.6749
 20
90.3722
 30
0.0
 40
0
 41
0
  0
VERTEX
  8
0
 10
19.6068
 20
90.3631
 30
0.0
 40
0
 41
0
  0
VERTEX
  8
0
 10
19.5842
 20
90.3631
 30
0.0
 40
0
 41
0
  0
VERTEX
  8
0
 10
19.5614
 20
90.3631
 30
0.0
 40
0
 41
0
  0
VERTEX
  8
0
 10
19.4933
 20
90.3722
 30
0.0
 40
0
 41
0
  0
VERTEX
  8
0
 10
19.4089
 20
90.3985
 30
0.0
 40
0
 41
0
  0
VERTEX
  8
0
 10
19.3325
 20
90.44
 30
0.0
 40
0
 41
0
  0
VERTEX
  8
0
 10
19.2658
 20
90.4949
 30
0.0
 40
0
 41
0
  0
VERTEX
  8
0
 10
19.2108
 20
90.5615
 30
0.0
 40
0
 41
0
  0
VERTEX
  8
0
 10
19.1694
 20
90.6379
 30
0.0
 40
0
 41
0
  0
VERTEX
  8
0
 10
19.1431
 20
90.7225
 30
0.0
 40
0
 41
0
  0
VERTEX
  8
0
 10
19.134
 20
90.7904
 30
0.0
 40
0
 41
0
  0
VERTEX
  8
0
 10
19.134
 20
90.8132
 30
0.0
 40
0
 41
0
  0
VERTEX
  8
0
 10
19.134
 20
90.8358
 30
0.0
 40
0
 41
0
  0
VERTEX
  8
0
 10
19.1431
 20
90.9039
 30
0.0
 40
0
 41
0
  0
VERTEX
  8
0
 10
19.1694
 20
90.9885
 30
0.0
 40
0
 41
0
  0
VERTEX
  8
0
 10
19.2108
 20
91.0649
 30
0.0
 40
0
 41
0
  0
VERTEX
  8
0
 10
19.2658
 20
91.1315
 30
0.0
 40
0
 41
0
  0
VERTEX
  8
0
 10
19.3325
 20
91.1865
 30
0.0
 40
0
 41
0
  0
VERTEX
  8
0
 10
19.4089
 20
91.2279
 30
0.0
 40
0
 41
0
  0
VERTEX
  8
0
 10
19.4933
 20
91.2542
 30
0.0
 40
0
 41
0
  0
VERTEX
  8
0
 10
19.5614
 20
91.2633
 30
0.0
 40
0
 41
0
  0
VERTEX
  8
0
 10
19.5842
 20
91.2633
 30
0.0
 40
0
 41
0
  0
VERTEX
  8
0
 10
19.6068
 20
91.2633
 30
0.0
 40
0
 41
0
  0
VERTEX
  8
0
 10
19.6749
 20
91.2542
 30
0.0
 40
0
 41
0
  0
VERTEX
  8
0
 10
19.7594
 20
91.2279
 30
0.0
 40
0
 41
0
  0
VERTEX
  8
0
 10
19.8358
 20
91.1865
 30
0.0
 40
0
 41
0
  0
VERTEX
  8
0
 10
19.9025
 20
91.1315
 30
0.0
 40
0
 41
0
  0
VERTEX
  8
0
 10
19.9574
 20
91.0649
 30
0.0
 40
0
 41
0
  0
VERTEX
  8
0
 10
19.9989
 20
90.9885
 30
0.0
 40
0
 41
0
  0
VERTEX
  8
0
 10
20.0251
 20
90.9039
 30
0.0
 40
0
 41
0
  0
VERTEX
  8
0
 10
20.0343
 20
90.8358
 30
0.0
 40
0
 41
0
  0
VERTEX
  8
0
 10
20.0343
 20
90.8132
 30
0.0
 40
0
 41
0
  0
SEQEND
 8
0
  0
POLYLINE
  8
0
 62
     7
 66
     1
 10
0
 20
0
 30
0.0
 70
     1
 40
0
 41
0
  0
VERTEX
  8
0
 10
24.436
 20
90.8132
 30
0.0
 40
0
 41
0
  0
VERTEX
  8
0
 10
24.436
 20
90.7904
 30
0.0
 40
0
 41
0
  0
VERTEX
  8
0
 10
24.4268
 20
90.7225
 30
0.0
 40
0
 41
0
  0
VERTEX
  8
0
 10
24.4006
 20
90.6379
 30
0.0
 40
0
 41
0
  0
VERTEX
  8
0
 10
24.359
 20
90.5615
 30
0.0
 40
0
 41
0
  0
VERTEX
  8
0
 10
24.304
 20
90.4949
 30
0.0
 40
0
 41
0
  0
VERTEX
  8
0
 10
24.2375
 20
90.44
 30
0.0
 40
0
 41
0
  0
VERTEX
  8
0
 10
24.161
 20
90.3985
 30
0.0
 40
0
 41
0
  0
VERTEX
  8
0
 10
24.0765
 20
90.3722
 30
0.0
 40
0
 41
0
  0
VERTEX
  8
0
 10
24.0085
 20
90.3631
 30
0.0
 40
0
 41
0
  0
VERTEX
  8
0
 10
23.9858
 20
90.3631
 30
0.0
 40
0
 41
0
  0
VERTEX
  8
0
 10
23.9631
 20
90.3631
 30
0.0
 40
0
 41
0
  0
VERTEX
  8
0
 10
23.895
 20
90.3722
 30
0.0
 40
0
 41
0
  0
VERTEX
  8
0
 10
23.8106
 20
90.3985
 30
0.0
 40
0
 41
0
  0
VERTEX
  8
0
 10
23.7342
 20
90.44
 30
0.0
 40
0
 41
0
  0
VERTEX
  8
0
 10
23.6675
 20
90.4949
 30
0.0
 40
0
 41
0
  0
VERTEX
  8
0
 10
23.6125
 20
90.5615
 30
0.0
 40
0
 41
0
  0
VERTEX
  8
0
 10
23.571
 20
90.6379
 30
0.0
 40
0
 41
0
  0
VERTEX
  8
0
 10
23.5447
 20
90.7225
 30
0.0
 40
0
 41
0
  0
VERTEX
  8
0
 10
23.5357
 20
90.7904
 30
0.0
 40
0
 41
0
  0
VERTEX
  8
0
 10
23.5357
 20
90.8132
 30
0.0
 40
0
 41
0
  0
VERTEX
  8
0
 10
23.5357
 20
90.8358
 30
0.0
 40
0
 41
0
  0
VERTEX
  8
0
 10
23.5447
 20
90.9039
 30
0.0
 40
0
 41
0
  0
VERTEX
  8
0
 10
23.571
 20
90.9885
 30
0.0
 40
0
 41
0
  0
VERTEX
  8
0
 10
23.6125
 20
91.0649
 30
0.0
 40
0
 41
0
  0
VERTEX
  8
0
 10
23.6675
 20
91.1315
 30
0.0
 40
0
 41
0
  0
VERTEX
  8
0
 10
23.7342
 20
91.1865
 30
0.0
 40
0
 41
0
  0
VERTEX
  8
0
 10
23.8106
 20
91.2279
 30
0.0
 40
0
 41
0
  0
VERTEX
  8
0
 10
23.895
 20
91.2542
 30
0.0
 40
0
 41
0
  0
VERTEX
  8
0
 10
23.9631
 20
91.2633
 30
0.0
 40
0
 41
0
  0
VERTEX
  8
0
 10
23.9858
 20
91.2633
 30
0.0
 40
0
 41
0
  0
VERTEX
  8
0
 10
24.0085
 20
91.2633
 30
0.0
 40
0
 41
0
  0
VERTEX
  8
0
 10
24.0765
 20
91.2542
 30
0.0
 40
0
 41
0
  0
VERTEX
  8
0
 10
24.161
 20
91.2279
 30
0.0
 40
0
 41
0
  0
VERTEX
  8
0
 10
24.2375
 20
91.1865
 30
0.0
 40
0
 41
0
  0
VERTEX
  8
0
 10
24.304
 20
91.1315
 30
0.0
 40
0
 41
0
  0
VERTEX
  8
0
 10
24.359
 20
91.0649
 30
0.0
 40
0
 41
0
  0
VERTEX
  8
0
 10
24.4006
 20
90.9885
 30
0.0
 40
0
 41
0
  0
VERTEX
  8
0
 10
24.4268
 20
90.9039
 30
0.0
 40
0
 41
0
  0
VERTEX
  8
0
 10
24.436
 20
90.8358
 30
0.0
 40
0
 41
0
  0
VERTEX
  8
0
 10
24.436
 20
90.8132
 30
0.0
 40
0
 41
0
  0
SEQEND
 8
0
  0
POLYLINE
  8
0
 62
     7
 66
     1
 10
0
 20
0
 30
0.0
 40
180.019
 41
180.019
  0
VERTEX
  8
0
 10
284.969
 20
38.1639
 30
0.0
 40
2.50026
 41
2.50026
  0
VERTEX
  8
0
 10
289.472
 20
38.1639
 30
0.0
 40
2.50026
 41
2.50026
  0
SEQEND
 8
0
  0
POLYLINE
  8
0
 62
     7
 66
     1
 10
0
 20
0
 30
0.0
 40
180.019
 41
180.019
  0
VERTEX
  8
0
 10
2.78618
 20
38.1639
 30
0.0
 40
2.50026
 41
2.50026
  0
VERTEX
  8
0
 10
7.28868
 20
38.1639
 30
0.0
 40
2.50026
 41
2.50026
  0
SEQEND
 8
0
  0
POLYLINE
  8
0
 62
     7
 66
     1
 10
0
 20
0
 30
0.0
 40
180.019
 41
180.019
  0
VERTEX
  8
0
 10
262.471
 20
66.7746
 30
0.0
 40
2.50026
 41
2.50026
  0
VERTEX
  8
0
 10
264.974
 20
66.7746
 30
0.0
 40
2.50026
 41
2.50026
  0
SEQEND
 8
0
  0
POLYLINE
  8
0
 62
     7
 66
     1
 10
0
 20
0
 30
0.0
 40
180.019
 41
180.019
  0
VERTEX
  8
0
 10
192.894
 20
9.45404
 30
0.0
 40
2.50026
 41
2.50026
  0
VERTEX
  8
0
 10
195.397
 20
9.45404
 30
0.0
 40
2.50026
 41
2.50026
  0
SEQEND
 8
0
  0
POLYLINE
  8
0
 62
     7
 66
     1
 10
0
 20
0
 30
0.0
 40
180.019
 41
180.019
  0
VERTEX
  8
0
 10
130.571
 20
47.6694
 30
0.0
 40
2.50026
 41
2.50026
  0
VERTEX
  8
0
 10
133.074
 20
47.6694
 30
0.0
 40
2.50026
 41
2.50026
  0
SEQEND
 8
0
  0
POLYLINE
  8
0
 62
     7
 66
     1
 10
0
 20
0
 30
0.0
 70
     1
 40
0
 41
0
  0
VERTEX
  8
0
 10
30.0369
 20
66.7736
 30
0.0
 40
0
 41
0
  0
VERTEX
  8
0
 10
30.0369
 20
66.7106
 30
0.0
 40
0
 41
0
  0
VERTEX
  8
0
 10
30.0115
 20
66.5217
 30
0.0
 40
0
 41
0
  0
VERTEX
  8
0
 10
29.9388
 20
66.2869
 30
0.0
 40
0
 41
0
  0
VERTEX
  8
0
 10
29.8235
 20
66.0746
 30
0.0
 40
0
 41
0
  0
VERTEX
  8
0
 10
29.6708
 20
65.8896
 30
0.0
 40
0
 41
0
  0
VERTEX
  8
0
 10
29.4858
 20
65.7369
 30
0.0
 40
0
 41
0
  0
VERTEX
  8
0
 10
29.2735
 20
65.6217
 30
0.0
 40
0
 41
0
  0
VERTEX
  8
0
 10
29.0388
 20
65.5489
 30
0.0
 40
0
 41
0
  0
VERTEX
  8
0
 10
28.8497
 20
65.5235
 30
0.0
 40
0
 41
0
  0
VERTEX
  8
0
 10
28.7868
 20
65.5235
 30
0.0
 40
0
 41
0
  0
VERTEX
  8
0
 10
28.7239
 20
65.5235
 30
0.0
 40
0
 41
0
  0
VERTEX
  8
0
 10
28.5349
 20
65.5489
 30
0.0
 40
0
 41
0
  0
VERTEX
  8
0
 10
28.3001
 20
65.6217
 30
0.0
 40
0
 41
0
  0
VERTEX
  8
0
 10
28.0878
 20
65.7369
 30
0.0
 40
0
 41
0
  0
VERTEX
  8
0
 10
27.9028
 20
65.8896
 30
0.0
 40
0
 41
0
  0
VERTEX
  8
0
 10
27.7501
 20
66.0746
 30
0.0
 40
0
 41
0
  0
VERTEX
  8
0
 10
27.6349
 20
66.2869
 30
0.0
 40
0
 41
0
  0
VERTEX
  8
0
 10
27.5621
 20
66.5217
 30
0.0
 40
0
 41
0
  0
VERTEX
  8
0
 10
27.5367
 20
66.7106
 30
0.0
 40
0
 41
0
  0
VERTEX
  8
0
 10
27.5367
 20
66.7736
 30
0.0
 40
0
 41
0
  0
VERTEX
  8
0
 10
27.5367
 20
66.8365
 30
0.0
 40
0
 41
0
  0
VERTEX
  8
0
 10
27.5621
 20
67.0256
 30
0.0
 40
0
 41
0
  0
VERTEX
  8
0
 10
27.6349
 20
67.2601
 30
0.0
 40
0
 41
0
  0
VERTEX
  8
0
 10
27.7501
 20
67.4725
 30
0.0
 40
0
 41
0
  0
VERTEX
  8
0
 10
27.9028
 20
67.6576
 30
0.0
 40
0
 41
0
  0
VERTEX
  8
0
 10
28.0878
 20
67.8103
 30
0.0
 40
0
 41
0
  0
VERTEX
  8
0
 10
28.3001
 20
67.9256
 30
0.0
 40
0
 41
0
  0
VERTEX
  8
0
 10
28.5349
 20
67.9983
 30
0.0
 40
0
 41
0
  0
VERTEX
  8
0
 10
28.7239
 20
68.0237
 30
0.0
 40
0
 41
0
  0
VERTEX
  8
0
 10
28.7868
 20
68.0237
 30
0.0
 40
0
 41
0
  0
VERTEX
  8
0
 10
28.8497
 20
68.0237
 30
0.0
 40
0
 41
0
  0
VERTEX
  8
0
 10
29.0388
 20
67.9983
 30
0.0
 40
0
 41
0
  0
VERTEX
  8
0
 10
29.2735
 20
67.9256
 30
0.0
 40
0
 41
0
  0
VERTEX
  8
0
 10
29.4858
 20
67.8103
 30
0.0
 40
0
 41
0
  0
VERTEX
  8
0
 10
29.6708
 20
67.6576
 30
0.0
 40
0
 41
0
  0
VERTEX
  8
0
 10
29.8235
 20
67.4725
 30
0.0
 40
0
 41
0
  0
VERTEX
  8
0
 10
29.9388
 20
67.2601
 30
0.0
 40
0
 41
0
  0
VERTEX
  8
0
 10
30.0115
 20
67.0256
 30
0.0
 40
0
 41
0
  0
VERTEX
  8
0
 10
30.0369
 20
66.8365
 30
0.0
 40
0
 41
0
  0
VERTEX
  8
0
 10
30.0369
 20
66.7736
 30
0.0
 40
0
 41
0
  0
SEQEND
 8
0
  0
POLYLINE
  8
0
 62
     0
 66
     1
 10
0
 20
0
 30
0.0
 40
7.13776
 41
7.13776
  0
VERTEX
  8
0
 10
286.681
 20
0.0526801
 30
0.0
 40
0.0991356
 41
0.0991356
  0
VERTEX
  8
0
 10
5.57861
 20
0.0526801
 30
0.0
 40
0.0991356
 41
0.0991356
  0
SEQEND
 8
0
  0
POLYLINE
  8
0
 62
     0
 66
     1
 10
0
 20
0
 30
0.0
 40
7.13776
 41
7.13776
  0
VERTEX
  8
0
 10
5.57861
 20
94.6865
 30
0.0
 40
0.0991356
 41
0.0991356
  0
VERTEX
  8
0
 10
286.681
 20
94.6865
 30
0.0
 40
0.0991356
 41
0.0991356
  0
SEQEND
 8
0
  0
POLYLINE
  8
0
 62
     0
 66
     1
 10
0
 20
0
 30
0.0
 40
7.13776
 41
7.13776
  0
VERTEX
  8
0
 10
5.57915
 20
94.6846
 30
0.0
 40
0.0991356
 41
0.0991356
  0
VERTEX
  8
0
 10
5.528
 20
94.6846
 30
0.0
 40
0.0991356
 41
0.0991356
  0
VERTEX
  8
0
 10
5.37457
 20
94.6742
 30
0.0
 40
0.0991356
 41
0.0991356
  0
VERTEX
  8
0
 10
5.17589
 20
94.6439
 30
0.0
 40
0.0991356
 41
0.0991356
  0
VERTEX
  8
0
 10
4.98415
 20
94.5946
 30
0.0
 40
0.0991356
 41
0.0991356
  0
VERTEX
  8
0
 10
4.80035
 20
94.5272
 30
0.0
 40
0.0991356
 41
0.0991356
  0
VERTEX
  8
0
 10
4.62549
 20
94.4431
 30
0.0
 40
0.0991356
 41
0.0991356
  0
VERTEX
  8
0
 10
4.4605
 20
94.3428
 30
0.0
 40
0.0991356
 41
0.0991356
  0
VERTEX
  8
0
 10
4.30647
 20
94.2276
 30
0.0
 40
0.0991356
 41
0.0991356
  0
VERTEX
  8
0
 10
4.16439
 20
94.0985
 30
0.0
 40
0.0991356
 41
0.0991356
  0
VERTEX
  8
0
 10
4.03526
 20
93.9564
 30
0.0
 40
0.0991356
 41
0.0991356
  0
VERTEX
  8
0
 10
3.92008
 20
93.8025
 30
0.0
 40
0.0991356
 41
0.0991356
  0
VERTEX
  8
0
 10
3.81988
 20
93.6375
 30
0.0
 40
0.0991356
 41
0.0991356
  0
VERTEX
  8
0
 10
3.73562
 20
93.4625
 30
0.0
 40
0.0991356
 41
0.0991356
  0
VERTEX
  8
0
 10
3.66835
 20
93.2787
 30
0.0
 40
0.0991356
 41
0.0991356
  0
VERTEX
  8
0
 10
3.61908
 20
93.0871
 30
0.0
 40
0.0991356
 41
0.0991356
  0
VERTEX
  8
0
 10
3.58876
 20
92.8883
 30
0.0
 40
0.0991356
 41
0.0991356
  0
VERTEX
  8
0
 10
3.57844
 20
92.735
 30
0.0
 40
0.0991356
 41
0.0991356
  0
VERTEX
  8
0
 10
3.57844
 20
92.6838
 30
0.0
 40
0.0991356
 41
0.0991356
  0
SEQEND
 8
0
  0
POLYLINE
  8
0
 62
     0
 66
     1
 10
0
 20
0
 30
0.0
 40
7.13776
 41
7.13776
  0
VERTEX
  8
0
 10
3.57844
 20
2.05111
 30
0.0
 40
0.0991356
 41
0.0991356
  0
VERTEX
  8
0
 10
3.57844
 20
2
 30
0.0
 40
0.0991356
 41
0.0991356
  0
VERTEX
  8
0
 10
3.58876
 20
1.84657
 30
0.0
 40
0.0991356
 41
0.0991356
  0
VERTEX
  8
0
 10
3.61908
 20
1.64789
 30
0.0
 40
0.0991356
 41
0.0991356
  0
VERTEX
  8
0
 10
3.66835
 20
1.45617
 30
0.0
 40
0.0991356
 41
0.0991356
  0
VERTEX
  8
0
 10
3.73562
 20
1.27235
 30
0.0
 40
0.0991356
 41
0.0991356
  0
VERTEX
  8
0
 10
3.81988
 20
1.09749
 30
0.0
 40
0.0991356
 41
0.0991356
  0
VERTEX
  8
0
 10
3.92008
 20
0.932508
 30
0.0
 40
0.0991356
 41
0.0991356
  0
VERTEX
  8
0
 10
4.03526
 20
0.778483
 30
0.0
 40
0.0991356
 41
0.0991356
  0
VERTEX
  8
0
 10
4.16439
 20
0.636393
 30
0.0
 40
0.0991356
 41
0.0991356
  0
VERTEX
  8
0
 10
4.30647
 20
0.507269
 30
0.0
 40
0.0991356
 41
0.0991356
  0
VERTEX
  8
0
 10
4.4605
 20
0.39209
 30
0.0
 40
0.0991356
 41
0.0991356
  0
VERTEX
  8
0
 10
4.62549
 20
0.291883
 30
0.0
 40
0.0991356
 41
0.0991356
  0
VERTEX
  8
0
 10
4.80035
 20
0.207628
 30
0.0
 40
0.0991356
 41
0.0991356
  0
VERTEX
  8
0
 10
4.98415
 20
0.140354
 30
0.0
 40
0.0991356
 41
0.0991356
  0
VERTEX
  8
0
 10
5.17589
 20
0.0910915
 30
0.0
 40
0.0991356
 41
0.0991356
  0
VERTEX
  8
0
 10
5.37457
 20
0.0607639
 30
0.0
 40
0.0991356
 41
0.0991356
  0
VERTEX
  8
0
 10
5.528
 20
0.0504015
 30
0.0
 40
0.0991356
 41
0.0991356
  0
VERTEX
  8
0
 10
5.57915
 20
0.0504015
 30
0.0
 40
0.0991356
 41
0.0991356
  0
SEQEND
 8
0
  0
POLYLINE
  8
0
 62
     0
 66
     1
 10
0
 20
0
 30
0.0
 40
7.13776
 41
7.13776
  0
VERTEX
  8
0
 10
286.681
 20
0.0504015
 30
0.0
 40
0.0991356
 41
0.0991356
  0
VERTEX
  8
0
 10
286.731
 20
0.0504557
 30
0.0
 40
0.0991356
 41
0.0991356
  0
VERTEX
  8
0
 10
286.885
 20
0.0608724
 30
0.0
 40
0.0991356
 41
0.0991356
  0
VERTEX
  8
0
 10
287.083
 20
0.0912543
 30
0.0
 40
0.0991356
 41
0.0991356
  0
VERTEX
  8
0
 10
287.275
 20
0.140625
 30
0.0
 40
0.0991356
 41
0.0991356
  0
VERTEX
  8
0
 10
287.458
 20
0.207954
 30
0.0
 40
0.0991356
 41
0.0991356
  0
VERTEX
  8
0
 10
287.633
 20
0.29221
 30
0.0
 40
0.0991356
 41
0.0991356
  0
VERTEX
  8
0
 10
287.799
 20
0.392469
 30
0.0
 40
0.0991356
 41
0.0991356
  0
VERTEX
  8
0
 10
287.953
 20
0.50765
 30
0.0
 40
0.0991356
 41
0.0991356
  0
VERTEX
  8
0
 10
288.094
 20
0.636774
 30
0.0
 40
0.0991356
 41
0.0991356
  0
VERTEX
  8
0
 10
288.224
 20
0.778862
 30
0.0
 40
0.0991356
 41
0.0991356
  0
VERTEX
  8
0
 10
288.339
 20
0.932835
 30
0.0
 40
0.0991356
 41
0.0991356
  0
VERTEX
  8
0
 10
288.439
 20
1.09777
 30
0.0
 40
0.0991356
 41
0.0991356
  0
VERTEX
  8
0
 10
288.522
 20
1.27262
 30
0.0
 40
0.0991356
 41
0.0991356
  0
VERTEX
  8
0
 10
288.59
 20
1.45638
 30
0.0
 40
0.0991356
 41
0.0991356
  0
VERTEX
  8
0
 10
288.639
 20
1.64806
 30
0.0
 40
0.0991356
 41
0.0991356
  0
VERTEX
  8
0
 10
288.669
 20
1.84663
 30
0.0
 40
0.0991356
 41
0.0991356
  0
VERTEX
  8
0
 10
288.679
 20
2
 30
0.0
 40
0.0991356
 41
0.0991356
  0
VERTEX
  8
0
 10
288.679
 20
2.05111
 30
0.0
 40
0.0991356
 41
0.0991356
  0
SEQEND
 8
0
  0
POLYLINE
  8
0
 62
     0
 66
     1
 10
0
 20
0
 30
0.0
 40
7.13776
 41
7.13776
  0
VERTEX
  8
0
 10
288.679
 20
92.6838
 30
0.0
 40
0.0991356
 41
0.0991356
  0
VERTEX
  8
0
 10
288.679
 20
92.735
 30
0.0
 40
0.0991356
 41
0.0991356
  0
VERTEX
  8
0
 10
288.669
 20
92.8883
 30
0.0
 40
0.0991356
 41
0.0991356
  0
VERTEX
  8
0
 10
288.639
 20
93.0869
 30
0.0
 40
0.0991356
 41
0.0991356
  0
VERTEX
  8
0
 10
288.59
 20
93.2786
 30
0.0
 40
0.0991356
 41
0.0991356
  0
VERTEX
  8
0
 10
288.522
 20
93.4624
 30
0.0
 40
0.0991356
 41
0.0991356
  0
VERTEX
  8
0
 10
288.439
 20
93.6372
 30
0.0
 40
0.0991356
 41
0.0991356
  0
VERTEX
  8
0
 10
288.339
 20
93.8021
 30
0.0
 40
0.0991356
 41
0.0991356
  0
VERTEX
  8
0
 10
288.224
 20
93.9561
 30
0.0
 40
0.0991356
 41
0.0991356
  0
VERTEX
  8
0
 10
288.094
 20
94.0982
 30
0.0
 40
0.0991356
 41
0.0991356
  0
VERTEX
  8
0
 10
287.953
 20
94.2274
 30
0.0
 40
0.0991356
 41
0.0991356
  0
VERTEX
  8
0
 10
287.799
 20
94.3425
 30
0.0
 40
0.0991356
 41
0.0991356
  0
VERTEX
  8
0
 10
287.633
 20
94.4428
 30
0.0
 40
0.0991356
 41
0.0991356
  0
VERTEX
  8
0
 10
287.458
 20
94.5271
 30
0.0
 40
0.0991356
 41
0.0991356
  0
VERTEX
  8
0
 10
287.275
 20
94.5943
 30
0.0
 40
0.0991356
 41
0.0991356
  0
VERTEX
  8
0
 10
287.083
 20
94.6438
 30
0.0
 40
0.0991356
 41
0.0991356
  0
VERTEX
  8
0
 10
286.885
 20
94.6742
 30
0.0
 40
0.0991356
 41
0.0991356
  0
VERTEX
  8
0
 10
286.731
 20
94.6846
 30
0.0
 40
0.0991356
 41
0.0991356
  0
VERTEX
  8
0
 10
286.681
 20
94.6846
 30
0.0
 40
0.0991356
 41
0.0991356
  0
SEQEND
 8
0
  0
POLYLINE
  8
0
 62
     0
 66
     1
 10
0
 20
0
 30
0.0
 40
7.13776
 41
7.13776
  0
VERTEX
  8
0
 10
3.57639
 20
2.0524
 30
0.0
 40
0.0991356
 41
0.0991356
  0
VERTEX
  8
0
 10
3.57639
 20
92.6868
 30
0.0
 40
0.0991356
 41
0.0991356
  0
SEQEND
 8
0
  0
POLYLINE
  8
0
 62
     0
 66
     1
 10
0
 20
0
 30
0.0
 40
7.13776
 41
7.13776
  0
VERTEX
  8
0
 10
288.679
 20
92.6868
 30
0.0
 40
0.0991356
 41
0.0991356
  0
VERTEX
  8
0
 10
288.679
 20
2.0524
 30
0.0
 40
0.0991356
 41
0.0991356
  0
SEQEND
 8
0
  0
POLYLINE
  8
0
 62
     0
 66
     1
 10
0
 20
0
 30
0.0
 40
2.83861
 41
2.83861
  0
VERTEX
  8
0
 10
125.249
 20
47.6676
 30
0.0
 40
0.0394251
 41
0.0394251
  0
VERTEX
  8
0
 10
138.4
 20
47.6676
 30
0.0
 40
0.0394251
 41
0.0394251
  0
SEQEND
 8
0
  0
POLYLINE
  8
0
 62
     0
 66
     1
 10
0
 20
0
 30
0.0
 40
2.83861
 41
2.83861
  0
VERTEX
  8
0
 10
131.825
 20
54.2432
 30
0.0
 40
0.0394251
 41
0.0394251
  0
VERTEX
  8
0
 10
131.825
 20
41.0922
 30
0.0
 40
0.0394251
 41
0.0394251
  0
SEQEND
 8
0
  0
ENDSEC
  0
EOF
